<?xml version="1.0" standalone="no"?>
<!DOCTYPE svg PUBLIC "-//W3C//DTD SVG 20010904//EN"
 "http://www.w3.org/TR/2001/REC-SVG-20010904/DTD/svg10.dtd">
<svg version="1.0" xmlns="http://www.w3.org/2000/svg"
 width="300.000000pt" height="300.000000pt" viewBox="0 0 300.000000 300.000000"
 preserveAspectRatio="xMidYMid meet">
<metadata>
Created by potrace 1.14, written by Peter Selinger 2001-2017
</metadata>
<g transform="translate(0.000000,300.000000) scale(0.100000,-0.100000)"
fill="#000000" stroke="none">
<path d="M514 2980 c-238 -62 -434 -259 -495 -498 -18 -72 -19 -119 -19 -982
0 -863 1 -910 19 -982 62 -241 258 -437 499 -499 72 -18 119 -19 982 -19 863
0 910 1 982 19 241 62 437 258 499 499 18 72 19 119 19 982 0 863 -1 910 -19
982 -62 241 -258 437 -499 499 -72 18 -118 19 -986 18 -857 0 -915 -1 -982
-19z m1195 -732 l-2 -301 50 -22 50 -23 249 154 c136 84 249 152 250 151 8 -8
204 -351 204 -356 -1 -10 -382 -229 -430 -246 -114 -42 -291 -26 -425 39 -146
70 -243 162 -307 294 l-33 67 -3 273 -3 272 201 0 201 0 -2 -302z m-804 -169
c159 -91 206 -123 249 -170 100 -108 150 -245 149 -414 -1 -167 -49 -299 -146
-402 -39 -42 -95 -79 -241 -162 -105 -60 -201 -113 -213 -119 -20 -11 -26 -2
-117 159 -53 93 -94 174 -91 179 3 4 120 72 261 150 l255 143 -3 56 -3 56
-250 137 c-137 76 -254 139 -259 141 -10 3 194 357 206 357 5 0 96 -50 203
-111z m1157 -684 c42 -14 421 -224 442 -245 7 -7 -179 -350 -191 -350 -3 0
-42 22 -87 48 -44 27 -130 77 -191 112 -60 35 -139 80 -174 101 -70 41 -72 41
-139 -10 l-22 -16 10 -240 c5 -132 10 -264 10 -293 l0 -52 -207 2 -208 3 -3
235 c-2 211 0 242 17 300 60 196 260 369 481 416 77 16 198 11 262 -11z"/>
</g>
</svg>
