<svg width="36" height="32" viewBox="0 0 36 32" fill="none" xmlns="http://www.w3.org/2000/svg">
<path d="M7.67169 13.033H2.55737V14.3838H7.67169V13.033Z" fill="#EFF4FF"/>
<path d="M7.67169 7.62988H2.55737V10.3314H7.67169V7.62988Z" fill="#EFF4FF"/>
<path d="M16.6216 13.033H11.5073V14.3838H16.6216V13.033Z" fill="#EFF4FF"/>
<path d="M16.6216 7.62988H11.5073V10.3314H16.6216V7.62988Z" fill="#EFF4FF"/>
<path d="M35.4214 26.6424L27.9884 2.0684C27.6056 0.806071 26.5016 0 25.3094 0C25.026 0 24.7369 0.0462204 24.4535 0.141816L24.4519 0.142403L20.069 1.62117C19.6625 1.75902 19.3114 1.9899 19.018 2.27742C18.6406 1.10533 17.602 0.257221 16.365 0.256487L11.7638 0.256487C10.8823 0.257147 10.1054 0.693748 9.58939 1.36387C9.07342 0.693748 8.29641 0.257147 7.41495 0.256487L2.81376 0.256487C1.25952 0.257294 0.000347223 1.5869 0 3.22927L0 29.0273C0.000347223 30.6697 1.25952 31.9993 2.81376 31.9999H7.41488C8.29641 31.9993 9.07335 31.5626 9.58932 30.8925C10.1053 31.5627 10.8823 31.9993 11.7638 31.9999H16.3649C17.9191 31.9993 19.1784 30.6697 19.1786 29.0273V8.44441L25.678 29.9323C26.0614 31.1947 27.1655 32.0007 28.3579 32C28.6419 32 28.9317 31.9538 29.2144 31.8588L33.5977 30.3788C34.7926 29.9745 35.5562 28.8084 35.5556 27.5486C35.5556 27.2479 35.5126 26.9418 35.4214 26.6424ZM8.95009 29.0273C8.94856 29.923 8.26238 30.6472 7.41488 30.6492H2.81376C1.96625 30.6473 1.28007 29.923 1.27854 29.0273L1.27854 3.22927C1.28007 2.33362 1.96625 1.60869 2.81376 1.60737L7.41488 1.60737C8.26238 1.60869 8.94849 2.33355 8.95009 3.22927V29.0273ZM17.9002 29.0273C17.8986 29.923 17.2125 30.6472 16.365 30.6492H11.7638C10.9163 30.6473 10.2302 29.923 10.2287 29.0273V3.22927C10.2302 2.33362 10.9163 1.60869 11.7638 1.60737L16.365 1.60737C17.2125 1.60869 17.8986 2.33355 17.9002 3.22927V29.0273ZM33.2082 29.0927L28.8255 30.572C28.6689 30.6248 28.5121 30.6492 28.358 30.6492C27.7094 30.6485 27.1037 30.2099 26.8958 29.5207L19.4631 4.94677C19.4128 4.78126 19.3898 4.61567 19.3898 4.4528C19.3901 3.76749 19.8056 3.12773 20.4582 2.90815L24.8409 1.42865H24.8415C24.9979 1.3759 25.1546 1.35089 25.3094 1.35089C25.9578 1.35155 26.563 1.7902 26.771 2.48006L34.204 27.054C34.254 27.2196 34.277 27.3851 34.277 27.5487C34.2764 28.2332 33.8612 28.873 33.2082 29.0927Z" fill="#EFF4FF"/>
<path d="M24.4517 0.142377C24.4526 0.142377 24.4532 0.142377 24.4538 0.14179L24.5275 0.116699L24.4517 0.142377Z" fill="#EFF4FF"/>
<path d="M23.5059 13.8745L23.8948 15.1607L28.7668 13.5163L28.3773 12.2295L23.5059 13.8745Z" fill="#EFF4FF"/>
<path d="M26.8202 7.08301L21.9487 8.72736L22.7273 11.301L27.5987 9.65602L26.8202 7.08301Z" fill="#EFF4FF"/>
</svg>
