<svg width="34" height="32" viewBox="0 0 34 32" fill="none" xmlns="http://www.w3.org/2000/svg">
<path d="M25.5285 9.5732H6.38213V7.97766L25.5285 7.97766V9.5732ZM20.7419 12.7643H6.38213V14.3598H20.7419V12.7643ZM24.1213 20.7419H15.6968L7.97766 26.355V20.7419H4.38771C3.64744 20.7411 2.93773 20.4466 2.41428 19.9232C1.89082 19.3997 1.59638 18.69 1.59553 17.9497L1.59553 4.38771C1.59638 3.64744 1.89082 2.93773 2.41428 2.41428C2.93773 1.89082 3.64744 1.59638 4.38771 1.59553L27.5229 1.59553C28.2632 1.59638 28.9729 1.89082 29.4964 2.41428C30.0198 2.93773 30.3143 3.64744 30.3151 4.38771V14.9501C30.8131 14.7178 31.3629 14.6189 31.9106 14.6629V4.38771C31.9094 3.22441 31.4467 2.10911 30.6241 1.28653C29.8015 0.463949 28.6862 0.00126699 27.5229 0L4.38771 0C3.22441 0.00126699 2.10911 0.463949 1.28653 1.28653C0.463949 2.10911 0.00126699 3.22441 0 4.38771L0 17.9497C0.00126699 19.113 0.463949 20.2283 1.28653 21.0509C2.10911 21.8735 3.22441 22.3362 4.38771 22.3375H6.38213V29.4886L16.2154 22.3375H22.4922L24.1213 20.7419ZM33.8093 19.9968L32.6941 18.856L21.5285 29.7886L17.01 25.5397L15.917 26.7012L21.5493 32L33.8093 19.9968Z" fill="#EFF4FF"/>
</svg>
