<svg width="32" height="32" viewBox="0 0 32 32" fill="none" xmlns="http://www.w3.org/2000/svg">
<path d="M32 4.76165V19.4795C31.9987 20.7419 31.5347 21.9523 30.7099 22.8449C29.885 23.7376 28.7666 24.2397 27.6 24.2411H16.2608L6.4 32V24.2411H4.4C3.23344 24.2397 2.11502 23.7376 1.29013 22.8449C0.465249 21.9523 0.00127054 20.7419 0 19.4795L0 4.76165C0.00127054 3.4992 0.465249 2.28886 1.29013 1.39617C2.11502 0.503488 3.23344 0.00137496 4.4 0L27.6 0C28.7666 0.00137496 29.885 0.503488 30.7099 1.39617C31.5347 2.28886 31.9987 3.4992 32 4.76165ZM30.4 4.76165C30.3992 3.95829 30.1039 3.18809 29.579 2.62003C29.054 2.05196 28.3423 1.73242 27.6 1.73151L4.4 1.73151C3.65765 1.73242 2.94595 2.05196 2.42104 2.62003C1.89612 3.18809 1.60085 3.95829 1.6 4.76165L1.6 19.4795C1.60085 20.2828 1.89612 21.053 2.42104 21.6211C2.94595 22.1891 3.65765 22.5087 4.4 22.5096H8V28.6028L15.7392 22.5096H27.6C28.3423 22.5087 29.054 22.1891 29.579 21.6211C30.1039 21.053 30.3992 20.2828 30.4 19.4795V4.76165Z" fill="#EFF4FF"/>
<path d="M12.1148 6.43579H10.1719C9.68116 6.43579 9.28003 6.86989 9.28003 7.401V18.0814C9.28003 18.6149 9.68116 19.0466 10.1719 19.0466H12.1148C12.6079 19.0466 13.0067 18.6125 13.0067 18.0814V7.40343C13.0067 6.86989 12.6056 6.43579 12.1148 6.43579Z" fill="#EFF4FF"/>
<path d="M22.0623 10.6555H20.1239C19.6286 10.6555 19.2297 11.0896 19.2297 11.6207V18.0813C19.2297 18.6149 19.6309 19.0465 20.1239 19.0465H22.0623C22.5576 19.0465 22.9565 18.6124 22.9565 18.0813V11.6207C22.9565 11.0896 22.5553 10.6555 22.0623 10.6555Z" fill="#EFF4FF"/>
<path d="M17.119 3.80933H15.1783C14.6853 3.80933 14.2864 4.24343 14.2864 4.77454V18.0813C14.2864 18.6149 14.6875 19.0466 15.1783 19.0466H17.119C17.6097 19.0466 18.0086 18.6125 18.0086 18.0813V4.77454C18.0086 4.24343 17.6097 3.80933 17.119 3.80933ZM17.2108 17.6424H15.1514V5.21591H17.231L17.2108 17.6424Z" fill="#EFF4FF"/>
</svg>
