<svg width="33" height="32" viewBox="0 0 33 32" fill="none" xmlns="http://www.w3.org/2000/svg">
<path d="M5.95349 5.95349L20.8372 5.95349V7.44186L5.95349 7.44186V5.95349ZM5.95349 10.4186V11.907H16.3721V10.4186H5.95349ZM7.44186 21.6097V16.3721H2.97674C2.58212 16.3717 2.20378 16.2148 1.92474 15.9357C1.6457 15.6567 1.48877 15.2783 1.48837 14.8837L1.48837 2.97674C1.48877 2.58212 1.6457 2.20378 1.92474 1.92474C2.20378 1.6457 2.58212 1.48877 2.97674 1.48837L23.814 1.48837C24.2086 1.48877 24.5869 1.6457 24.866 1.92474C25.145 2.20378 25.3019 2.58212 25.3023 2.97674V11.907H26.7907V2.97674C26.7899 2.1875 26.476 1.43082 25.918 0.872738C25.3599 0.314661 24.6032 0.000788058 23.814 0L2.97674 0C2.1875 0.000788058 1.43082 0.314661 0.872738 0.872738C0.314661 1.43082 0.000788058 2.1875 0 2.97674L0 14.8837C0.000788058 15.673 0.314661 16.4296 0.872738 16.9877C1.43082 17.5458 2.1875 17.8597 2.97674 17.8605H5.95349V24.5299L11.907 20.2017V18.3606L7.44186 21.6097ZM17.8605 19.3488H28.2791V17.8605H17.8605V19.3488ZM17.8605 22.3256H25.3023V20.8372H17.8605V22.3256ZM32.7442 16.3721V23.814C32.7434 24.6032 32.4295 25.3599 31.8714 25.918C31.3134 26.476 30.5567 26.7899 29.7674 26.7907H28.2791V32L21.3343 26.7907H16.3721C15.5829 26.7899 14.8262 26.476 14.2681 25.918C13.71 25.3599 13.3961 24.6032 13.3953 23.814V16.3721C13.3961 15.5829 13.71 14.8262 14.2681 14.2681C14.8262 13.71 15.5829 13.3961 16.3721 13.3953H29.7674C30.5567 13.3961 31.3134 13.71 31.8714 14.2681C32.4295 14.8262 32.7434 15.5829 32.7442 16.3721ZM31.2558 16.3721C31.2554 15.9775 31.0985 15.5991 30.8194 15.3201C30.5404 15.0411 30.1621 14.8841 29.7674 14.8837H16.3721C15.9775 14.8841 15.5991 15.0411 15.3201 15.3201C15.0411 15.5991 14.8841 15.9775 14.8837 16.3721V23.814C14.8841 24.2086 15.0411 24.5869 15.3201 24.866C15.5991 25.145 15.9775 25.3019 16.3721 25.3023H21.83L26.7907 29.0233V25.3023H29.7674C30.1621 25.3019 30.5404 25.145 30.8194 24.866C31.0985 24.5869 31.2554 24.2086 31.2558 23.814V16.3721Z" fill="#EFF4FF"/>
</svg>
