<svg width="147" height="200" viewBox="0 0 147 200" fill="none" xmlns="http://www.w3.org/2000/svg">
<rect x="130" y="200" width="130" height="66.6116" rx="12" transform="rotate(-180 130 200)" fill="#99BAFF"/>
<path d="M108.428 152.035L34.5986 194.58C34.5986 194.58 17.9441 181.984 7.98576 179.156L86.4293 133.955C95.2072 137.425 104.178 142.566 112.978 149.207L113.149 149.314L108.406 152.035H108.428Z" fill="url(#paint0_linear_372_351)"/>
<g opacity="0.31">
<path d="M108.383 151.992C102.095 155.313 95.7847 158.569 89.5822 162.018L80.2463 167.16L70.9747 172.408C64.7722 175.878 58.6341 179.413 52.5174 183.034L43.3317 188.411C40.2626 190.189 37.258 192.074 34.2104 193.895C34.2104 193.895 34.5538 193.681 34.0816 193.295C33.8455 193.102 33.588 192.909 33.3519 192.738L32.7724 192.352L30.4545 190.788C28.9307 189.717 27.3211 188.775 25.7114 187.811L23.3077 186.375C22.5136 185.883 21.6551 185.497 20.8396 185.047L15.9033 182.455L15.8389 182.562L20.6679 185.347C21.462 185.818 22.299 186.247 23.0716 186.761L25.411 188.282C26.9562 189.31 28.5444 190.296 30.0467 191.388L34.5323 194.58L34.6611 194.666L108.49 152.1L108.426 151.992H108.383Z" fill="white"/>
</g>
<path d="M9.10084 179.135C17.9217 182.626 25.7768 187.789 34.5977 194.473V199.914C25.6909 194.794 16.7842 189.653 7.87751 184.533C7.87751 182.734 7.98481 180.506 7.98481 178.706C8.02773 178.706 9.05792 179.135 9.10084 179.156V179.135Z" fill="#0052FE"/>
<path d="M108.427 152.035L113.148 149.315C113.17 151.136 113.17 152.935 113.17 154.735C113.148 154.735 34.5976 200 34.5976 200V194.559L108.427 152.014V152.035Z" fill="#0052FE"/>
<path d="M65.9111 130.099V162.232C65.9111 163.025 65.3746 163.817 64.323 164.439C62.2197 165.66 58.8072 165.66 56.704 164.439C55.6523 163.839 55.1158 163.025 55.1158 162.232V130.099H65.9111Z" fill="#0052FE"/>
<path d="M34.9398 162.896L39.9404 160.004V158.762L34.9398 161.654V162.896Z" fill="#266F85"/>
<path d="M33.7596 164.91L41.0996 160.69V156.748L33.7596 160.99V164.91Z" fill="black"/>
<path d="M28.5441 166.581L33.5662 163.689V162.447L28.5441 165.339V166.581Z" fill="#266F85"/>
<path d="M27.3853 168.595L34.7253 164.353V160.433L27.3853 164.653V168.595Z" fill="black"/>
<path d="M22.1703 170.244L27.1709 167.374V166.131L22.1703 169.002V170.244Z" fill="#266F85"/>
<path d="M21.0115 172.258L28.3301 168.038V164.117L21.0115 168.338V172.258Z" fill="black"/>
<path d="M3.77751 78.7061L139.245 0.642674C139.997 0.192802 140.705 0.0642673 141.306 0.17138L141.499 0L145.19 2.31362L142.98 6.40531V94.8158C142.98 97.2151 141.306 100.107 139.224 101.307L5.43008 178.406L4.72183 181.62L1.78154 179.841C0.70845 179.692 0.000213623 178.749 0.000213623 177.207V85.2185C0.000213623 82.8192 1.67424 79.9272 3.75606 78.7275L3.77751 78.7061Z" fill="#6697FE"/>
<path d="M6.93243 181.17L142.379 103.106C144.461 101.907 146.135 99.0146 146.135 96.6153V4.62734C146.135 3.53479 145.77 2.74216 145.19 2.31371C144.504 1.821 143.495 1.821 142.379 2.46367L6.93243 80.5271C4.85063 81.7267 3.17659 84.6188 3.17659 87.0181V179.006C3.17659 181.405 4.85063 182.369 6.93243 181.17Z" fill="#3375FE"/>
<path d="M4.74263 86.0967V174.593C4.80702 175.921 5.75134 176.414 6.91028 175.728L142.378 97.6648C143.58 96.9793 144.546 95.287 144.546 93.8945V5.52689C144.546 4.75568 144.245 4.26297 143.773 4.07016C143.408 3.89878 142.915 3.96305 142.378 4.26297L6.93175 82.3264C5.70842 83.0119 4.76408 84.7257 4.76408 86.0967H4.74263Z" fill="#99BAFF"/>
<path d="M4.76427 86.0967V174.593C5.15059 174.743 5.64421 174.657 6.1593 174.357L141.606 96.2724C142.808 95.5869 143.773 93.8945 143.773 92.502V4.07016C143.409 3.89878 142.915 3.96305 142.378 4.26297L6.93193 82.3264C5.7086 83.0119 4.76427 84.7257 4.76427 86.0967Z" fill="#0052FE"/>
<mask id="mask0_372_351" style="mask-type:luminance" maskUnits="userSpaceOnUse" x="4" y="3" width="140" height="172">
<path d="M4.76427 86.0967V174.593C5.15059 174.743 5.64421 174.657 6.1593 174.357L141.606 96.2724C142.808 95.5869 143.773 93.8945 143.773 92.502V4.07016C143.409 3.89878 142.915 3.96305 142.378 4.26297L6.93193 82.3264C5.7086 83.0119 4.76427 84.7257 4.76427 86.0967Z" fill="white"/>
</mask>
<g mask="url(#mask0_372_351)">
<path d="M5.60178 179.906L148.002 97.9646L108.662 75.2997L-33.7166 157.241L5.60178 179.906Z" fill="#0052FE"/>
<path d="M139.117 96.4653L143.71 93.3591V58.3762L139.117 61.5039V96.4653Z" fill="#99BAFF"/>
<path d="M139.954 62.9177V65.2742C142.337 64.6743 141.628 64.6958 142.895 63.389V61.0111C141.628 62.3179 142.337 62.2965 139.954 62.9177Z" fill="#3375FE"/>
<path d="M139.976 61.1182L143.196 58.7832L121.068 46.2725L121.283 51.9923L139.976 61.1182Z" fill="#99BAFF"/>
<path d="M141.886 59.0402L119.78 48.4147V73.7574L139.053 61.2681L140.298 60.8611L141.886 59.0402Z" fill="#3375FE"/>
<path d="M139.289 61.1182C139.847 60.0899 140.105 59.3616 141.886 59.0402C137.572 56.5552 125.468 49.8286 121.132 47.3221C119.887 48.0505 120.145 48.1362 118.9 48.8646C123.214 51.3496 134.975 58.6118 139.289 61.1182Z" fill="#FBFDFE"/>
<path d="M142.637 58.8903L143.689 58.269L122.313 45.9511C122.034 45.8012 121.583 45.8012 121.304 45.9725C121.003 46.1439 120.982 46.401 121.261 46.5509L142.637 58.8903Z" fill="#99BAFF"/>
<path d="M139.01 61.461L140.062 60.8397L118.686 48.5218C118.407 48.3718 117.956 48.3718 117.677 48.5432C117.376 48.7146 117.355 48.9717 117.634 49.1216L139.01 61.4395V61.461Z" fill="#99BAFF"/>
<path d="M139.01 61.461C142.444 60.7755 142.53 60.2614 143.689 58.2905C143.41 58.1405 143.131 57.9692 142.852 57.8192C141.671 59.8115 141.607 60.3256 138.173 60.9897C138.452 61.1397 138.731 61.3111 139.01 61.461Z" fill="#99BAFF"/>
<path d="M139.246 96.3796C142.68 95.694 142.53 95.2656 143.689 93.2733C143.41 93.1233 143.131 92.952 142.852 92.802C141.671 94.7943 141.843 95.2227 138.388 95.9083C138.667 96.0582 138.946 96.2296 139.225 96.3796H139.246Z" fill="#99BAFF"/>
<path d="M117.44 83.8047L139.245 96.3797V61.4182L117.44 48.8433V83.8047Z" fill="#3375FE"/>
<path d="M134.14 100.321L138.711 97.2152V62.2323L134.14 65.36V100.321Z" fill="#0052FE"/>
<path d="M134.954 66.7738V69.1303C137.336 68.5304 136.628 68.5518 137.894 67.2451V64.8672C136.628 66.174 137.336 66.1525 134.954 66.7738Z" fill="#3375FE"/>
<path d="M134.976 64.9743L138.196 62.6393L116.068 50.1285L116.304 55.8483L134.976 64.9743Z" fill="#3375FE"/>
<path d="M136.886 62.8964L114.802 52.2709V77.6136L134.053 65.1243L135.298 64.7173L136.886 62.8964Z" fill="#3375FE"/>
<path d="M134.289 64.9743C134.847 63.946 135.105 63.2176 136.886 62.8963C132.572 60.4113 120.468 53.6846 116.132 51.1782C114.887 51.9066 115.145 51.9923 113.9 52.7206C118.214 55.2056 129.975 62.4893 134.289 64.9743Z" fill="#FAFCFD"/>
<path d="M137.66 62.7463L138.711 62.1251L117.335 49.8072C117.056 49.6572 116.605 49.6572 116.326 49.8072C116.026 49.9785 116.004 50.2356 116.283 50.3856L137.66 62.7035V62.7463Z" fill="#99BAFF"/>
<path d="M134.032 65.317L135.083 64.6958L113.707 52.3778C113.428 52.2279 112.977 52.2279 112.698 52.3778C112.398 52.5492 112.376 52.8063 112.655 52.9777L134.032 65.2956V65.317Z" fill="#99BAFF"/>
<path d="M134.032 65.3171C137.465 64.6316 137.551 64.1175 138.732 62.1466C138.453 61.9966 138.174 61.8253 137.895 61.6753C136.714 63.6676 136.65 64.1817 133.216 64.8458C133.495 65.0172 133.774 65.1672 134.053 65.3171H134.032Z" fill="#99BAFF"/>
<path d="M134.268 100.236C137.702 99.5501 137.551 99.1217 138.732 97.1294C138.453 96.9794 138.174 96.808 137.895 96.6581C136.714 98.6504 136.886 99.0788 133.431 99.7643C133.71 99.9357 133.989 100.086 134.268 100.236Z" fill="#0052FE"/>
<path d="M112.44 87.6607L134.267 100.236V65.2742L112.44 52.6992V87.6607Z" fill="#3375FE"/>
<path d="M122.849 105.934L132.979 99.8716V64.9102L122.849 70.9727V105.934Z" fill="#6697FE"/>
<path d="M123.665 78.7275V88.6461C126.047 88.0462 130.898 85.1113 132.164 83.8046V73.886C130.898 75.1928 126.047 78.1276 123.665 78.7275Z" fill="#99BAFF"/>
<path d="M123.685 70.587L132.463 65.3171L110.336 52.8064V56.0198L123.685 70.587Z" fill="#6697FE"/>
<path d="M131.155 65.5528L103.512 57.8835V83.2263L122.763 70.737L129.566 67.3951L131.155 65.5528Z" fill="#3375FE"/>
<path d="M122.999 70.587C123.557 69.5587 129.352 65.874 131.155 65.5527C126.841 63.0677 114.736 56.341 110.401 53.8346C109.156 54.563 103.855 57.6049 102.61 58.3333C106.924 60.8183 118.685 68.0805 122.999 70.587Z" fill="#FEFAFD"/>
<path d="M131.927 65.4242L132.979 64.8029L111.603 52.485C111.345 52.3351 110.873 52.3351 110.594 52.485C110.293 52.6564 110.272 52.9135 110.551 53.0849L131.927 65.4028V65.4242Z" fill="#99BAFF"/>
<path d="M122.742 70.9297L123.793 70.3084L102.417 57.9905C102.138 57.8406 101.687 57.8406 101.408 57.9905C101.108 58.1619 101.086 58.419 101.365 58.5689L122.742 70.8868V70.9297Z" fill="#99BAFF"/>
<path d="M122.742 70.9298C126.176 70.2443 131.82 66.7952 132.979 64.803C132.7 64.653 132.421 64.4816 132.142 64.3317C130.962 66.324 125.339 69.773 121.905 70.4585C122.184 70.6084 122.463 70.7798 122.742 70.9298Z" fill="#99BAFF"/>
<path d="M122.957 105.87C126.391 105.184 131.799 101.799 132.958 99.8286C132.679 99.6572 132.4 99.5073 132.121 99.3573C130.941 101.35 125.554 104.734 122.12 105.398C122.399 105.548 122.678 105.72 122.957 105.87Z" fill="#6697FE"/>
<path d="M101.151 93.2947L122.956 105.87V70.8868L101.151 58.3333V93.2947Z" fill="#3375FE"/>
<path d="M111.496 113.068L121.647 107.005V72.0437L111.496 78.1063V113.068Z" fill="#6697FE"/>
<path d="M112.333 85.861V95.7796C114.715 95.1798 119.566 92.2449 120.832 90.9381V81.0195C119.566 82.3263 114.715 85.2612 112.333 85.861Z" fill="#99BAFF"/>
<path d="M112.355 77.7206L121.133 72.4507L99.0055 59.9399V63.1533L112.355 77.7206Z" fill="#6697FE"/>
<path d="M119.824 72.7077L92.16 65.0171V90.3598L111.433 77.8706L118.236 74.5287L119.824 72.7077Z" fill="#3375FE"/>
<path d="M111.669 77.7206C112.227 76.6923 118.022 73.0077 119.824 72.6863C115.511 70.2013 103.406 63.4747 99.0707 60.9683C97.8259 61.6966 92.5248 64.7386 91.28 65.467C95.5939 67.952 107.355 75.2142 111.669 77.7206Z" fill="#FEFAFD"/>
<path d="M120.575 72.5579L121.627 71.9366L100.251 59.6187C99.9718 59.4688 99.5211 59.4688 99.2421 59.6401C98.9417 59.8115 98.9202 60.0686 99.1992 60.2185L120.575 72.5365V72.5579Z" fill="#99BAFF"/>
<path d="M111.39 78.0635L112.442 77.4422L91.0655 65.1243C90.7865 64.9744 90.3358 64.9744 90.0568 65.1243C89.7564 65.2957 89.7349 65.5528 90.0139 65.7241L111.39 78.042V78.0635Z" fill="#99BAFF"/>
<path d="M111.39 78.0633C114.824 77.3778 120.468 73.9288 121.627 71.9365C121.348 71.7651 121.069 71.6152 120.79 71.4652C119.61 73.4575 113.986 76.9065 110.553 77.592C110.832 77.742 111.111 77.9134 111.39 78.0633Z" fill="#99BAFF"/>
<path d="M111.626 113.003C115.06 112.318 120.468 108.933 121.627 106.962C121.348 106.812 121.069 106.641 120.79 106.491C119.61 108.483 114.223 111.868 110.789 112.532C111.068 112.703 111.347 112.853 111.626 113.003Z" fill="#6697FE"/>
<path d="M89.8194 100.429L111.625 113.004V78.0207L89.8194 65.4672V100.429Z" fill="#3375FE"/>
<path d="M100.078 120.544L110.208 114.482V79.5201L100.078 85.5827V120.544Z" fill="#6697FE"/>
<path d="M100.894 93.3374V103.256C103.276 102.656 108.126 99.7213 109.393 98.4146V88.496C108.126 89.8027 103.276 92.7376 100.894 93.3374Z" fill="#99BAFF"/>
<path d="M100.914 85.197L109.692 79.927L87.5648 67.3949V70.6297L100.914 85.197Z" fill="#6697FE"/>
<path d="M108.384 80.1628L80.7408 72.4935V97.8363L99.9922 85.347L106.796 82.0051L108.384 80.1628Z" fill="#3375FE"/>
<path d="M100.228 85.197C100.786 84.1687 106.581 80.4841 108.384 80.1627C104.07 77.6777 91.9654 70.9511 87.6301 68.4661C86.3853 69.1944 81.0842 72.2364 79.8394 72.9648C84.1532 75.4498 95.9144 82.712 100.228 85.2184V85.197Z" fill="#FEFAFD"/>
<path d="M109.156 80.0342L110.208 79.4129L88.8319 67.095C88.5529 66.9451 88.1022 66.9451 87.8232 67.095C87.5227 67.2664 87.5012 67.5235 87.7802 67.6948L109.156 80.0127V80.0342Z" fill="#99BAFF"/>
<path d="M99.9718 85.5397L101.023 84.9184L79.6473 72.6005C79.3683 72.4505 78.9176 72.4505 78.6386 72.6005C78.3381 72.7719 78.3167 73.029 78.5957 73.1789L99.9718 85.4968V85.5397Z" fill="#99BAFF"/>
<path d="M99.9706 85.5398C103.405 84.8543 109.049 81.4052 110.208 79.4129C109.929 79.263 109.65 79.0916 109.371 78.9417C108.191 80.9339 102.568 84.383 99.1336 85.0685C99.4126 85.2184 99.6916 85.3898 99.9706 85.5398Z" fill="#99BAFF"/>
<path d="M100.207 120.458C103.641 119.773 109.049 116.388 110.208 114.417C109.929 114.246 109.65 114.096 109.371 113.946C108.191 115.938 102.804 119.323 99.3697 119.987C99.6487 120.137 99.9277 120.308 100.207 120.458Z" fill="#6697FE"/>
<path d="M78.3795 107.905L100.206 120.458V85.4969L78.3795 72.9219V107.905Z" fill="#3375FE"/>
<path d="M88.639 128.021L98.769 121.958V86.9966L88.639 93.0591V128.021Z" fill="#99BAFF"/>
<path d="M89.4547 100.814V110.732C91.837 110.133 96.6874 107.198 97.9536 105.891V95.9724C96.6874 97.2792 91.837 100.214 89.4547 100.814Z" fill="#3375FE"/>
<path d="M89.4755 92.6734L98.2534 87.382L76.1476 74.8713V78.0847L89.4755 92.6734Z" fill="#3375FE"/>
<path d="M96.9673 87.6392L69.3028 79.97V105.313L88.5757 92.8234L95.3791 89.4815L96.9673 87.6392Z" fill="#6697FE"/>
<path d="M88.8117 92.6734C89.3698 91.6451 95.1645 87.9604 96.9673 87.6391C92.6534 85.1541 80.5489 78.4274 76.2136 75.921C74.9688 76.6494 69.6677 79.6914 68.4229 80.4197C72.7367 82.9047 84.4979 90.1669 88.8117 92.6734Z" fill="#F7FDFF"/>
<path d="M97.7174 87.4892L98.769 86.8894L77.3929 74.5715C77.1354 74.4215 76.6632 74.4215 76.3842 74.5929C76.0837 74.7643 76.0623 75.0213 76.3413 75.1713L97.7174 87.4892Z" fill="#99BAFF"/>
<path d="M88.5328 93.0163L89.5845 92.3951L68.2084 80.0772C67.9293 79.9272 67.4787 79.9272 67.1996 80.0772C66.8992 80.2486 66.8777 80.5056 67.1567 80.677L88.5328 92.9949V93.0163Z" fill="#99BAFF"/>
<path d="M88.5317 93.0162C91.9656 92.3307 97.6101 88.8817 98.769 86.8894C98.49 86.718 98.211 86.568 97.932 86.4181C96.7516 88.4104 91.1286 91.8594 87.6947 92.5449C87.9737 92.6949 88.2527 92.8662 88.5317 93.0162Z" fill="#99BAFF"/>
<path d="M88.7678 127.935C92.2017 127.249 97.6101 123.865 98.769 121.894C98.49 121.744 98.211 121.572 97.932 121.422C96.7516 123.415 91.3647 126.799 87.9307 127.463C88.2098 127.635 88.4888 127.785 88.7678 127.935Z" fill="#99BAFF"/>
<path d="M66.9617 115.36L88.7671 127.935V92.9735L66.9617 80.3986V115.36Z" fill="#6697FE"/>
<path d="M80.2898 132.905L87.5654 128.727V93.7446L80.2898 97.9434V132.905Z" fill="#0052FE"/>
<path d="M81.1267 99.3574V101.714C83.509 101.114 85.4835 100.043 86.7498 98.7575V96.3796C85.4835 97.6864 83.509 98.7575 81.1267 99.3574Z" fill="#3375FE"/>
<path d="M81.1267 105.698V115.617C83.509 115.017 85.4835 113.946 86.7498 112.661V102.721C85.4835 104.027 83.509 105.098 81.1267 105.698Z" fill="#3375FE"/>
<path d="M81.148 97.5578L87.05 94.1516L64.9228 81.6409V84.8542L81.148 97.5578Z" fill="#0052FE"/>
<path d="M85.7402 94.4087L60.9517 84.8542V110.197L80.2245 97.7291L84.152 96.251L85.7402 94.4087Z" fill="#3375FE"/>
<path d="M80.4606 97.5578C81.0186 96.5295 83.9589 94.7086 85.7402 94.4087C81.4264 91.9237 69.3218 85.197 64.9865 82.712C63.7417 83.4404 61.295 84.6186 60.0503 85.3256C64.3641 87.8106 76.1253 95.0728 80.4391 97.5792L80.4606 97.5578Z" fill="#FFFCFE"/>
<path d="M86.5138 94.2587L87.5654 93.6374L66.1893 81.3195C65.9318 81.1695 65.4596 81.1695 65.1806 81.3195C64.8801 81.4909 64.8587 81.748 65.1377 81.9193L86.5138 94.2372V94.2587Z" fill="#99BAFF"/>
<path d="M80.1818 97.9004L81.2334 97.2791L59.8573 84.9612C59.5997 84.8113 59.1276 84.8113 58.8486 84.9612C58.5481 85.1326 58.5266 85.3897 58.8056 85.5396L80.1818 97.8575V97.9004Z" fill="#99BAFF"/>
<path d="M80.1825 97.9006C83.6164 97.2151 86.385 95.6298 87.5654 93.6375C87.2864 93.4876 87.0074 93.3162 86.7284 93.1663C85.548 95.1585 82.8009 96.7438 79.3455 97.4293C79.6245 97.6007 79.9035 97.7507 80.1825 97.9006Z" fill="#99BAFF"/>
<path d="M80.4186 132.841C83.8525 132.155 86.385 130.655 87.5654 128.663C87.2864 128.492 87.0074 128.342 86.7284 128.192C85.548 130.184 83.037 131.684 79.5816 132.369C79.8606 132.519 80.1396 132.691 80.4186 132.841Z" fill="#0052FE"/>
<path d="M58.6136 120.266L80.4189 132.84V97.8576L58.6136 85.3041V120.266Z" fill="#3375FE"/>
<path d="M75.3398 144.979V92.665L36.0001 70V122.314L75.3398 144.979Z" fill="#99BAFF"/>
<path d="M62.1756 143.295L69.4512 139.096V104.135L62.1756 108.333V143.295Z" fill="#29C4FA"/>
<path d="M63.0335 107.948L68.9355 104.541L46.8297 92.0093V95.2441L63.0335 107.948Z" fill="#26C4FA"/>
<path d="M67.6484 104.799L42.8599 95.2441V120.587L62.1112 108.098L66.0388 106.619L67.6484 104.799Z" fill="#03BAF9"/>
<path d="M62.3473 107.948C62.9053 106.919 65.8456 105.098 67.627 104.799C63.3131 102.314 51.2086 95.5869 46.8732 93.0804C45.6284 93.8088 43.1818 94.987 41.937 95.694C46.2508 98.179 58.012 105.441 62.3259 107.948H62.3473Z" fill="#FBFDFE"/>
<path d="M68.3995 104.649L69.4512 104.027L48.0751 91.7094C47.8175 91.5595 47.3453 91.5595 47.0663 91.7308C46.7659 91.9022 46.7444 92.1593 47.0234 92.3092L68.3995 104.627V104.649Z" fill="#CCDCFF"/>
<path d="M62.0675 108.291L63.1191 107.669L41.743 95.3514C41.464 95.2014 41.0133 95.2014 40.7343 95.3514C40.4338 95.5227 40.4124 95.7798 40.6914 95.9512L62.0675 108.269V108.291Z" fill="#CCDCFF"/>
<path d="M62.0683 108.29C65.5022 107.605 68.2708 106.02 69.4512 104.027C69.1722 103.877 68.8932 103.706 68.6142 103.556C67.4337 105.548 64.6866 107.134 61.2312 107.819C61.5102 107.969 61.7893 108.14 62.0683 108.29Z" fill="#CCDCFF"/>
<path d="M62.3043 143.209C65.7382 142.523 68.2708 141.024 69.4512 139.032C69.1722 138.882 68.8932 138.71 68.6142 138.56C67.4337 140.553 64.9227 142.052 61.4673 142.738C61.7463 142.909 62.0253 143.059 62.3043 143.209Z" fill="#29C4FA"/>
<path d="M40.4993 130.634L62.3047 143.209V108.248L40.4993 95.6727V130.634Z" fill="#03BAF9"/>
<path d="M63.0127 116.367V131.962C65.395 131.362 67.3695 130.291 68.6357 129.006V113.41C67.3695 114.717 65.395 115.788 63.0127 116.388V116.367Z" fill="#CCDCFF"/>
<path d="M63.0127 135.947V140.038C65.395 139.439 67.3695 138.368 68.6357 137.061V132.948C67.3695 134.254 65.395 135.326 63.0127 135.925V135.947Z" fill="#CCDCFF"/>
<path d="M51.2087 147.429L58.4629 143.252V108.269L51.2087 112.468V147.429Z" fill="#6697FE"/>
<path d="M52.0242 113.881V116.238C54.4065 115.638 56.381 114.567 57.6472 113.26V110.882C56.381 112.189 54.4065 113.26 52.0242 113.86V113.881Z" fill="#3375FE"/>
<path d="M52.0242 120.223V130.141C54.4065 129.541 56.381 128.47 57.6472 127.185V117.266C56.381 118.573 54.4065 119.644 52.0242 120.244V120.223Z" fill="#3375FE"/>
<path d="M52.0453 112.082L57.9688 108.676L35.8415 96.1652V99.3785L52.0453 112.082Z" fill="#99BAFF"/>
<path d="M56.6602 108.933L31.8716 99.3785V124.721L51.1444 112.232L55.072 110.754L56.6602 108.933Z" fill="#3375FE"/>
<path d="M51.359 112.082C51.9171 111.054 54.8574 109.233 56.6602 108.933C52.3463 106.448 40.2417 99.7213 35.9064 97.2148C34.6616 97.9432 32.215 99.1214 30.9702 99.8284C35.284 102.313 47.0452 109.576 51.359 112.082Z" fill="#FAFCFD"/>
<path d="M57.4113 108.783L58.4629 108.162L37.0868 95.8438C36.8292 95.6939 36.3571 95.6939 36.0781 95.8652C35.7776 96.0366 35.7561 96.2937 36.0351 96.4436L57.4113 108.762V108.783Z" fill="#99BAFF"/>
<path d="M51.1007 112.425L52.1523 111.804L30.7762 99.4858C30.4972 99.3358 30.0465 99.3358 29.7675 99.4858C29.467 99.6571 29.4456 99.9142 29.7246 100.086L51.1007 112.404V112.425Z" fill="#99BAFF"/>
<path d="M51.1015 112.425C54.5354 111.739 57.304 110.154 58.4844 108.162C58.2054 108.012 57.9264 107.84 57.6474 107.69C56.467 109.683 53.7198 111.268 50.2644 111.953C50.5435 112.103 50.8225 112.275 51.1015 112.425Z" fill="#99BAFF"/>
<path d="M51.3375 147.365C54.7715 146.679 57.304 145.18 58.4844 143.187C58.2054 143.037 57.9264 142.866 57.6474 142.716C56.467 144.708 53.9559 146.208 50.5005 146.893C50.7795 147.043 51.0585 147.215 51.3375 147.365Z" fill="#6697FE"/>
<path d="M29.5111 134.79L51.3379 147.365V112.382L29.5111 99.8282V134.79Z" fill="#3375FE"/>
<path d="M44.7489 150.985L49.3418 147.858V112.896L44.7489 116.024V150.985Z" fill="#6697FE"/>
<path d="M45.5861 123.779V144.066C47.9684 143.466 47.2601 143.487 48.5264 142.181V121.894C47.2601 123.2 47.9684 123.179 45.5861 123.8V123.779Z" fill="#3375FE"/>
<path d="M45.6071 115.638L48.8264 113.303L26.6991 100.792L26.9138 106.512L45.6071 115.638Z" fill="#99BAFF"/>
<path d="M47.5166 113.56L25.4322 102.935V128.277L44.6836 115.788L45.9284 115.381L47.5166 113.56Z" fill="#3375FE"/>
<path d="M44.9197 115.638C45.4777 114.61 45.7353 113.882 47.5166 113.56C43.2027 111.075 31.0982 104.349 26.7629 101.864C25.5181 102.592 25.7756 102.678 24.5308 103.406C28.8447 105.891 40.6058 113.153 44.9197 115.66V115.638Z" fill="#FAFCFD"/>
<path d="M48.2689 113.41L49.3206 112.789L27.9444 100.471C27.6654 100.321 27.2147 100.321 26.9357 100.471C26.6353 100.642 26.6138 100.9 26.8928 101.071L48.2689 113.389V113.41Z" fill="#99BAFF"/>
<path d="M44.6407 115.981L45.6924 115.36L24.3163 103.042C24.0587 102.892 23.5866 102.892 23.3075 103.042C23.0071 103.213 22.9856 103.47 23.2646 103.642L44.6407 115.959V115.981Z" fill="#99BAFF"/>
<path d="M44.6416 115.981C48.0755 115.296 48.1614 114.781 49.3418 112.811C49.0628 112.661 48.7838 112.489 48.5048 112.339C47.3244 114.332 47.26 114.846 43.8261 115.51C44.1051 115.66 44.3841 115.831 44.6631 115.981H44.6416Z" fill="#99BAFF"/>
<path d="M44.8777 150.9C48.3116 150.214 48.1614 149.786 49.3418 147.793C49.0628 147.643 48.7838 147.472 48.5048 147.322C47.3244 149.314 47.4961 149.743 44.0407 150.428C44.3197 150.6 44.5987 150.75 44.8777 150.9Z" fill="#6697FE"/>
<path d="M23.0726 138.324L44.8779 150.899V115.938L23.0726 103.363V138.324Z" fill="#3375FE"/>
<path d="M39.9189 154.777L44.5117 151.671V116.709L39.9189 119.816V154.777Z" fill="#6697FE"/>
<path d="M40.756 127.57V147.858C43.1383 147.258 42.43 147.279 43.6963 145.972V125.685C42.43 126.992 43.1383 126.971 40.756 127.592V127.57Z" fill="#CCDCFF"/>
<path d="M40.7768 119.43L43.9961 117.116L21.8688 104.584L22.0834 110.325L40.7768 119.43Z" fill="#99BAFF"/>
<path d="M42.6885 117.352L20.6041 106.727V132.069L39.8555 119.58L41.1003 119.194L42.6885 117.352Z" fill="#3375FE"/>
<path d="M40.0916 119.43C40.6496 118.402 40.9071 117.673 42.6885 117.352C38.3746 114.867 26.2701 108.14 21.9348 105.634C20.69 106.362 20.9475 106.448 19.6812 107.176C23.9951 109.661 35.7563 116.945 40.0701 119.43H40.0916Z" fill="#FAFCFD"/>
<path d="M43.4386 117.202L44.4902 116.581L23.1141 104.263C22.8566 104.113 22.3844 104.113 22.1054 104.263C21.8049 104.434 21.7835 104.691 22.0625 104.863L43.4386 117.181V117.202Z" fill="#99BAFF"/>
<path d="M39.8116 119.773L40.8633 119.151L19.4872 106.834C19.2082 106.684 18.7575 106.684 18.4784 106.834C18.178 107.005 18.1565 107.262 18.4355 107.433L39.8116 119.751V119.773Z" fill="#99BAFF"/>
<path d="M39.8115 119.773C43.2454 119.087 43.3313 118.573 44.4902 116.602C44.2112 116.452 43.9322 116.281 43.6532 116.131C42.4728 118.123 42.4084 118.637 38.9745 119.302C39.2535 119.451 39.5325 119.623 39.8115 119.773Z" fill="#99BAFF"/>
<path d="M40.0476 154.691C43.4815 154.006 43.3313 153.577 44.4902 151.585C44.2112 151.435 43.9322 151.264 43.6532 151.114C42.4728 153.106 42.6445 153.534 39.1891 154.22C39.4681 154.391 39.7471 154.541 40.0261 154.691H40.0476Z" fill="#6697FE"/>
<path d="M18.2425 142.138L40.0479 154.691V119.73L18.2425 107.176V142.138Z" fill="#3375FE"/>
<path d="M33.3962 158.933L37.989 155.827V120.865L33.3962 123.972V158.933Z" fill="#6697FE"/>
<path d="M34.2335 131.726V152.013C36.6158 151.414 35.9076 151.435 37.1738 150.128V129.841C35.9076 131.148 36.6158 131.127 34.2335 131.748V131.726Z" fill="#3375FE"/>
<path d="M34.2563 123.586L37.4756 121.272L15.3483 108.74L15.5629 114.481L34.2563 123.586Z" fill="#99BAFF"/>
<path d="M36.166 121.508L14.0817 110.882V136.225L33.333 123.757L34.5778 123.35L36.166 121.508Z" fill="#3375FE"/>
<path d="M33.5691 123.586C34.1271 122.558 34.3847 121.829 36.166 121.508C31.8522 119.023 19.7476 112.296 15.4123 109.79C14.1675 110.518 14.425 110.604 13.1588 111.332C17.4726 113.817 29.2338 121.079 33.5477 123.586H33.5691Z" fill="#FAFCFD"/>
<path d="M36.9174 121.358L37.969 120.758L16.5929 108.44C16.3353 108.29 15.8632 108.29 15.5842 108.462C15.2837 108.633 15.2622 108.89 15.5412 109.04L36.9174 121.358Z" fill="#99BAFF"/>
<path d="M33.2902 123.929L34.3418 123.307L12.9657 110.99C12.6867 110.84 12.236 110.84 11.957 110.99C11.6565 111.161 11.635 111.418 11.914 111.568L33.2902 123.886V123.929Z" fill="#99BAFF"/>
<path d="M33.2903 123.929C36.7242 123.243 36.81 122.729 37.969 120.758C37.69 120.587 37.411 120.437 37.132 120.287C35.9516 122.279 35.8872 122.793 32.4318 123.457C32.7108 123.607 32.9898 123.779 33.2688 123.929H33.2903Z" fill="#99BAFF"/>
<path d="M33.5264 158.869C36.9603 158.183 36.81 157.755 37.969 155.762C37.69 155.612 37.411 155.441 37.132 155.291C35.9516 157.283 36.1233 157.712 32.6679 158.397C32.9469 158.547 33.2259 158.719 33.5049 158.869H33.5264Z" fill="#6697FE"/>
<path d="M11.72 146.294L33.5254 158.869V123.886L11.72 111.332V146.294Z" fill="#3375FE"/>
<path d="M24.1023 164.739L31.3779 160.561V125.6L24.1023 129.777V164.739Z" fill="#6697FE"/>
<path d="M24.9395 131.191V133.547C27.3217 132.948 29.3177 131.876 30.5625 130.591V128.213C29.2962 129.52 27.3217 130.591 24.9395 131.191Z" fill="#3375FE"/>
<path d="M24.9395 137.532V147.451C27.3217 146.851 29.3177 145.78 30.5625 144.494V134.576C29.2962 135.882 27.3217 136.954 24.9395 137.553V137.532Z" fill="#3375FE"/>
<path d="M24.9603 129.413L30.8623 125.985L8.73502 113.475V116.688L24.9603 129.413Z" fill="#99BAFF"/>
<path d="M29.5537 126.242L4.76513 116.688V142.052L24.038 129.563L27.9655 128.085L29.5537 126.242Z" fill="#3375FE"/>
<path d="M24.2741 129.413C24.8321 128.385 27.7724 126.564 29.5537 126.264C25.2399 123.779 13.1353 117.052 8.79998 114.546C7.55519 115.274 5.10853 116.452 3.86373 117.159C8.17759 119.644 19.9387 126.907 24.2526 129.413H24.2741Z" fill="#FAFCFD"/>
<path d="M30.3263 126.093L31.3779 125.471L10.0018 113.153C9.74427 113.003 9.2721 113.003 8.9931 113.175C8.69263 113.346 8.67118 113.603 8.95018 113.753L30.3263 126.071V126.093Z" fill="#99BAFF"/>
<path d="M23.9943 129.734L25.0459 129.113L3.66978 116.795C3.39077 116.645 2.94007 116.645 2.66106 116.795C2.36059 116.967 2.33912 117.224 2.61813 117.395L23.9943 129.713V129.734Z" fill="#99BAFF"/>
<path d="M23.995 129.734C27.4289 129.049 30.1975 127.464 31.3779 125.471C31.0989 125.321 30.8199 125.15 30.5409 125C29.3605 126.992 26.6134 128.578 23.158 129.263C23.437 129.413 23.716 129.584 23.995 129.734Z" fill="#99BAFF"/>
<path d="M24.2311 164.674C27.665 163.989 30.1975 162.489 31.3779 160.497C31.0989 160.347 30.8199 160.176 30.5409 160.026C29.3605 162.018 26.8495 163.518 23.3941 164.203C23.6731 164.374 23.9521 164.524 24.2311 164.674Z" fill="#6697FE"/>
<path d="M2.42511 152.099L24.2305 164.674V129.691L2.42511 117.138V152.099Z" fill="#3375FE"/>
<path d="M14.5086 169.152L21.7842 164.974V129.992L14.5086 134.19V169.152Z" fill="#99BAFF"/>
<path d="M15.3451 133.805L21.2686 130.399L-0.85873 117.888V121.101L15.3451 133.805Z" fill="#CCDCFF"/>
<path d="M19.96 130.656L-4.8286 121.101V146.444L14.4442 133.955L18.3718 132.477L19.96 130.656Z" fill="#CCDCFF"/>
<path d="M14.6803 133.805C15.2383 132.776 18.1786 130.955 19.96 130.656C15.6461 128.171 3.54156 121.444 -0.793758 118.938C-2.03855 119.666 -4.48522 120.844 -5.73002 121.551C-1.41616 124.036 10.345 131.298 14.6589 133.805H14.6803Z" fill="#FBFDFE"/>
<path d="M20.7111 130.506L21.7627 129.884L0.38657 117.566C0.107565 117.416 -0.343122 117.416 -0.622128 117.566C-0.922596 117.738 -0.944067 117.995 -0.66506 118.145L20.7111 130.463V130.506Z" fill="#CCDCFF"/>
<path d="M14.4015 134.147L15.4531 133.526L-5.92299 121.208C-6.18053 121.058 -6.6527 121.058 -6.93171 121.23C-7.23217 121.401 -7.25363 121.658 -6.97462 121.808L14.4015 134.126V134.147Z" fill="#CCDCFF"/>
<path d="M14.4013 134.147C17.8352 133.462 20.6038 131.877 21.7842 129.884C21.5052 129.734 21.2262 129.563 20.9472 129.413C19.7667 131.405 17.0196 132.991 13.5642 133.676C13.8432 133.826 14.1223 133.997 14.4013 134.147Z" fill="#CCDCFF"/>
<path d="M14.6373 169.066C18.0713 168.381 20.6038 166.881 21.7842 164.889C21.5052 164.739 21.2262 164.567 20.9472 164.417C19.7667 166.41 17.2557 167.909 13.8003 168.595C14.0793 168.745 14.3583 168.916 14.6373 169.066Z" fill="#29C4FA"/>
<path d="M-7.16864 156.512L14.6367 169.066V134.104L-7.16864 121.551V156.512Z" fill="#99BAFF"/>
<path d="M15.3242 142.245V157.841C17.7065 157.241 19.681 156.17 20.9473 154.884V139.289C19.681 140.596 17.7065 141.667 15.3242 142.267V142.245Z" fill="#CCDCFF"/>
<path d="M15.3242 161.804V165.895C17.7065 165.296 19.681 164.225 20.9473 162.939V158.826C19.681 160.133 17.7065 161.183 15.3242 161.804Z" fill="#CCDCFF"/>
<path d="M4.7433 125.214L148.002 42.8448L108.662 20.1798L0.729904 82.3049L4.7433 125.214Z" fill="#3375FE"/>
<path d="M4.74332 131.341L148.002 48.8431V42.7377L4.74332 125.214V131.341Z" fill="#6697FE"/>
<path d="M130.575 48.8004L137.851 44.623V9.64014L130.575 13.8389V48.8004Z" fill="#99BAFF"/>
<path d="M131.411 13.4533L137.335 10.0471L115.208 -2.46362V0.749744L131.411 13.4533Z" fill="#99BAFF"/>
<path d="M136.026 10.3042L111.238 0.749756V26.0925L130.511 13.6032L134.438 12.1251L136.026 10.3042Z" fill="#99BAFF"/>
<path d="M130.747 13.4532C131.305 12.425 134.245 10.6041 136.026 10.3041C131.713 7.81914 119.608 1.07106 115.294 -1.41394C114.049 -0.685577 111.603 0.492658 110.358 1.1996C114.672 3.6846 126.433 10.9468 130.747 13.4532Z" fill="#FBFDFE"/>
<path d="M136.778 10.1542L137.83 9.53292L116.454 -2.78499C116.196 -2.93495 115.724 -2.93495 115.445 -2.78499C115.145 -2.61361 115.123 -2.35654 115.402 -2.18516L136.778 10.1542Z" fill="#99BAFF"/>
<path d="M130.467 13.7959L131.519 13.1746L110.142 0.856731C109.863 0.706773 109.413 0.706773 109.134 0.856731C108.833 1.02811 108.812 1.28518 109.091 1.43514L130.467 13.7959Z" fill="#99BAFF"/>
<path d="M130.468 13.796C133.902 13.1105 136.67 11.5252 137.851 9.53294C137.572 9.38298 137.293 9.2116 137.014 9.06165C135.833 11.0539 133.086 12.6392 129.631 13.3247C129.91 13.4747 130.189 13.646 130.468 13.796Z" fill="#99BAFF"/>
<path d="M130.704 48.736C134.138 48.0504 136.67 46.5509 137.851 44.5586C137.572 44.3872 137.293 44.2372 137.014 44.0873C135.833 46.0796 133.322 47.5791 129.867 48.2647C130.146 48.4146 130.425 48.586 130.704 48.736Z" fill="#99BAFF"/>
<path d="M108.898 36.1609L130.703 48.7359V13.753L108.898 1.19946V36.1609Z" fill="#99BAFF"/>
<path d="M131.39 16.4096V18.7661C133.772 18.1662 135.746 17.0951 137.013 15.7884V13.4319C135.746 14.7387 133.772 15.7884 131.39 16.4096Z" fill="#6697FE"/>
<path d="M131.39 22.7505V32.6691C133.772 32.0693 135.746 30.9982 137.013 29.6914V19.7728C135.746 21.0796 133.772 22.1507 131.39 22.7505Z" fill="#6697FE"/>
<path d="M131.39 35.1329V37.4893C133.772 36.8895 135.746 35.8184 137.013 34.533V32.1552C135.746 33.4619 133.772 34.533 131.39 35.1329Z" fill="#6697FE"/>
<path d="M131.39 41.4738V45.5655C133.772 44.9657 135.746 43.8946 137.013 42.6092V38.4961C135.746 39.8029 133.772 40.874 131.39 41.4738Z" fill="#6697FE"/>
<path d="M120.251 55.7198L130.403 49.6572V14.6958L120.251 20.7584V55.7198Z" fill="#7ADBFC"/>
<path d="M121.088 22.1721V24.5286C123.47 23.9287 128.321 20.9939 129.587 19.6871V17.3092C128.321 18.616 123.47 21.5508 121.088 22.1507V22.1721Z" fill="#AFE9FD"/>
<path d="M121.088 28.513V38.4316C123.47 37.8318 128.321 34.8969 129.587 33.5902V23.6501C128.321 24.9569 123.47 27.8918 121.088 28.4916V28.513Z" fill="#AFE9FD"/>
<path d="M121.111 20.3727L129.889 15.1028L107.761 2.59204V5.80541L121.111 20.3727Z" fill="#79DAFC"/>
<path d="M128.579 15.3598L100.936 7.66919V33.0334L120.187 20.5441L126.991 17.1808L128.579 15.3598Z" fill="#CCDCFF"/>
<path d="M120.423 20.3727C120.981 19.3444 126.776 15.6597 128.579 15.3384C124.265 12.8534 112.16 6.12673 107.825 3.64172C106.58 4.37009 101.279 7.41207 100.034 8.14044C104.348 10.6254 116.109 17.8877 120.423 20.3941V20.3727Z" fill="#FAFEFF"/>
<path d="M129.33 15.2098L130.382 14.5886L109.005 2.27067C108.748 2.12071 108.276 2.12071 107.997 2.27067C107.696 2.44205 107.675 2.69912 107.954 2.8705L129.33 15.2098Z" fill="#9EE4FD"/>
<path d="M120.144 20.7153L121.196 20.0941L99.8199 7.77616C99.5409 7.62621 99.0902 7.62621 98.8112 7.77616C98.5107 7.94754 98.4893 8.20461 98.7683 8.35457L120.144 20.6725V20.7153Z" fill="#9EE4FD"/>
<path d="M120.144 20.7154C123.578 20.0299 129.223 16.5809 130.382 14.5886C130.103 14.4386 129.824 14.2673 129.545 14.1173C128.364 16.1096 122.741 19.5586 119.307 20.2441C119.586 20.3941 119.865 20.5655 120.144 20.7154Z" fill="#9EE4FD"/>
<path d="M120.38 55.6554C123.814 54.9698 129.223 51.5851 130.382 49.6142C130.103 49.4429 129.824 49.2929 129.545 49.1429C128.364 51.1352 122.977 54.52 119.543 55.1841C119.822 55.334 120.101 55.5054 120.38 55.6554Z" fill="#7ADBFC"/>
<path d="M98.5735 43.0803L120.379 55.6553V20.6725L98.5735 8.1189V43.0803Z" fill="#CCDCFF"/>
<path d="M111.323 60.6684L118.599 56.4696V21.5082L111.323 25.6856V60.6684Z" fill="#6697FE"/>
<path d="M112.138 27.1209V29.4774C114.521 28.8775 116.495 27.8064 117.761 26.5211V24.1432C116.495 25.45 114.521 26.5211 112.138 27.1209Z" fill="#3375FE"/>
<path d="M112.138 33.4404V43.359C114.521 42.7591 116.495 41.688 117.761 40.3812V30.4626C116.495 31.7694 114.521 32.8405 112.138 33.4404Z" fill="#3375FE"/>
<path d="M112.16 25.3214L118.083 21.9152L95.956 9.38306V12.6178L112.16 25.3214Z" fill="#99BAFF"/>
<path d="M116.774 22.1508L91.9858 12.6178V37.9606L111.259 25.4713L115.186 23.9931L116.774 22.1508Z" fill="#3375FE"/>
<path d="M111.495 25.3213C112.053 24.2931 114.993 22.4722 116.796 22.1722C112.482 19.6872 100.377 12.9606 96.0422 10.4756C94.7974 11.2039 92.3507 12.3822 91.1059 13.0891C95.4198 15.5741 107.181 22.8363 111.495 25.3428V25.3213Z" fill="#FAFCFD"/>
<path d="M117.526 22.0223L118.578 21.4011L97.2018 9.08317C96.9228 8.93321 96.4721 8.93321 96.193 9.08317C95.8926 9.25455 95.8711 9.51162 96.1501 9.683L117.526 22.0009V22.0223Z" fill="#99BAFF"/>
<path d="M111.216 25.6639L112.268 25.0427L90.8915 12.7248C90.6125 12.5748 90.1618 12.5748 89.8827 12.7248C89.5823 12.8962 89.5608 13.1532 89.8398 13.3032L111.216 25.6211V25.6639Z" fill="#99BAFF"/>
<path d="M111.216 25.6642C114.65 24.9787 117.418 23.3934 118.599 21.4011C118.32 21.2511 118.041 21.0798 117.762 20.9298C116.581 22.9221 113.834 24.5074 110.379 25.1929C110.658 25.3428 110.937 25.5142 111.216 25.6642Z" fill="#99BAFF"/>
<path d="M111.452 60.5826C114.886 59.8971 117.418 58.3975 118.599 56.4053C118.32 56.2553 118.041 56.0839 117.762 55.934C116.581 57.9262 114.07 59.4258 110.615 60.1113C110.894 60.2613 111.173 60.4327 111.452 60.5826Z" fill="#6697FE"/>
<path d="M89.6468 48.0076L111.452 60.5826V25.6211L89.6468 13.0461V48.0076Z" fill="#3375FE"/>
<path d="M102.095 65.2526L109.37 61.0538V26.0924L102.095 30.2912V65.2526Z" fill="#29C4FA"/>
<path d="M102.932 32.6049V61.9965C105.314 61.3967 107.289 60.3256 108.555 59.0402V29.6272C107.289 30.934 105.314 32.0051 102.932 32.6049Z" fill="#CCDCFF"/>
<path d="M102.952 29.9055L108.854 26.4994L86.7272 13.9886V17.202L102.952 29.9055Z" fill="#26C4FA"/>
<path d="M107.546 26.7564L82.7571 17.202V42.5448L102.03 30.0555L105.957 28.5773L107.546 26.7564Z" fill="#03BAF9"/>
<path d="M102.266 29.9055C102.824 28.8772 105.765 27.0563 107.567 26.735C103.254 24.25 91.149 17.5233 86.8137 15.0383C85.5689 15.7667 83.1222 16.9449 81.8774 17.6519C86.1913 20.1369 97.9524 27.4205 102.266 29.9055Z" fill="#FBFDFE"/>
<path d="M108.298 26.6066L109.35 25.9853L87.9735 13.6674C87.6945 13.5175 87.2438 13.5175 86.9648 13.6888C86.6643 13.8602 86.6428 14.1173 86.9219 14.2672L108.298 26.5852V26.6066Z" fill="#CCDCFF"/>
<path d="M101.987 30.2484L103.038 29.6272L81.6622 17.3092C81.3832 17.1593 80.9325 17.1593 80.6535 17.3092C80.353 17.4806 80.3316 17.7377 80.6106 17.9091L101.987 30.227V30.2484Z" fill="#CCDCFF"/>
<path d="M101.987 30.2483C105.421 29.5628 108.19 27.9775 109.37 25.9852L108.533 25.5139C107.353 27.5062 104.606 29.0915 101.15 29.777C101.429 29.9269 101.708 30.0983 101.987 30.2483Z" fill="#CCDCFF"/>
<path d="M102.224 65.1669C105.657 64.4813 108.19 62.9818 109.37 60.9895C109.091 60.8395 108.812 60.6681 108.533 60.5182C107.353 62.5105 104.842 64.01 101.387 64.6956C101.666 64.8669 101.945 65.0169 102.224 65.1669Z" fill="#29C4FA"/>
<path d="M80.4173 52.6133L102.223 65.1669V30.2054L80.4173 17.6519V52.6133Z" fill="#03BAF9"/>
<path d="M93.4678 70.6082L100.743 66.4094V31.448L93.4678 35.6254V70.6082Z" fill="#6697FE"/>
<path d="M94.3045 37.0392V39.3956C96.6867 38.7958 98.6612 37.7247 99.9275 36.4179V34.04C98.6612 35.3468 96.6867 36.4179 94.3045 37.0178V37.0392Z" fill="#3375FE"/>
<path d="M94.3045 43.3804V53.299C96.6867 52.6992 98.6612 51.6281 99.9275 50.3213V40.4027C98.6612 41.7095 96.6867 42.7806 94.3045 43.3804Z" fill="#3375FE"/>
<path d="M94.3257 35.2612L100.228 31.855L78.1005 19.3229V22.5577L94.3257 35.2612Z" fill="#99BAFF"/>
<path d="M98.918 32.0906L74.1294 22.5576V47.9004L93.4022 35.4111L97.3298 33.9329L98.918 32.0906Z" fill="#3375FE"/>
<path d="M93.6391 35.2611C94.1971 34.2328 97.1374 32.4119 98.9402 32.112C94.6263 29.627 82.5218 22.9003 78.1865 20.3939C76.9417 21.1223 74.495 22.3005 73.2502 23.0075C77.5641 25.4925 89.3252 32.7547 93.6391 35.2611Z" fill="#FAFCFD"/>
<path d="M99.6915 31.9622L100.743 31.3409L79.367 19.023C79.088 18.8731 78.6373 18.8731 78.3583 19.0444C78.0579 19.2158 78.0364 19.4729 78.3154 19.6228L99.6915 31.9407V31.9622Z" fill="#99BAFF"/>
<path d="M93.3593 35.604L94.4109 34.9827L73.0348 22.6648C72.7558 22.5149 72.3051 22.5149 72.0261 22.6648C71.7256 22.8362 71.7041 23.0933 71.9831 23.2647L93.3593 35.5826V35.604Z" fill="#99BAFF"/>
<path d="M93.3605 35.6039C96.7944 34.9184 99.563 33.3331 100.743 31.3408C100.464 31.1908 100.185 31.0195 99.9064 30.8695C98.726 32.8618 95.9789 34.4471 92.5235 35.1326C92.8025 35.2825 93.0815 35.4539 93.3605 35.6039Z" fill="#99BAFF"/>
<path d="M93.5966 70.5224C97.0305 69.8369 99.563 68.3374 100.743 66.3451C100.464 66.1951 100.185 66.0237 99.9064 65.8738C98.726 67.8661 96.2149 69.3656 92.7596 70.0512C93.0386 70.2011 93.3176 70.3725 93.5966 70.5224Z" fill="#6697FE"/>
<path d="M71.7913 57.9476L93.5967 70.5226V35.5612L71.7913 22.9862V57.9476Z" fill="#3375FE"/>
<path d="M87.9953 73.886L92.5881 70.7797V35.7969L87.9953 38.9246V73.886Z" fill="#29C4FA"/>
<path d="M88.8322 40.3384V42.6949C91.2144 42.0951 90.5062 42.1165 91.7725 40.8097V38.4532C90.5062 39.76 91.2144 39.7386 88.8322 40.3598V40.3384Z" fill="#3375FE"/>
<path d="M88.8322 46.6793V56.5979C91.2144 55.9981 90.5062 56.0195 91.7725 54.7127V44.7727C90.5062 46.0795 91.2144 46.0581 88.8322 46.6793Z" fill="#3375FE"/>
<path d="M88.8539 38.5389L92.0732 36.2038L69.946 23.6931L70.1606 29.4129L88.8539 38.5389Z" fill="#26C4FA"/>
<path d="M90.7637 36.4609L68.6793 25.8353V51.1781L87.9307 38.6888L89.1755 38.3032L90.7637 36.4609Z" fill="#03BAF9"/>
<path d="M88.1668 38.5388C88.7248 37.5105 88.9823 36.7822 90.7637 36.4608C86.4498 33.9758 74.3453 27.2492 70.0099 24.7642C68.7652 25.4925 69.0227 25.5782 67.7564 26.3066C72.0703 28.7916 83.8315 36.0538 88.1453 38.5602L88.1668 38.5388Z" fill="#FBFDFE"/>
<path d="M91.5148 36.3109L92.5664 35.6897L71.1903 23.3717C70.9327 23.2218 70.4606 23.2218 70.1816 23.3717C69.8811 23.5431 69.8596 23.8002 70.1386 23.9716L91.5148 36.2895V36.3109Z" fill="#CCDCFF"/>
<path d="M87.8878 38.8815L88.9395 38.2602L67.5633 25.9423C67.2843 25.7923 66.8336 25.7923 66.5546 25.9423C66.2541 26.1137 66.2327 26.3708 66.5117 26.5421L87.8878 38.86V38.8815Z" fill="#CCDCFF"/>
<path d="M87.8877 38.8817C91.3216 38.1962 91.4075 37.682 92.5664 35.7112C92.2874 35.5612 92.0084 35.3898 91.7294 35.2399C90.549 37.2322 90.4846 37.7463 87.0507 38.4104C87.3297 38.5603 87.6087 38.7317 87.8877 38.8817Z" fill="#CCDCFF"/>
<path d="M88.1238 73.8002C91.5577 73.1147 91.4075 72.6862 92.5664 70.694C92.2874 70.5226 92.0084 70.3726 91.7294 70.2227C90.549 72.2149 90.7207 72.6434 87.2653 73.3289C87.5443 73.5003 87.8233 73.6503 88.1023 73.8002H88.1238Z" fill="#29C4FA"/>
<path d="M66.3187 61.2251L88.124 73.8001V38.8386L66.3187 26.2637V61.2251Z" fill="#03BAF9"/>
<path d="M79.0024 79.1561L86.2566 74.9573V39.9958L79.0024 44.1946V79.1561Z" fill="#6697FE"/>
<path d="M79.8174 45.6085V47.9649C82.1997 47.3651 84.1742 46.294 85.4404 45.0086V42.6307C84.1742 43.9375 82.1997 45.0086 79.8174 45.6085Z" fill="#CCDCFF"/>
<path d="M79.8174 51.9494V61.868C82.1997 61.2682 84.1742 60.197 85.4404 58.9117V48.9717C84.1742 50.2784 82.1997 51.3496 79.8174 51.9494Z" fill="#CCDCFF"/>
<path d="M79.838 43.809L85.7615 40.4028L63.6342 27.8921V31.1055L79.838 43.809Z" fill="#6697FE"/>
<path d="M84.4531 40.6599L59.6645 31.1055V56.4482L78.9159 43.9589L82.8649 42.4808L84.4531 40.6599Z" fill="#3375FE"/>
<path d="M79.1525 43.809C79.7105 42.7807 82.6508 40.9598 84.4321 40.6384C80.1183 38.1534 68.0137 31.4268 63.6784 28.9418C62.4336 29.6701 59.9869 30.8484 58.7421 31.5553C63.056 34.0403 74.8172 41.3239 79.131 43.809H79.1525Z" fill="#FAFCFD"/>
<path d="M85.205 40.5099L86.2566 39.8886L64.8805 27.5707C64.6229 27.4208 64.1508 27.4208 63.8718 27.5707C63.5713 27.7421 63.5498 27.9992 63.8288 28.1705L85.205 40.4885V40.5099Z" fill="#0052FE"/>
<path d="M78.8944 44.1516L79.946 43.5304L58.5699 31.2124C58.2909 31.0625 57.8402 31.0625 57.5612 31.2124C57.2607 31.3838 57.2393 31.6409 57.5183 31.8123L78.8944 44.1302V44.1516Z" fill="#0052FE"/>
<path d="M78.8939 44.1517C82.3279 43.4662 85.0964 41.8809 86.2769 39.8887C85.9978 39.7387 85.7188 39.5673 85.4398 39.4174C84.2594 41.4096 81.5123 42.9949 78.0569 43.6804L78.8939 44.1517Z" fill="#0052FE"/>
<path d="M79.13 79.0703C82.5639 78.3848 85.0964 76.8852 86.2769 74.8929C85.9978 74.743 85.7188 74.5716 85.4398 74.4216C84.2594 76.4139 81.7484 77.9135 78.293 78.599C78.572 78.7704 78.851 78.9203 79.13 79.0703Z" fill="#6697FE"/>
<path d="M57.3036 66.5167L79.1304 79.0702V44.1088L57.3036 31.5338V66.5167Z" fill="#3375FE"/>
<path d="M74.6448 84.5115V32.2193L35.305 9.55432V61.8465L74.6448 84.5115Z" fill="#99BAFF"/>
<path d="M74.6454 140.103L78.9592 137.618V29.5629L74.6454 32.0479V140.103Z" fill="#6697FE"/>
<path d="M62.6485 85.9682L69.9241 81.7908V46.808L62.6485 51.0068V85.9682Z" fill="#29C4FA"/>
<path d="M63.5064 50.6211L69.4084 47.2149L47.3026 34.7042V37.9176L63.5064 50.6211Z" fill="#26C4FA"/>
<path d="M68.1221 47.472L43.3335 37.9176V63.2604L62.5849 50.7711L66.5124 49.2929L68.1221 47.472Z" fill="#03BAF9"/>
<path d="M62.821 50.6211C63.379 49.5928 66.3193 47.7719 68.1221 47.472C63.8082 44.987 51.7037 38.2603 47.3683 35.7539C46.1235 36.4823 43.6769 37.6605 42.4321 38.3674C46.7459 40.8524 58.5071 48.1147 62.821 50.6211Z" fill="#FBFDFE"/>
<path d="M68.8722 47.3222L69.9238 46.7009L48.5477 34.383C48.2687 34.233 47.818 34.233 47.539 34.4044C47.2385 34.5758 47.2171 34.8329 47.4961 34.9828L68.8722 47.3007V47.3222Z" fill="#CCDCFF"/>
<path d="M62.5409 50.964L63.5925 50.3642L42.2164 38.0463C41.9374 37.8963 41.4867 37.8963 41.2077 38.0463C40.9072 38.2177 40.8858 38.4748 41.1648 38.6461L62.5409 50.964Z" fill="#CCDCFF"/>
<path d="M62.5412 50.9639C65.9751 50.2784 68.7437 48.6931 69.9241 46.7223C69.6451 46.5509 69.3661 46.4009 69.087 46.251C67.9066 48.2433 65.1595 49.8285 61.7041 50.514C61.9831 50.664 62.2621 50.8354 62.5412 50.9853V50.9639Z" fill="#CCDCFF"/>
<path d="M62.7772 85.8824C66.2111 85.1969 68.7437 83.6973 69.9241 81.7051C69.6451 81.5551 69.3661 81.3837 69.087 81.2338C67.9066 83.2261 65.3956 84.7256 61.9402 85.4111C62.2192 85.5825 62.4982 85.7325 62.7772 85.8824Z" fill="#29C4FA"/>
<path d="M40.972 73.3289L62.7773 85.8824V50.921L40.972 38.3674V73.3289Z" fill="#03BAF9"/>
<path d="M63.4863 53.5776V55.934C65.8686 55.3342 67.8431 54.2631 69.1094 52.9777V50.5999C67.8431 51.9066 65.8686 52.9777 63.4863 53.5776Z" fill="#6697FE"/>
<path d="M63.4863 59.9186V69.8372C65.8686 69.2373 67.8431 68.1662 69.1094 66.8809V56.9623C67.8431 58.269 65.8686 59.3187 63.4863 59.94V59.9186Z" fill="#6697FE"/>
<path d="M63.4863 72.3007V74.6572C65.8686 74.0574 67.8431 72.9862 69.1094 71.7009V69.323C67.8431 70.6298 65.8686 71.7009 63.4863 72.3007Z" fill="#6697FE"/>
<path d="M63.4863 78.6203V82.712C65.8686 82.1122 67.8431 81.041 69.1094 79.7343V75.6426C67.8431 76.9493 65.8686 78.0205 63.4863 78.6203Z" fill="#6697FE"/>
<path d="M54.4934 91.281L61.769 87.0822V52.1207L54.4934 56.3195V91.281Z" fill="#6697FE"/>
<path d="M55.3313 57.7334V60.0899C57.7136 59.49 59.6881 58.4189 60.9543 57.1121V54.7343C59.6881 56.041 57.7136 57.1121 55.3313 57.712V57.7334Z" fill="#3375FE"/>
<path d="M55.3313 64.0743V73.9929C57.7136 73.393 59.6881 72.3219 60.9543 71.0152V61.0966C59.6881 62.4033 57.7136 63.4744 55.3313 64.0743Z" fill="#3375FE"/>
<path d="M55.3514 55.9339L61.2534 52.5277L39.1261 39.9956V43.2304L55.3514 55.9339Z" fill="#99BAFF"/>
<path d="M59.967 52.7633L35.1785 43.2303V68.5731L54.4299 56.0838L58.3574 54.6057L59.967 52.7633Z" fill="#3375FE"/>
<path d="M54.6659 55.9338C55.2239 54.9056 58.1642 53.0846 59.9456 52.7847C55.6317 50.2997 43.5271 43.5731 39.1918 41.0667C37.947 41.795 35.5004 42.9732 34.2556 43.6802C38.5694 46.1652 50.3306 53.4274 54.6444 55.9338H54.6659Z" fill="#FAFCFD"/>
<path d="M60.7172 52.6349L61.7688 52.0136L40.3927 39.6957C40.1137 39.5458 39.663 39.5458 39.384 39.7172C39.0835 39.8885 39.062 40.1456 39.3411 40.2956L60.7172 52.6135V52.6349Z" fill="#99BAFF"/>
<path d="M54.3861 56.2767L55.4377 55.6555L34.0616 43.3376C33.7826 43.1876 33.3319 43.1876 33.0529 43.3376C32.7524 43.5089 32.731 43.766 33.01 43.9374L54.3861 56.2553V56.2767Z" fill="#99BAFF"/>
<path d="M54.3861 56.2766C57.82 55.5911 60.5886 54.0058 61.769 52.0135C61.49 51.8636 61.211 51.6922 60.932 51.5422C59.7516 53.5345 57.0045 55.1198 53.5491 55.8053C53.8281 55.9553 54.1071 56.1266 54.3861 56.2766Z" fill="#99BAFF"/>
<path d="M54.6222 91.1952C58.0561 90.5097 60.5886 89.0101 61.769 87.0178C61.49 86.8678 61.211 86.6965 60.932 86.5465C59.7516 88.5388 57.2406 90.0384 53.7852 90.7239C54.0642 90.8738 54.3432 91.0452 54.6222 91.1952Z" fill="#6697FE"/>
<path d="M32.8172 78.6204L54.6226 91.1954V56.2339L32.8172 43.6589V78.6204Z" fill="#3375FE"/>
<path d="M42.1524 98.0076L52.2825 91.9451V56.9836L42.1524 63.0462V98.0076Z" fill="#6697FE"/>
<path d="M42.9893 64.46V66.8165C45.3716 66.2166 50.222 63.2818 51.4883 61.975V59.6185C50.222 60.9253 45.3716 63.8602 42.9893 64.46Z" fill="#0052FE"/>
<path d="M42.9893 70.8011V80.7197C45.3716 80.1198 50.222 77.185 51.4883 75.8782V65.9596C50.222 67.2664 45.3716 70.2012 42.9893 70.8011Z" fill="#0052FE"/>
<path d="M43.0111 62.6606L51.7891 57.3907L29.6618 44.8585V48.0933L43.0111 62.6606Z" fill="#6697FE"/>
<path d="M50.4795 57.6263L22.815 49.957V75.2998L42.0879 62.8105L48.8913 59.4686L50.4795 57.6263Z" fill="#3375FE"/>
<path d="M42.3239 62.6606C42.882 61.6323 48.6767 57.9476 50.4795 57.6263C46.1656 55.1413 34.0611 48.4146 29.7258 45.9082C28.481 46.6366 23.1799 49.6786 21.9351 50.4069C26.2489 52.8919 38.0101 60.1541 42.3239 62.6606Z" fill="#FEFAFD"/>
<path d="M51.2306 57.4977L52.2822 56.8764L30.9061 44.5585C30.6271 44.4086 30.1764 44.4086 29.8974 44.5585C29.5969 44.7299 29.5755 44.987 29.8545 45.1583L51.2306 57.4763V57.4977Z" fill="#0052FE"/>
<path d="M42.045 63.0033L43.0967 62.3821L21.7206 50.0641C21.4415 49.9142 20.9909 49.9142 20.7118 50.0856C20.4114 50.2569 20.3899 50.514 20.6689 50.664L42.045 62.9819V63.0033Z" fill="#0052FE"/>
<path d="M42.0451 63.0034C45.479 62.3179 51.1235 58.8689 52.2825 56.8766C52.0035 56.7266 51.7245 56.5552 51.4455 56.4053C50.265 58.3976 44.642 61.8466 41.2081 62.5321C41.4871 62.6821 41.7661 62.8534 42.0451 63.0034Z" fill="#0052FE"/>
<path d="M42.2812 97.9219C45.7151 97.2363 51.1235 93.8516 52.2825 91.8807C52.0035 91.7093 51.7245 91.5594 51.4455 91.4094C50.265 93.4017 44.8781 96.7865 41.4442 97.4506C41.7232 97.6005 42.0022 97.7719 42.2812 97.9219Z" fill="#6697FE"/>
<path d="M20.4749 85.3682L42.2803 97.9218V62.9604L20.4749 50.3854V85.3682Z" fill="#3375FE"/>
<path d="M34.1902 102.421L41.4443 98.2434V63.2605L34.1902 67.4593V102.421Z" fill="#29C4FA"/>
<path d="M35.0049 69.7728V99.1644C37.3872 98.5645 39.3617 97.4934 40.6279 96.2081V66.795C39.3617 68.1018 37.3872 69.1729 35.0049 69.7728Z" fill="#CCDCFF"/>
<path d="M35.0264 67.0737L40.9285 63.6676L18.8226 51.1569V54.3702L35.0264 67.0737Z" fill="#26C4FA"/>
<path d="M39.6416 63.9247L14.853 54.3702V79.713L34.1044 67.2237L38.0534 65.7456L39.6416 63.9247Z" fill="#03BAF9"/>
<path d="M34.3395 67.0737C34.8975 66.0454 37.8378 64.2245 39.6191 63.9246C35.3053 61.4396 23.2007 54.713 18.8654 52.2065C17.6206 52.9349 15.174 54.1131 13.9292 54.8201C18.243 57.3051 30.0042 64.5673 34.318 67.0737H34.3395Z" fill="#FBFDFE"/>
<path d="M40.3927 63.7747L41.4443 63.1534L20.0682 50.8355C19.7892 50.6855 19.3385 50.6855 19.0595 50.8355C18.759 51.0069 18.7376 51.2639 19.0166 51.4139L40.3927 63.7318V63.7747Z" fill="#CCDCFF"/>
<path d="M34.0597 67.4164L35.1113 66.7951L13.7352 54.4772C13.4777 54.3273 13.0055 54.3273 12.7265 54.4987C12.426 54.67 12.4046 54.9271 12.6836 55.0771L34.0597 67.395V67.4164Z" fill="#CCDCFF"/>
<path d="M34.0614 67.4165C37.4953 66.731 40.2639 65.1457 41.4443 63.1534C41.1653 63.0035 40.8863 62.8321 40.6073 62.6821C39.4269 64.6744 36.6798 66.2597 33.2244 66.9452C33.5034 67.0952 33.7824 67.2665 34.0614 67.4165Z" fill="#CCDCFF"/>
<path d="M34.2975 102.335C37.7314 101.649 40.2639 100.15 41.4443 98.1576C41.1653 98.0076 40.8863 97.8362 40.6073 97.6863C39.4269 99.6786 36.9159 101.178 33.4605 101.864C33.7395 102.014 34.0185 102.185 34.2975 102.335Z" fill="#29C4FA"/>
<path d="M12.4915 89.7814L34.2969 102.335V67.3736L12.4915 54.7986V89.7814Z" fill="#03BAF9"/>
<path d="M25.5632 107.776L32.8174 103.578V68.6162L25.5632 72.7936V107.776Z" fill="#6697FE"/>
<path d="M26.3779 74.2288V76.5853C28.7602 75.9855 30.7562 74.9143 32.001 73.629V71.2511C30.7347 72.5579 28.7602 73.629 26.3779 74.2288Z" fill="#3375FE"/>
<path d="M26.3779 80.5483V90.4669C28.7602 89.867 30.7562 88.7959 32.001 87.5106V77.5706C30.7347 78.8773 28.7602 79.9484 26.3779 80.5483Z" fill="#3375FE"/>
<path d="M26.3985 72.4293L32.322 69.0231L10.1947 56.491V59.7258L26.3985 72.4293Z" fill="#99BAFF"/>
<path d="M31.0139 69.2588L6.22534 59.7258V85.0686L25.4767 72.5793L29.4257 71.1012L31.0139 69.2588Z" fill="#3375FE"/>
<path d="M25.7128 72.4293C26.2708 71.401 29.2111 69.5801 30.9924 69.2588C26.6786 66.7738 14.574 60.0471 10.2387 57.5621C8.99392 58.2905 6.54725 59.4687 5.30245 60.1757C9.61631 62.6607 21.3775 69.9443 25.6913 72.4293H25.7128Z" fill="#FAFCFD"/>
<path d="M31.7657 69.1302L32.8174 68.509L11.4413 56.1911C11.1837 56.0411 10.7116 56.0411 10.4325 56.1911C10.1321 56.3625 10.1106 56.6195 10.3896 56.7909L31.7657 69.1088V69.1302Z" fill="#99BAFF"/>
<path d="M25.4552 72.772L26.5068 72.1507L5.13073 59.8328C4.85172 59.6828 4.40102 59.6828 4.12201 59.8328C3.82154 60.0042 3.80007 60.2613 4.07908 60.4326L25.4552 72.7505V72.772Z" fill="#99BAFF"/>
<path d="M25.4547 72.7721C28.8886 72.0866 31.6572 70.5013 32.8376 68.509C32.5586 68.3591 32.2796 68.1877 32.0006 68.0377C30.8202 70.03 28.0731 71.6153 24.6177 72.3008C24.8967 72.4507 25.1757 72.6221 25.4547 72.7721Z" fill="#99BAFF"/>
<path d="M25.6908 107.691C29.1247 107.005 31.6572 105.506 32.8376 103.513C32.5586 103.363 32.2796 103.192 32.0006 103.042C30.8202 105.034 28.3092 106.534 24.8538 107.219C25.1328 107.391 25.4118 107.541 25.6908 107.691Z" fill="#6697FE"/>
<path d="M3.86385 95.1156L25.6907 107.691V72.7292L3.86385 60.1542V95.1156Z" fill="#3375FE"/>
<path d="M20.0897 111.054L24.6611 107.948V72.9647L20.0897 76.0924V111.054Z" fill="#6697FE"/>
<path d="M20.9044 77.5062V79.8627C23.2867 79.2628 22.5785 79.2843 23.8447 77.9775V75.5996C22.5785 76.9064 23.2867 76.885 20.9044 77.5062Z" fill="#99BAFF"/>
<path d="M20.9044 83.8472V93.7658C23.2867 93.166 22.5785 93.1874 23.8447 91.8806V81.962C22.5785 83.2688 23.2867 83.2474 20.9044 83.8686V83.8472Z" fill="#99BAFF"/>
<path d="M20.9262 75.7067L24.1455 73.3717L2.03968 60.861L2.2543 66.5808L20.9262 75.7067Z" fill="#99BAFF"/>
<path d="M22.8577 73.6288L0.751841 63.0033V88.3461L20.0247 75.8568L21.2695 75.4497L22.8577 73.6288Z" fill="#3375FE"/>
<path d="M20.2608 75.7067C20.8188 74.6784 21.0763 73.9501 22.8577 73.6287C18.5438 71.1437 6.43926 64.4171 2.10394 61.9106C0.859146 62.639 1.11669 62.7247 -0.128105 63.4531C4.18575 65.9381 15.9469 73.2003 20.2608 75.7067Z" fill="#FAFCFD"/>
<path d="M23.6095 73.4789L24.6611 72.8576L3.28501 60.5397C3.02747 60.3898 2.5553 60.3898 2.2763 60.5612C1.97583 60.7325 1.95436 60.9896 2.23336 61.1396L23.6095 73.4575V73.4789Z" fill="#99BAFF"/>
<path d="M19.9806 76.0497L21.0322 75.4284L-0.343889 63.1105C-0.622894 62.9606 -1.0736 62.9606 -1.3526 63.1105C-1.65307 63.2819 -1.67453 63.539 -1.39552 63.6889L19.9806 76.0068V76.0497Z" fill="#99BAFF"/>
<path d="M19.9824 76.0495C23.4163 75.364 23.5022 74.8499 24.6611 72.879C24.3821 72.7076 24.1031 72.5577 23.8241 72.4077C22.6437 74.4 22.5793 74.9141 19.1239 75.5782C19.4029 75.7282 19.682 75.8996 19.961 76.0495H19.9824Z" fill="#99BAFF"/>
<path d="M20.2173 110.968C23.6512 110.283 23.501 109.854 24.6814 107.862C24.4024 107.712 24.1234 107.54 23.8444 107.391C22.664 109.383 22.8357 109.811 19.3803 110.497C19.6593 110.647 19.9383 110.818 20.2173 110.968Z" fill="#6697FE"/>
<path d="M-1.58759 98.4147L20.2178 110.968V76.0069L-1.58759 63.4319V98.4147Z" fill="#3375FE"/>
<path d="M11.0762 116.324L18.3518 112.125V77.1637L11.0762 81.3625V116.324Z" fill="#6697FE"/>
<path d="M11.9131 89.1174V113.56C14.2954 112.961 16.2699 111.889 17.5361 110.583V86.1396C16.2699 87.4464 14.2954 88.5175 11.9131 89.1174Z" fill="#3375FE"/>
<path d="M11.9344 80.9768L17.8364 77.5706L-4.29086 65.0599V68.2733L11.9344 80.9768Z" fill="#99BAFF"/>
<path d="M16.5266 77.8277L-8.26197 68.2733V93.6161L11.0109 81.1268L14.9384 79.6486L16.5266 77.8277Z" fill="#3375FE"/>
<path d="M11.248 80.9768C11.806 79.9485 14.7463 78.1276 16.5491 77.8277C12.2352 75.3427 0.130663 68.616 -4.20465 66.1096C-5.44945 66.838 -7.8961 68.0162 -9.1409 68.7232C-4.82704 71.2082 6.93412 78.4704 11.248 80.9768Z" fill="#FAFCFD"/>
<path d="M17.2787 77.6779L18.3303 77.0566L-3.04581 64.7387C-3.32481 64.5888 -3.77552 64.5888 -4.05452 64.7601C-4.35499 64.9315 -4.37644 65.1886 -4.09744 65.3385L17.2787 77.6564V77.6779Z" fill="#99BAFF"/>
<path d="M10.9681 81.3196L12.0198 80.6983L-9.35633 68.3804C-9.63534 68.2305 -10.086 68.2305 -10.365 68.4019C-10.6655 68.5732 -10.687 68.8303 -10.408 68.9803L10.9681 81.2982V81.3196Z" fill="#99BAFF"/>
<path d="M10.9689 81.3196C14.4028 80.634 17.1714 79.0488 18.3518 77.0565C18.0728 76.9065 17.7938 76.7352 17.5148 76.5852C16.3344 78.5775 13.5873 80.1628 10.1319 80.8483C10.4109 80.9982 10.6899 81.1696 10.9689 81.3196Z" fill="#99BAFF"/>
<path d="M11.205 116.238C14.6389 115.553 17.1714 114.053 18.3518 112.061C18.0728 111.911 17.7938 111.739 17.5148 111.589C16.3344 113.582 13.8233 115.081 10.368 115.767C10.647 115.917 10.926 116.088 11.205 116.238Z" fill="#6697FE"/>
<path d="M-10.6 103.685L11.2053 116.238V81.2769L-10.6 68.7019V103.685Z" fill="#3375FE"/>
</g>
<path d="M15.7962 173.929L20.7969 171.037V169.794L15.7962 172.686V173.929Z" fill="#03BAF9"/>
<path d="M21.5267 170.544L26.5273 167.652V166.41L21.5267 169.28V170.544Z" fill="#3375FE"/>
<path d="M9.10067 177.335C9.10067 178.556 9.95915 179.049 11.0108 178.449C12.0624 177.849 12.9209 176.35 12.9209 175.129C12.9209 173.907 12.0624 173.415 11.0108 174.015C9.95915 174.614 9.10067 176.114 9.10067 177.335Z" fill="#C7CCE8"/>
<g opacity="0.06">
<path d="M9.9583 176.842C9.9583 177.528 10.4305 177.806 11.0314 177.464C11.6323 177.121 12.1045 176.285 12.1045 175.621C12.1045 174.957 11.6323 174.657 11.0314 175C10.4519 175.343 9.9583 176.178 9.9583 176.842Z" fill="url(#paint1_linear_372_351)"/>
</g>
<defs>
<linearGradient id="paint0_linear_372_351" x1="60.5676" y1="133.955" x2="1.99202" y2="189.998" gradientUnits="userSpaceOnUse">
<stop stop-color="#65B5FF"/>
<stop offset="1" stop-color="#10384F"/>
</linearGradient>
<linearGradient id="paint1_linear_372_351" x1="12.083" y1="176.221" x2="9.9583" y2="176.221" gradientUnits="userSpaceOnUse">
<stop stop-color="white"/>
<stop offset="0.15" stop-color="#C6CCCE"/>
<stop offset="0.31" stop-color="#8E9A9D"/>
<stop offset="0.48" stop-color="#607075"/>
<stop offset="0.63" stop-color="#3C4F55"/>
<stop offset="0.77" stop-color="#22383F"/>
<stop offset="0.9" stop-color="#122931"/>
<stop offset="1" stop-color="#0D252D"/>
</linearGradient>
</defs>
</svg>
