<svg width="164" height="200" viewBox="0 0 164 200" fill="none" xmlns="http://www.w3.org/2000/svg">
<path d="M122.468 153L46.2321 197.079C38.7534 201.401 25.6878 200.868 17.0562 195.866L9.25229 191.336C0.620708 186.333 -0.325218 178.784 7.15351 174.462L83.3893 130.383C90.868 126.061 103.934 126.594 112.565 131.597L120.369 136.126C129.001 141.129 129.947 148.678 122.468 153Z" fill="#99BAFF"/>
<path d="M155.605 160.697L142.894 167.92C137.987 170.762 129.385 170.407 123.71 167.121L118.566 164.161C112.891 160.875 112.27 155.901 117.177 153.059L129.888 145.836C134.795 142.994 143.397 143.349 149.072 146.635L154.216 149.596C159.891 152.882 160.512 157.855 155.605 160.697Z" fill="#99BAFF"/>
<path d="M123.858 15.9959L101.008 2.52638C99.2936 1.43106 97.047 1.43106 94.564 2.88162L84.7204 8.56545C79.4291 11.6146 75.1429 19.8443 75.1429 26.8899V71.502L64.649 65.3446C62.9345 64.2492 60.688 64.2492 58.2049 65.6998L48.3614 71.3836C43.0701 74.4328 38.7839 82.6625 38.7839 89.7081V131.537L28.29 125.38C26.5755 124.285 24.3289 124.285 21.8459 125.735L12.0023 131.419C6.71103 134.468 2.4248 142.698 2.4248 149.744V164.101C2.4248 167.772 3.60721 170.407 5.46951 171.65L29.0881 185.593C30.8026 186.659 33.0492 186.659 35.5322 185.208L45.3758 179.524C50.6671 176.475 54.9533 168.246 54.9533 161.2V157.914L65.4176 164.072C67.1321 165.137 69.3787 165.137 71.8617 163.687L81.7053 158.003C86.9965 154.954 91.2828 146.724 91.2828 139.678V136.6L101.747 142.757C103.462 143.823 105.708 143.823 108.191 142.372L118.035 136.688C123.326 133.639 127.612 125.41 127.612 118.364V23.9592C127.612 19.7851 126.075 16.9728 123.769 15.9959H123.858Z" fill="#32466D"/>
<path d="M31.8367 187.813C30.7134 187.813 29.6492 187.547 28.6738 186.985C28.5555 186.955 28.4668 186.896 28.3486 186.837L4.73 172.893C2.2765 171.236 0.946289 168.127 0.946289 164.072V149.714C0.946289 142.047 5.469 133.432 11.2628 130.087L21.1063 124.403C23.9737 122.745 26.8115 122.627 29.0876 124.078L37.3053 128.903V89.6489C37.3053 81.9817 41.8281 73.3671 47.6219 70.0219L57.4654 64.3381C60.3327 62.6803 63.1705 62.5619 65.4467 64.0125L73.6644 68.8378V26.8308C73.6644 19.1635 78.1871 10.5489 83.9809 7.20377L93.8244 1.51994C96.6918 -0.137844 99.5296 -0.256257 101.806 1.1943L124.626 14.6046C124.626 14.6046 124.715 14.6638 124.774 14.6934C127.582 16.0848 129.208 19.4003 129.208 23.8704V118.216C129.208 125.883 124.685 134.498 118.892 137.843L109.048 143.527C106.299 145.096 103.609 145.274 101.392 144.03C101.274 144.001 101.185 143.941 101.067 143.882L92.8194 139.027V139.53C92.8194 147.198 88.2967 155.812 82.5029 159.157L72.6593 164.841C69.9398 166.41 67.2203 166.588 65.0033 165.345C64.885 165.315 64.7963 165.256 64.6781 165.197L56.4308 160.342V161.052C56.4308 168.719 51.9081 177.334 46.1143 180.679L36.2707 186.363C34.7336 187.251 33.226 187.695 31.7776 187.695L31.8367 187.813ZM29.5606 184.113C29.5606 184.113 29.8266 184.202 29.9449 184.291C31.6002 185.356 33.5216 184.675 34.8518 183.906L44.6954 178.222C49.5728 175.41 53.5339 167.742 53.5339 161.17V157.885C53.5339 157.352 53.8295 156.848 54.2729 156.612C54.7459 156.345 55.3075 156.345 55.7509 156.612L65.9196 162.591C65.9196 162.591 66.1561 162.68 66.2743 162.769C67.9297 163.835 69.8511 163.154 71.1813 162.384L81.0249 156.7C85.9023 153.888 89.8634 146.221 89.8634 139.649V136.57C89.8634 136.037 90.159 135.534 90.6024 135.297C91.0753 135.031 91.637 135.031 92.0804 135.297L102.249 141.277C102.249 141.277 102.486 141.366 102.604 141.455C104.259 142.52 106.181 141.84 107.511 141.07L117.354 135.386C122.232 132.574 126.193 124.906 126.193 118.335V23.9592C126.193 20.6141 125.099 18.1274 123.237 17.3577C123.089 17.2985 122.941 17.2097 122.823 17.0913L100.209 3.79939C98.495 2.70407 96.5735 3.38495 95.2729 4.15463L85.4294 9.83846C80.5519 12.6508 76.5909 20.318 76.5909 26.89V71.4725C76.5909 72.0054 76.2952 72.479 75.8518 72.7455C75.4084 73.0119 74.8172 73.0119 74.3738 72.7455L63.88 66.588C62.1655 65.4926 60.2441 66.1735 58.9434 66.9432L49.0999 72.627C44.2224 75.4394 40.2614 83.1066 40.2614 89.6785V131.508C40.2614 132.041 39.9658 132.514 39.5224 132.781C39.079 133.047 38.4877 133.047 38.0443 132.781L27.5505 126.623C25.836 125.528 23.9146 126.209 22.6139 126.979L12.7704 132.663C7.89294 135.475 3.93187 143.142 3.93187 149.714V164.072C3.93187 167.062 4.78912 169.371 6.32625 170.407L29.5606 184.113Z" fill="#32466D"/>
<path d="M99.2919 1.49024C97.5774 0.394923 95.3309 0.394923 92.8478 1.84548L83.0043 7.52931C77.713 10.5785 73.4268 18.8082 73.4268 25.8834V120.229C73.4268 123.9 74.6092 126.535 76.4715 127.778L100.09 141.721L111.471 126.209L122.142 14.9597L99.2919 1.51985V1.49024Z" fill="#FFE36C"/>
<path d="M99.2919 1.52003C97.5774 0.424708 95.3309 0.424708 92.8478 1.87527L83.0043 7.5591C77.713 10.6082 73.4268 18.838 73.4268 25.8835V120.229C73.4268 123.9 74.6092 126.535 76.4715 127.778L100.09 141.721L111.471 126.209L122.142 14.9599L99.2919 1.52003Z" fill="url(#paint0_linear_372_871)"/>
<path d="M73.4561 28.4888V120.229C73.4561 123.9 74.6385 126.535 76.5008 127.778L100.119 141.721L111.5 126.209L118.388 54.4805L73.4561 28.4888Z" fill="url(#paint1_linear_372_871)"/>
<path d="M100.12 142.432C100.12 142.432 99.854 142.402 99.7358 142.343L76.1172 128.4C73.9002 126.92 72.7178 124.018 72.7178 120.2V25.8835C72.7178 18.6011 77.1814 10.0754 82.6796 6.90784L92.5231 1.22401C95.1244 -0.285761 97.6961 -0.404174 99.7062 0.89837L122.556 14.3383C122.793 14.4863 122.941 14.7527 122.911 15.0487L112.24 126.298C112.24 126.298 112.181 126.564 112.092 126.653L100.711 142.165C100.563 142.372 100.357 142.461 100.12 142.461V142.432ZM96.6024 1.46083C95.5678 1.46083 94.4445 1.81607 93.2326 2.49695L83.389 8.18078C78.3046 11.1115 74.1662 19.0452 74.1662 25.8835V120.229C74.1662 123.486 75.1713 126.002 76.8858 127.156L99.8836 140.715L110.762 125.913L121.344 15.3448L98.8786 2.14171C98.1691 1.69766 97.4005 1.46083 96.5729 1.46083H96.6024Z" fill="#32466D"/>
<path d="M116.407 135.623L106.564 141.307C101.273 144.356 96.9863 141.129 96.9863 134.054V39.7084C96.9863 32.6332 101.273 24.4331 106.564 21.3839L116.407 15.7001C121.699 12.651 125.985 15.8777 125.985 22.9529V117.299C125.985 124.374 121.699 132.574 116.407 135.623Z" fill="#FCCB2B"/>
<path d="M116.407 135.623L106.564 141.307C101.273 144.356 96.9863 141.129 96.9863 134.054V39.7084C96.9863 32.6332 101.273 24.4331 106.564 21.3839L116.407 15.7001C121.699 12.651 125.985 15.8777 125.985 22.9529V117.299C125.985 124.374 121.699 132.574 116.407 135.623Z" fill="#6697FE"/>
<path d="M102.78 143.201C101.775 143.201 100.799 142.964 99.9421 142.461C97.6068 141.099 96.2471 138.05 96.2471 134.054V39.7081C96.2471 32.4257 100.711 23.9 106.209 20.7324L116.052 15.0486C118.595 13.5684 121.078 13.3908 123.058 14.5454C125.393 15.9071 126.753 18.9562 126.753 22.9527V117.298C126.753 124.581 122.29 133.107 116.791 136.274L106.948 141.958C105.499 142.787 104.081 143.201 102.78 143.201ZM120.22 15.2854C119.156 15.2854 117.974 15.6407 116.791 16.3215L106.948 22.0054C101.864 24.9361 97.7251 32.8698 97.7251 39.7081V134.054C97.7251 137.488 98.7892 140.093 100.681 141.188C102.189 142.047 104.14 141.869 106.209 140.685L116.052 135.001C121.137 132.07 125.275 124.137 125.275 117.298V22.9527C125.275 19.5187 124.211 16.9136 122.319 15.8183C121.698 15.4631 120.989 15.2854 120.22 15.2854Z" fill="#32466D"/>
<path d="M62.9343 64.3086C61.2198 63.2133 58.9732 63.2133 56.4901 64.6638L46.6466 70.3477C41.3553 73.3968 37.0691 81.6265 37.0691 88.6721V141.544C37.0691 145.214 38.2515 147.849 40.1138 149.092L63.7324 163.036L75.1131 147.523L85.7843 77.7485L62.9343 64.3086Z" fill="#FFE36C"/>
<path d="M62.9343 64.3086C61.2198 63.2133 58.9732 63.2133 56.4901 64.6638L46.6466 70.3477C41.3553 73.3968 37.0691 81.6265 37.0691 88.6721V141.544C37.0691 145.214 38.2515 147.849 40.1138 149.092L63.7324 163.036L75.1131 147.523L85.7843 77.7485L62.9343 64.3086Z" fill="url(#paint2_linear_372_871)"/>
<path d="M37.0986 89.3826V141.129C37.0986 144.8 38.281 147.435 40.1433 148.678L63.7619 162.621L75.1426 147.109L80.1679 114.309L37.0986 89.4122V89.3826Z" fill="url(#paint3_linear_372_871)"/>
<path d="M63.7617 163.776C63.7617 163.776 63.4956 163.746 63.3774 163.687L39.7588 149.744C37.5418 148.264 36.3594 145.362 36.3594 141.544V88.6721C36.3594 81.3897 40.823 72.864 46.3212 69.6964L56.1647 64.0126C58.766 62.5028 61.3377 62.3844 63.3478 63.6869L86.1979 77.1268C86.4639 77.2749 86.6117 77.5709 86.5526 77.8669L75.8814 147.642C75.8814 147.642 75.8223 147.879 75.7336 147.968L64.3529 163.48C64.2051 163.687 63.9982 163.776 63.7617 163.776ZM60.244 64.2494C59.2094 64.2494 58.0566 64.6046 56.8742 65.2855L47.0306 70.9694C41.9463 73.9001 37.8078 81.8338 37.8078 88.6721V141.544C37.8078 144.8 38.7833 147.316 40.5274 148.471L63.5252 162.029L74.4034 147.198L84.9563 78.1037L62.5202 64.9007C61.8107 64.4566 61.0421 64.2198 60.2145 64.2198L60.244 64.2494Z" fill="#32466D"/>
<path d="M80.0793 156.967L70.2357 162.651C64.9444 165.7 60.6582 162.473 60.6582 155.398V102.526C60.6582 95.4513 64.9444 87.2512 70.2357 84.202L80.0793 78.5182C85.3705 75.4691 89.6568 78.6958 89.6568 85.771V138.642C89.6568 145.718 85.3705 153.918 80.0793 156.967Z" fill="#FCCB2B"/>
<path d="M80.0793 156.967L70.2357 162.651C64.9444 165.7 60.6582 162.473 60.6582 155.398V102.526C60.6582 95.4513 64.9444 87.2512 70.2357 84.202L80.0793 78.5182C85.3705 75.4691 89.6568 78.6958 89.6568 85.771V138.642C89.6568 145.718 85.3705 153.918 80.0793 156.967Z" fill="#6697FE"/>
<path d="M66.4225 164.545C65.4174 164.545 64.4419 164.309 63.5847 163.805C61.2494 162.444 59.8896 159.394 59.8896 155.398V102.527C59.8896 95.2441 64.3532 86.7183 69.8514 83.5508L79.695 77.867C82.2372 76.3868 84.7202 76.2092 86.7008 77.3637C89.036 78.7255 90.3958 81.7746 90.3958 85.771V138.643C90.3958 145.925 85.9322 154.451 80.434 157.618L70.5904 163.302C69.142 164.131 67.7231 164.545 66.4225 164.545ZM83.863 78.0742C82.7988 78.0742 81.6164 78.4294 80.434 79.1103L70.5904 84.7941C65.5061 87.7249 61.3677 95.6585 61.3677 102.497V155.368C61.3677 158.802 62.4318 161.407 64.3237 162.503C65.8312 163.361 67.7822 163.184 69.8514 162L79.695 156.316C84.7793 153.385 88.9178 145.451 88.9178 138.613V85.7414C88.9178 82.3075 87.8536 79.7024 85.9617 78.607C85.341 78.2518 84.6315 78.0742 83.863 78.0742Z" fill="#32466D"/>
<path d="M26.6044 124.344C24.8899 123.248 22.6434 123.248 20.1603 124.699L10.3168 130.383C5.02549 133.432 0.739258 141.662 0.739258 148.737V163.094C0.739258 166.765 1.92167 169.4 3.78396 170.643L27.4026 184.586L38.7832 169.074L49.4545 137.813L26.6044 124.373V124.344Z" fill="#FFE36C"/>
<path d="M26.6044 124.344C24.8899 123.248 22.6434 123.248 20.1603 124.699L10.3168 130.383C5.02549 133.432 0.739258 141.662 0.739258 148.737V163.094C0.739258 166.765 1.92167 169.4 3.78396 170.643L27.4026 184.586L38.7832 169.074L49.4545 137.813L26.6044 124.373V124.344Z" fill="url(#paint4_linear_372_871)"/>
<path d="M0.887059 146.517C0.798378 147.227 0.739258 147.938 0.739258 148.619V162.976C0.739258 166.647 1.92167 169.282 3.78396 170.525L27.4026 184.468L38.7832 168.956L38.931 168.512L0.887059 146.517Z" fill="url(#paint5_linear_372_871)"/>
<path d="M27.4023 185.297C27.4023 185.297 27.1363 185.268 27.018 185.208L3.39942 171.265C1.18241 169.785 0 166.884 0 163.065V148.708C0 141.425 4.46359 132.899 9.96179 129.732L19.8053 124.048C22.4066 122.538 24.9784 122.42 26.9885 123.722L49.8385 137.162C50.1341 137.34 50.2819 137.695 50.1637 138.05L39.4924 169.311C39.4924 169.311 39.4333 169.459 39.3742 169.519L27.9935 185.031C27.8457 185.238 27.6388 185.327 27.4023 185.327V185.297ZM23.8846 124.285C22.85 124.285 21.6972 124.64 20.5148 125.321L10.6712 131.005C5.58688 133.935 1.44845 141.869 1.44845 148.708V163.065C1.44845 166.321 2.42394 168.838 4.16799 169.992L27.1658 183.551L38.1031 168.66L48.5379 138.08L26.1903 124.936C25.4809 124.492 24.7123 124.255 23.8846 124.255V124.285Z" fill="#32466D"/>
<path d="M43.7199 178.488L33.8763 184.172C28.5851 187.221 24.2988 183.994 24.2988 176.919V162.562C24.2988 155.486 28.5851 147.286 33.8763 144.237L43.7199 138.553C49.0112 135.504 53.2974 138.731 53.2974 145.806V160.164C53.2974 167.239 49.0112 175.439 43.7199 178.488Z" fill="#FCCB2B"/>
<path d="M43.8676 178.488L34.024 184.172C28.7328 187.221 24.4465 183.994 24.4465 176.919V162.562C24.4465 155.486 28.7328 147.286 34.024 144.237L43.8676 138.553C49.1589 135.504 53.4451 138.731 53.4451 145.806V160.164C53.4451 167.239 49.1589 175.439 43.8676 178.488Z" fill="#6697FE"/>
<path d="M30.2108 186.067C29.2057 186.067 28.2302 185.83 27.373 185.327C25.0377 183.965 23.678 180.916 23.678 176.92V162.562C23.678 155.279 28.1416 146.754 33.6398 143.586L43.4833 137.902C46.0255 136.422 48.5085 136.245 50.4891 137.399C52.8243 138.761 54.1841 141.81 54.1841 145.806V160.164C54.1841 167.446 49.7205 175.972 44.2223 179.14L34.3788 184.824C32.9303 185.652 31.5114 186.067 30.2108 186.067ZM47.6809 138.139C46.6167 138.139 45.4343 138.494 44.2519 139.175L34.4083 144.859C29.324 147.79 25.1855 155.724 25.1855 162.562V176.92C25.1855 180.353 26.2497 182.959 28.1416 184.054C29.6491 184.912 31.6001 184.735 33.6693 183.551L43.5129 177.867C48.5972 174.936 52.7357 167.002 52.7357 160.164V145.806C52.7357 142.372 51.6715 139.767 49.7796 138.672C49.1589 138.317 48.4494 138.139 47.6809 138.139Z" fill="#32466D"/>
<path d="M162.493 116.647C162.493 110.045 160.01 105.546 156.108 103.71L145.555 98.0562C142.097 96.3392 137.456 96.724 132.372 99.6843C121.641 105.901 112.921 120.999 112.921 133.402C112.921 138.761 114.547 142.757 117.266 145.037L127.701 154.184C127.79 154.273 127.878 154.362 127.967 154.421C128.204 154.598 128.44 154.717 128.706 154.806L139.2 160.46C140.235 160.904 141.535 160.786 143.013 159.927C144.757 158.921 146.353 157.085 147.418 155.072C147.506 154.894 147.595 154.717 147.684 154.539L158.118 133.343C160.838 127.896 162.464 122.035 162.464 116.677L162.493 116.647Z" fill="#32466D"/>
<path d="M140.5 162.177C139.938 162.177 139.406 162.088 138.904 161.911C138.756 161.911 138.638 161.851 138.52 161.763L128.026 156.108C127.73 155.99 127.405 155.842 127.08 155.605C126.932 155.487 126.784 155.368 126.666 155.25L116.29 146.162C113.127 143.468 111.442 139.057 111.442 133.403C111.442 120.525 120.488 104.836 131.632 98.4116C136.953 95.3328 142.155 94.7408 146.205 96.7242L156.817 102.378C156.817 102.378 156.906 102.438 156.936 102.467C161.429 104.687 164 109.838 164 116.647C164 122.094 162.434 128.074 159.507 133.965L149.073 155.161C149.013 155.309 148.925 155.487 148.806 155.694C148.806 155.694 148.806 155.753 148.777 155.753C147.535 158.151 145.762 160.105 143.811 161.2C142.717 161.851 141.594 162.177 140.53 162.177H140.5ZM139.672 159.01C139.672 159.01 139.761 159.039 139.82 159.069C140.47 159.365 141.328 159.187 142.303 158.625C143.752 157.796 145.141 156.227 146.117 154.362C146.205 154.184 146.294 154.036 146.353 153.888L156.817 132.633C159.507 127.216 161.015 121.532 161.015 116.618C161.015 110.904 159.005 106.671 155.458 105.013C155.369 104.984 155.28 104.924 155.221 104.865L144.845 99.2997C141.742 97.7603 137.544 98.3228 133.08 100.898C122.764 106.849 114.369 121.413 114.369 133.343C114.369 138.05 115.729 141.78 118.182 143.853L128.617 153C128.883 153.237 129.06 153.296 129.179 153.355C129.297 153.414 129.415 153.474 129.533 153.533L139.672 158.98V159.01Z" fill="#32466D"/>
<path d="M154.926 103.148L144.373 97.4939C140.914 95.7769 136.273 96.1618 131.189 99.1221C120.459 105.339 111.738 120.436 111.738 132.84C111.738 138.198 113.364 142.195 116.084 144.474L126.518 153.622C126.607 153.711 126.696 153.799 126.784 153.859C127.021 154.036 127.257 154.155 127.523 154.243L138.017 159.898L144.107 149.152L158.65 114.486L154.896 103.119L154.926 103.148Z" fill="#92E0FF"/>
<path d="M154.926 103.148L144.373 97.4939C140.914 95.7769 136.273 96.1618 131.189 99.1221C120.459 105.339 111.738 120.436 111.738 132.84C111.738 138.198 113.364 142.195 116.084 144.474L126.518 153.622C126.607 153.711 126.696 153.799 126.784 153.859C127.021 154.036 127.257 154.155 127.523 154.243L138.017 159.898L144.107 149.152L158.65 114.486L154.896 103.119L154.926 103.148Z" fill="#6697FE"/>
<path d="M112.004 129.11C111.857 130.354 111.738 131.567 111.738 132.781C111.738 138.139 113.364 142.136 116.084 144.415L126.518 153.563C126.607 153.651 126.696 153.74 126.784 153.799C127.021 153.977 127.257 154.096 127.523 154.184L138.017 159.839L144.107 149.093L144.58 147.968L111.945 129.11H112.004Z" fill="#61CFFF"/>
<path d="M138.047 160.638C138.047 160.638 137.81 160.638 137.692 160.549L127.198 154.895C127.198 154.895 127.198 154.895 127.168 154.895C126.932 154.806 126.607 154.658 126.341 154.451C126.341 154.451 126.341 154.451 126.282 154.421C126.163 154.332 126.075 154.243 125.986 154.154L115.581 145.037C112.625 142.52 110.999 138.198 110.999 132.84C110.999 120.2 119.897 104.806 130.804 98.4707C135.918 95.5104 140.855 94.9183 144.698 96.8129L155.28 102.467C155.458 102.556 155.576 102.704 155.635 102.882L159.389 114.249C159.448 114.427 159.448 114.604 159.389 114.782L144.845 149.448L138.726 160.282C138.579 160.519 138.342 160.667 138.076 160.667L138.047 160.638ZM127.996 153.651L137.781 158.891L143.515 148.767L157.911 114.427L154.334 103.622L144.047 98.1155C140.677 96.4577 136.243 97.0201 131.573 99.7436C121.049 105.812 112.507 120.673 112.507 132.81C112.507 137.725 113.955 141.662 116.586 143.882L127.021 153.03C127.021 153.03 127.168 153.178 127.257 153.237C127.405 153.355 127.612 153.414 127.789 153.503C127.848 153.503 127.937 153.562 127.996 153.622V153.651Z" fill="#32466D"/>
<path d="M161.34 116.085C161.34 103.681 152.649 98.6483 141.889 104.835C131.159 111.052 122.439 126.15 122.439 138.554C122.439 143.912 124.065 147.908 126.784 150.188L137.219 159.335C137.308 159.424 137.396 159.513 137.485 159.572C138.549 160.371 140.116 160.371 141.889 159.365C143.633 158.358 145.23 156.523 146.294 154.51C146.382 154.332 146.471 154.154 146.56 153.947L156.995 132.751C159.714 127.304 161.34 121.443 161.34 116.085ZM141.889 137.162C137.278 139.826 133.524 137.665 133.524 132.337C133.524 127.008 137.278 120.525 141.889 117.861C146.501 115.197 150.255 117.358 150.255 122.686C150.255 128.015 146.53 134.498 141.889 137.162Z" fill="#3CAEF2"/>
<path d="M161.34 116.085C161.34 103.681 152.649 98.6483 141.889 104.835C131.159 111.052 122.439 126.15 122.439 138.554C122.439 143.912 124.065 147.908 126.784 150.188L137.219 159.335C137.308 159.424 137.396 159.513 137.485 159.572C138.549 160.371 140.116 160.371 141.889 159.365C143.633 158.358 145.23 156.523 146.294 154.51C146.382 154.332 146.471 154.154 146.56 153.947L156.995 132.751C159.714 127.304 161.34 121.443 161.34 116.085ZM141.889 137.162C137.278 139.826 133.524 137.665 133.524 132.337C133.524 127.008 137.278 120.525 141.889 117.861C146.501 115.197 150.255 117.358 150.255 122.686C150.255 128.015 146.53 134.498 141.889 137.162Z" fill="#6697FE"/>
<path d="M139.289 160.934C138.461 160.934 137.692 160.697 137.042 160.194C136.924 160.105 136.805 159.986 136.687 159.898L126.282 150.78C123.326 148.264 121.7 143.942 121.7 138.583C121.7 125.943 130.598 110.549 141.506 104.214C146.945 101.076 152.088 100.573 155.99 102.852C159.892 105.102 162.05 109.809 162.05 116.085C162.05 121.325 160.483 127.334 157.675 133.018V133.077L147.24 154.273C147.152 154.451 147.063 154.628 146.974 154.836C145.792 157.085 144.077 158.98 142.274 160.016C141.239 160.608 140.234 160.904 139.318 160.904L139.289 160.934ZM137.988 159.039C138.845 159.661 140.146 159.572 141.535 158.743C143.102 157.825 144.609 156.168 145.644 154.184C145.733 154.007 145.821 153.829 145.91 153.651L156.315 132.515C156.315 132.515 156.315 132.455 156.345 132.426C159.094 126.92 160.601 121.117 160.601 116.085C160.601 110.342 158.71 106.109 155.281 104.125C151.852 102.142 147.211 102.615 142.274 105.487C131.751 111.556 123.208 126.416 123.208 138.554C123.208 143.468 124.656 147.405 127.287 149.625L137.722 158.773C137.722 158.773 137.87 158.921 137.958 158.98C137.958 158.98 137.958 158.98 137.988 158.98V159.039ZM138.165 139.027C137.249 139.027 136.392 138.82 135.623 138.376C133.82 137.34 132.815 135.179 132.815 132.307C132.815 126.742 136.717 119.963 141.535 117.18C143.989 115.759 146.353 115.552 148.186 116.588C149.989 117.624 150.994 119.785 150.994 122.657C150.994 128.222 147.092 135.001 142.274 137.784C140.855 138.613 139.436 139.027 138.165 139.027ZM145.614 117.417C144.609 117.417 143.457 117.772 142.245 118.453C137.84 120.999 134.263 127.216 134.263 132.307C134.263 134.616 135.002 136.304 136.332 137.074C137.663 137.843 139.495 137.636 141.506 136.481C145.91 133.936 149.487 127.719 149.487 122.627C149.487 120.318 148.748 118.631 147.418 117.861C146.885 117.565 146.265 117.387 145.614 117.387V117.417Z" fill="#32466D"/>
<path d="M141.889 137.163C137.278 139.827 133.523 137.666 133.523 132.337C133.523 127.009 137.278 120.525 141.889 117.861C146.5 115.197 150.255 117.358 150.255 122.686C150.255 128.015 146.53 134.498 141.889 137.163Z" fill="#92E0FF"/>
<path d="M141.889 137.163C137.278 139.827 133.523 137.666 133.523 132.337C133.523 127.009 137.278 120.525 141.889 117.861C146.5 115.197 150.255 117.358 150.255 122.686C150.255 128.015 146.53 134.498 141.889 137.163Z" fill="#92E0FF"/>
<path d="M141.889 137.163C137.278 139.827 133.523 137.666 133.523 132.337C133.523 127.009 137.278 120.525 141.889 117.861C146.5 115.197 150.255 117.358 150.255 122.686C150.255 128.015 146.53 134.498 141.889 137.163Z" fill="#6697FE"/>
<path d="M141.889 117.831C140.441 118.66 139.081 119.904 137.898 121.354L149.19 127.867C149.841 126.12 150.255 124.314 150.255 122.657C150.255 117.328 146.5 115.167 141.889 117.831Z" fill="#61CFFF"/>
<path d="M138.165 139.028C137.248 139.028 136.391 138.82 135.623 138.376C133.82 137.34 132.814 135.179 132.814 132.308C132.814 126.742 136.716 119.963 141.535 117.18C143.988 115.759 146.353 115.552 148.186 116.588C149.989 117.624 150.994 119.785 150.994 122.657C150.994 128.222 147.092 135.001 142.274 137.784C140.855 138.613 139.436 139.028 138.165 139.028ZM145.614 117.417C144.609 117.417 143.456 117.772 142.244 118.453C137.84 120.999 134.263 127.216 134.263 132.308C134.263 134.617 135.002 136.304 136.332 137.074C137.662 137.843 139.495 137.636 141.505 136.482C145.91 133.936 149.486 127.719 149.486 122.627C149.486 120.318 148.747 118.631 147.417 117.861C146.885 117.565 146.264 117.387 145.614 117.387V117.417Z" fill="#32466D"/>
<path d="M139.583 119.489C136.745 122.065 134.557 125.913 133.818 129.643C136.656 127.068 138.844 123.219 139.583 119.489Z" fill="#32466D"/>
<path d="M133.819 130.383C133.819 130.383 133.583 130.354 133.464 130.295C133.198 130.147 133.05 129.821 133.11 129.495C133.878 125.647 136.184 121.591 139.11 118.927C139.347 118.72 139.702 118.66 139.968 118.838C140.234 118.986 140.381 119.312 140.322 119.637C139.554 123.486 137.248 127.541 134.322 130.206C134.174 130.324 133.996 130.383 133.819 130.383ZM137.928 122.45C136.952 123.752 136.125 125.203 135.504 126.713C136.479 125.41 137.307 123.959 137.928 122.45Z" fill="#32466D"/>
<defs>
<linearGradient id="paint0_linear_372_871" x1="97.7844" y1="0.738285" x2="147.936" y2="10.2965" gradientUnits="userSpaceOnUse">
<stop stop-color="#65B5FF"/>
<stop offset="1" stop-color="#10384F"/>
</linearGradient>
<linearGradient id="paint1_linear_372_871" x1="95.9218" y1="28.4888" x2="141.667" y2="38.5008" gradientUnits="userSpaceOnUse">
<stop stop-color="#65B5FF"/>
<stop offset="1" stop-color="#10384F"/>
</linearGradient>
<linearGradient id="paint2_linear_372_871" x1="61.4267" y1="63.5269" x2="109.868" y2="76.6071" gradientUnits="userSpaceOnUse">
<stop stop-color="#65B5FF"/>
<stop offset="1" stop-color="#10384F"/>
</linearGradient>
<linearGradient id="paint3_linear_372_871" x1="58.6332" y1="89.3826" x2="100.209" y2="102.868" gradientUnits="userSpaceOnUse">
<stop stop-color="#65B5FF"/>
<stop offset="1" stop-color="#10384F"/>
</linearGradient>
<linearGradient id="paint4_linear_372_871" x1="25.0969" y1="123.562" x2="68.63" y2="142.73" gradientUnits="userSpaceOnUse">
<stop stop-color="#65B5FF"/>
<stop offset="1" stop-color="#10384F"/>
</linearGradient>
<linearGradient id="paint5_linear_372_871" x1="19.8351" y1="146.517" x2="50.9842" y2="163.806" gradientUnits="userSpaceOnUse">
<stop stop-color="#65B5FF"/>
<stop offset="1" stop-color="#10384F"/>
</linearGradient>
</defs>
</svg>
