<svg width="162" height="200" viewBox="0 0 162 200" fill="none" xmlns="http://www.w3.org/2000/svg">
<path d="M137.568 143.409L41.1132 197.282C34.1448 201.304 21.9709 200.808 13.9284 196.153L6.65704 191.939C-1.38548 187.284 -2.26685 180.261 4.7015 176.24L101.157 122.366C108.125 118.345 120.299 118.84 128.341 123.495L135.613 127.709C143.655 132.364 144.537 139.387 137.568 143.409Z" fill="#99BAFF"/>
<path d="M150.458 151.066L138.614 157.786C134.042 160.43 126.027 160.1 120.739 157.043L115.947 154.288C110.658 151.231 110.08 146.604 114.652 143.96L126.495 137.239C131.068 134.595 139.083 134.926 144.371 137.983L149.163 140.737C154.451 143.794 155.03 148.422 150.458 151.066Z" fill="#99BAFF"/>
<path d="M136.606 97.2743L133.273 90.5814C132.502 89.039 131.345 87.9924 129.913 87.4139H130.023L108.181 74.6616C107.245 74.1934 106.171 73.9179 104.986 73.973H104.573C105.317 71.687 105.813 69.3734 105.978 67.1424L106.639 62.047C106.887 58.9622 107.052 56.2354 107.135 53.7015C109.311 53.8943 112.01 53.068 115.397 50.5891C115.342 45.6589 115.095 40.894 114.654 36.2117L118.813 33.843C117.794 28.8853 115.618 25.9658 113.084 24.2581L108.126 21.311C105.647 19.8237 102.921 19.4381 100.69 19.4657L101.213 17.1245L74.634 1.59033C69.4835 3.60096 67.6932 8.118 67.2801 9.41251L66.1784 8.75148C65.9029 8.53114 65.6 8.36588 65.2694 8.22817L65.1868 8.17308C61.744 6.85102 57.3371 10.7346 57.3371 10.7346L58.1634 14.4529C58.2185 14.7283 58.0532 15.1414 57.7778 15.3342C46.5127 21.3661 36.6248 37.5062 36.6248 37.5062L39.4067 39.1313C38.5804 41.6652 37.9744 44.2267 37.7266 46.7056L37.6439 47.5869C37.038 53.5362 36.7075 59.3753 36.6248 65.0491L40.3982 67.2526C40.4809 69.7039 40.6461 72.2378 40.894 75.0472L41.4999 78.793C41.8855 83.1173 43.7034 86.1194 46.375 87.5792L46.3199 87.6068L57.1168 93.8865C56.4833 94.162 55.8498 94.4649 55.2438 94.7128L53.068 95.5666C50.6442 96.5031 48.3857 96.9162 46.3199 96.8061C44.75 96.7234 42.8771 97.6324 41.2521 99.4502L20.4021 122.779C17.6478 125.864 15.4444 129.72 14.2049 133.658L10.8723 144.18C7.20905 155.803 5.30859 163.46 5.30859 173.871C5.30859 174.339 5.52894 174.615 5.85945 174.67L27.6183 187.367C27.8387 187.587 28.1692 187.643 28.5548 187.422L84.7698 154.977L140.985 122.531C141.618 122.173 142.142 121.264 142.142 120.521C142.142 110.109 140.241 104.628 136.578 97.2468L136.606 97.2743Z" fill="#6697FE"/>
<path d="M28.0856 188.992C27.6173 188.992 27.1767 188.827 26.8186 188.524L5.36269 175.992C4.50887 175.717 3.95801 174.918 3.95801 173.926C3.95801 163.487 5.77584 155.886 9.57676 143.822L12.9094 133.3C14.204 129.197 16.5176 125.148 19.382 121.925L40.232 98.5965C42.1049 96.5032 44.3634 95.3739 46.4016 95.4841C48.3296 95.5943 50.3953 95.2087 52.5712 94.3549L54.0585 93.7765L45.6304 88.8738C45.6304 88.8738 45.41 88.7086 45.3274 88.6259C42.3803 86.8081 40.535 83.3928 40.1218 78.9859L39.5159 75.3227C39.268 72.7612 39.1027 70.4201 39.0201 68.134L35.8802 66.3162C35.4395 66.0683 35.1916 65.6001 35.1916 65.1043C35.2743 59.3479 35.6048 53.4261 36.2107 47.5044L36.2934 46.6231C36.5137 44.4747 36.9819 42.1886 37.698 39.82L35.8802 38.7458C35.5497 38.553 35.3294 38.25 35.2467 37.892C35.1641 37.5339 35.2192 37.1483 35.412 36.8453C35.8251 36.1843 45.41 20.6777 56.7026 14.3979L55.959 11.0927C55.8488 10.597 56.0141 10.0736 56.3997 9.74313C56.923 9.30245 61.44 5.47398 65.4888 6.90621C65.6265 6.93376 65.7642 6.98884 65.8744 7.07147C66.0947 7.1541 66.3426 7.29182 66.5905 7.45707C67.6096 5.33627 69.813 2.05867 74.1097 0.378552C74.4953 0.240838 74.936 0.26838 75.2941 0.461181L101.845 15.9954C102.369 16.2983 102.617 16.9043 102.506 17.4827L102.341 18.2263C104.655 18.4191 106.721 19.0251 108.538 20.0717C108.621 20.0993 108.704 20.1268 108.786 20.1819L113.744 23.129C117.022 25.3324 119.142 28.8579 120.106 33.6228C120.217 34.2012 119.969 34.8072 119.445 35.0826L116.058 37.0381C116.471 41.5276 116.691 46.0997 116.746 50.6443C116.746 51.085 116.553 51.4981 116.168 51.7736C113.386 53.8117 110.769 54.941 108.428 55.1338C108.346 57.3372 108.18 59.6784 107.987 62.2399L107.326 67.3904C107.189 69.098 106.858 70.9159 106.362 72.7612C107.189 72.8714 107.987 73.1193 108.759 73.5049L130.683 86.2573C130.683 86.2573 130.848 86.3674 130.931 86.4501C132.473 87.2213 133.685 88.4331 134.456 90.0306L137.789 96.7235C141.59 104.325 143.49 110.137 143.49 120.603C143.49 121.843 142.719 123.192 141.645 123.798L29.2148 188.717C28.8292 188.937 28.4161 189.047 28.0305 189.047L28.0856 188.992ZM6.7123 173.596L28.1407 186.128L140.323 121.374C140.543 121.237 140.791 120.796 140.791 120.548C140.791 110.55 139.056 105.289 135.365 97.9079L132.032 91.215C131.454 90.0306 130.545 89.2043 129.388 88.7086C129.168 88.6259 129.003 88.4882 128.865 88.323L107.492 75.8736C106.748 75.5155 105.922 75.3503 105.04 75.3778H104.6C104.187 75.4054 103.718 75.2126 103.443 74.8545C103.167 74.4965 103.085 74.0282 103.223 73.6151C103.939 71.3566 104.407 69.1531 104.572 67.0874L105.233 61.9369C105.481 58.9898 105.646 56.2906 105.729 53.7016C105.729 53.316 105.894 52.9579 106.197 52.71C106.473 52.4621 106.858 52.3244 107.244 52.3795C109.144 52.5448 111.403 51.7185 113.992 49.9557C113.937 45.4112 113.689 40.8666 113.248 36.4322C113.193 35.8813 113.469 35.3856 113.937 35.1101L117.214 33.2372C116.333 29.6842 114.68 27.0951 112.284 25.4701L107.602 22.6883C107.602 22.6883 107.437 22.6057 107.354 22.5781C105.481 21.4489 103.278 20.9255 100.634 20.9255C100.248 20.9255 99.8072 20.7327 99.5594 20.4298C99.2839 20.0993 99.2013 19.6861 99.2839 19.273L99.5869 17.8958L74.5229 3.13284C70.4465 5.00576 68.9592 8.6965 68.5736 9.82576C68.4359 10.2114 68.1329 10.5419 67.7473 10.6796C67.3617 10.8173 66.921 10.7898 66.563 10.5694L65.4613 9.90839C65.1307 9.6605 64.9379 9.55033 64.7451 9.4677C64.7451 9.4677 64.6901 9.4677 64.6625 9.44016C62.8171 8.75159 60.2281 10.2114 58.851 11.2304L59.4845 14.0949C59.6497 14.8937 59.2641 15.8577 58.5755 16.381C49.3762 21.3111 41.0307 33.1821 38.5243 36.983L40.0667 37.8644C40.6176 38.1949 40.893 38.856 40.6727 39.4894C39.8188 42.0509 39.2955 44.5023 39.0476 46.7608L38.965 47.6421C38.3866 53.2058 38.0561 58.7695 37.9735 64.1954L41.0583 65.9857C41.4714 66.2336 41.7193 66.6467 41.7468 67.115C41.8295 69.5938 41.9947 72.1002 42.2426 74.827L42.8486 78.4902C43.2066 82.2635 44.6939 85.0178 47.0351 86.3123C47.1728 86.395 47.283 86.4776 47.3656 86.5602L57.8043 92.6472C58.245 92.8951 58.5205 93.3909 58.4929 93.9142C58.4654 94.4375 58.1624 94.8782 57.6666 95.0985L57.0882 95.3464C56.6475 95.5667 56.1793 95.7596 55.7386 95.9248L53.5627 96.7786C51.0013 97.7702 48.5499 98.2384 46.2363 98.1007C44.9969 98.0456 43.5647 98.8719 42.2702 100.304L21.4202 123.633C18.7761 126.58 16.6828 130.271 15.4985 134.017L12.1658 144.538C8.47504 156.216 6.7123 163.57 6.65721 173.486L6.7123 173.596Z" fill="#6697FE"/>
<path d="M128.453 86.4501L106.611 73.7253C105.675 73.2571 104.601 72.9817 103.416 73.0368L82.5662 73.7529C80.9412 73.808 79.0683 75.0474 77.4983 76.9478C75.4326 79.4267 73.1741 81.6577 70.7503 83.503L68.5744 85.1556C66.0956 87.0285 63.6167 88.7087 61.1103 90.1409C58.6039 91.5731 56.125 92.785 53.6462 93.7765L51.4703 94.6304C49.0465 95.5668 46.788 95.98 44.7223 95.8698C43.1523 95.7872 41.2794 96.6961 39.6544 98.5139L18.8044 121.843C16.0501 124.928 13.8467 128.784 12.6073 132.722L9.2746 143.244C5.6114 154.867 3.71094 162.524 3.71094 172.935C3.71094 173.403 3.93128 173.678 4.26179 173.734L26.0207 186.431L34.0632 173.761L37.8917 154.536L61.1103 141.123L117.325 108.65C117.959 108.292 118.482 107.383 118.482 106.639C118.482 99.1474 117.491 94.2172 115.563 89.2871L128.425 86.3675L128.453 86.4501Z" fill="#6697FE"/>
<path d="M128.453 86.4501L106.611 73.7253C105.675 73.2571 104.601 72.9817 103.416 73.0368L82.5662 73.7529C80.9412 73.808 79.0683 75.0474 77.4983 76.9478C75.4326 79.4267 73.1741 81.6577 70.7503 83.503L68.5744 85.1556C66.0956 87.0285 63.6167 88.7087 61.1103 90.1409C58.6039 91.5731 56.125 92.785 53.6462 93.7765L51.4703 94.6304C49.0465 95.5668 46.788 95.98 44.7223 95.8698C43.1523 95.7872 41.2794 96.6961 39.6544 98.5139L18.8044 121.843C16.0501 124.928 13.8467 128.784 12.6073 132.722L9.2746 143.244C5.6114 154.867 3.71094 162.524 3.71094 172.935C3.71094 173.403 3.93128 173.678 4.26179 173.734L26.0207 186.431L34.0632 173.761L37.8917 154.536L61.1103 141.123L117.325 108.65C117.959 108.292 118.482 107.383 118.482 106.639C118.482 99.1474 117.491 94.2172 115.563 89.2871L128.425 86.3675L128.453 86.4501Z" fill="url(#paint0_linear_372_772)"/>
<path d="M14.0383 129.527C13.5701 130.601 13.1294 131.676 12.7713 132.75L9.43866 143.271C5.77546 154.894 3.875 162.551 3.875 172.962C3.875 173.431 4.09534 173.706 4.42586 173.761L26.1847 186.458L34.2273 173.789L38.0557 154.564L47.7508 148.973L14.0383 129.5V129.527Z" fill="url(#paint1_linear_372_772)"/>
<path d="M26.0471 187.147C26.0471 187.147 25.7992 187.119 25.6891 187.064L4.04037 174.422C3.43443 174.257 3.04883 173.706 3.04883 172.99C3.04883 162.634 4.86666 155.087 8.64003 143.078L11.9727 132.557C13.2397 128.536 15.4982 124.597 18.3076 121.43L39.1575 98.1009C40.8927 96.1729 42.9034 95.1538 44.7763 95.2089C46.7869 95.3191 48.9628 94.9059 51.2489 94.0245L53.4248 93.1707C55.8485 92.2343 58.3274 91.0224 60.8062 89.5901C63.2851 88.1579 65.764 86.5053 68.1877 84.6324L70.3636 82.9798C72.7048 81.1896 74.9357 79.0412 77.0015 76.5348C78.7642 74.414 80.8024 73.147 82.5651 73.092L103.415 72.3758C104.627 72.3483 105.811 72.5962 106.941 73.147L128.837 85.8994C129.085 86.0371 129.223 86.3125 129.168 86.588C129.113 86.8634 128.92 87.0837 128.644 87.1664L116.553 89.9207C118.453 95.0436 119.225 100.001 119.225 106.777C119.225 107.768 118.564 108.898 117.71 109.393L38.5516 155.087L34.7782 174.009C34.7782 174.009 34.7231 174.174 34.6956 174.257L26.6531 186.927C26.5154 187.147 26.295 187.257 26.0747 187.257L26.0471 187.147ZM44.5284 96.5585C43.1513 96.5585 41.5538 97.4674 40.1766 98.9823L19.3267 122.311C16.6275 125.313 14.4791 129.087 13.2672 132.943L9.93455 143.464C6.18872 155.335 4.39843 162.772 4.39843 172.962C4.48106 172.962 4.53614 173.128 4.61877 173.155L25.7992 185.522L33.4286 173.513L37.2295 154.426C37.2571 154.233 37.3948 154.068 37.5601 153.958L116.994 108.099C117.434 107.851 117.82 107.162 117.82 106.694C117.82 99.781 116.994 94.8233 114.956 89.5901C114.873 89.3973 114.9 89.2045 114.983 89.0117C115.066 88.8465 115.231 88.7088 115.451 88.6537L126.606 86.1197L106.28 74.2763C105.398 73.8356 104.489 73.6428 103.47 73.6704L82.6478 74.3865C81.2706 74.4416 79.5905 75.5433 78.0756 77.3336C75.9273 79.9226 73.6137 82.1536 71.2175 83.9989L69.0416 85.6515C66.5627 87.552 64.0288 89.2321 61.4948 90.6919C58.9609 92.1516 56.4269 93.3911 53.9481 94.3551L51.7722 95.2089C49.3209 96.1729 46.9522 96.586 44.7212 96.4759C44.6661 96.4759 44.611 96.4759 44.556 96.4759L44.5284 96.5585Z" fill="#32466D"/>
<path d="M125.504 85.9269L104.654 86.643C103.029 86.6981 101.156 87.9376 99.586 89.838C97.5202 92.3169 95.2617 94.5479 92.838 96.3932L90.6621 98.0458C88.1832 99.9187 85.7044 101.599 83.198 103.031C80.6915 104.463 78.2127 105.675 75.7338 106.639L73.5579 107.493C71.1342 108.429 68.8757 108.843 66.8099 108.732C65.24 108.65 63.3671 109.559 61.742 111.377L40.8921 134.705C38.1378 137.79 35.9344 141.646 34.6949 145.585L31.3622 156.106C27.699 167.729 25.7986 175.386 25.7986 185.797C25.7986 186.541 26.3219 186.844 26.9554 186.458L83.1704 154.013L139.385 121.567C140.019 121.209 140.542 120.3 140.542 119.557C140.542 109.146 138.642 103.665 134.979 96.2831L131.646 89.5901C130.406 87.0837 128.203 85.7617 125.449 85.8718L125.504 85.9269Z" fill="#6697FE"/>
<path d="M125.504 85.9269L104.654 86.643C103.029 86.6981 101.156 87.9376 99.586 89.838C97.5202 92.3169 95.2617 94.5479 92.838 96.3932L90.6621 98.0458C88.1832 99.9187 85.7044 101.599 83.198 103.031C80.6915 104.463 78.2127 105.675 75.7338 106.639L73.5579 107.493C71.1342 108.429 68.8757 108.843 66.8099 108.732C65.24 108.65 63.3671 109.559 61.742 111.377L40.8921 134.705C38.1378 137.79 35.9344 141.646 34.6949 145.585L31.3622 156.106C27.699 167.729 25.7986 175.386 25.7986 185.797C25.7986 186.541 26.3219 186.844 26.9554 186.458L83.1704 154.013L139.385 121.567C140.019 121.209 140.542 120.3 140.542 119.557C140.542 109.146 138.642 103.665 134.979 96.2831L131.646 89.5901C130.406 87.0837 128.203 85.7617 125.449 85.8718L125.504 85.9269Z" fill="#6697FE"/>
<path d="M26.4607 187.367C26.2404 187.367 26.02 187.312 25.8272 187.202C25.3866 186.954 25.1387 186.459 25.1387 185.853C25.1387 175.496 26.9565 167.95 30.7299 155.941L34.0626 145.42C35.3295 141.398 37.5881 137.46 40.3974 134.292L61.2474 110.963C62.9826 109.035 65.0208 108.044 66.8661 108.071C68.9043 108.182 71.0527 107.769 73.3387 106.887L75.5146 106.033C77.9384 105.069 80.4172 103.885 82.8961 102.453C85.375 101.021 87.8538 99.3679 90.2776 97.495L92.4535 95.8425C94.7671 94.0797 97.0256 91.9038 99.0913 89.3699C100.854 87.2491 102.892 85.9821 104.655 85.927L125.505 85.2109C128.507 85.1283 130.986 86.5605 132.336 89.3148L135.668 96.0077C139.497 103.692 141.315 109.173 141.315 119.584C141.315 120.576 140.654 121.705 139.8 122.201L27.3696 187.12C27.0942 187.285 26.7912 187.367 26.5158 187.367H26.4607ZM66.6183 109.449C65.2411 109.449 63.6436 110.358 62.2665 111.872L41.4165 135.201C38.7173 138.231 36.569 142.004 35.3571 145.833L32.0244 156.354C28.2786 168.225 26.4883 175.662 26.4883 185.853C26.4883 185.908 26.4883 185.963 26.4883 185.99C26.4883 185.99 26.5434 185.963 26.5984 185.935L139.028 121.017C139.469 120.769 139.855 120.08 139.855 119.584C139.855 109.449 138.092 104.105 134.346 96.6137L131.014 89.9207C129.912 87.6898 127.929 86.5054 125.45 86.588L104.6 87.3042C103.223 87.3592 101.543 88.461 100.028 90.2512C97.8794 92.8403 95.5658 95.0988 93.1696 96.9166L90.9937 98.5692C88.5148 100.47 85.9809 102.15 83.4469 103.61C80.9405 105.069 78.3791 106.309 75.9002 107.273L73.7243 108.127C71.273 109.091 68.9043 109.504 66.6733 109.394C66.6182 109.394 66.5632 109.394 66.5081 109.394L66.6183 109.449Z" fill="#32466D"/>
<path d="M95.0984 22.4678L90.2508 20.9805L95.0984 13.5163L73.0365 0.653809C67.886 2.66444 66.0957 7.18147 65.6826 8.47599L64.5809 7.81496C64.3054 7.59461 64.0025 7.42936 63.6719 7.29164L63.5893 7.23656C60.1465 5.9145 55.7396 9.79805 55.7396 9.79805L56.5659 13.5163C56.621 13.7918 56.4557 14.2049 56.1803 14.3977C44.9152 20.4296 35.0273 36.5697 35.0273 36.5697L37.8092 38.1948C36.9829 40.7287 36.3769 43.2902 36.1291 45.769L36.0464 46.6504C35.4405 52.5997 35.11 58.4388 35.0273 64.1126L38.8007 66.316C38.8833 68.7674 39.0486 71.3013 39.2965 74.1107L39.9024 77.8565C40.288 82.1807 42.1059 85.1829 44.7775 86.6427L44.7224 86.6702L66.0682 99.0921C66.0682 99.0921 86.8355 82.4286 86.9732 82.3735C87.0834 82.3185 101.075 35.6608 101.075 35.6608L95.0708 22.4678H95.0984Z" fill="url(#paint2_linear_372_772)"/>
<path d="M95.0984 22.4678L90.2508 20.9805L95.0984 13.5163L73.0365 0.653809C67.886 2.66444 66.0957 7.18147 65.6826 8.47599L64.5809 7.81496C64.3054 7.59461 64.0025 7.42936 63.6719 7.29164L63.5893 7.23656C60.1465 5.9145 55.7396 9.79805 55.7396 9.79805L56.5659 13.5163C56.621 13.7918 56.4557 14.2049 56.1803 14.3977C44.9152 20.4296 35.0273 36.5697 35.0273 36.5697L37.8092 38.1948C36.9829 40.7287 36.3769 43.2902 36.1291 45.769L36.0464 46.6504C35.4405 52.5997 35.11 58.4388 35.0273 64.1126L38.8007 66.316C38.8833 68.7674 39.0486 71.3013 39.2965 74.1107L39.9024 77.8565C40.288 82.1807 42.1059 85.1829 44.7775 86.6427L44.7224 86.6702L66.0682 99.0921C66.0682 99.0921 86.8355 82.4286 86.9732 82.3735C87.0834 82.3185 101.075 35.6608 101.075 35.6608L95.0708 22.4678H95.0984Z" fill="url(#paint3_linear_372_772)"/>
<path d="M35.3018 55.1337C35.1365 58.0532 35.0263 60.9452 34.9988 63.8097L38.7722 66.0131C38.8548 68.4645 39.02 70.9984 39.2679 73.8078L39.8739 77.5536C40.2595 81.8778 42.0773 84.88 44.749 86.3398L44.6939 86.3673L66.0396 98.7892C66.0396 98.7892 79.5632 87.9373 84.8514 83.7232L35.2467 55.0786L35.3018 55.1337Z" fill="url(#paint4_linear_372_772)"/>
<path d="M66.0946 99.8083C66.0946 99.8083 65.8468 99.7808 65.7366 99.7257L44.3908 87.3039C44.3908 87.3039 44.2531 87.1937 44.198 87.1111C41.3887 85.431 39.6259 82.1809 39.2403 77.9393L38.6344 74.221C38.3865 71.5769 38.2212 69.1256 38.1386 66.7294L34.6958 64.7187C34.4754 64.6086 34.3652 64.3607 34.3652 64.1128C34.4479 58.3839 34.7784 52.4897 35.3843 46.568L35.467 45.6866C35.6873 43.4281 36.2106 41.0043 37.0094 38.4979L34.7233 37.1483C34.558 37.0657 34.4479 36.9004 34.3928 36.7352C34.3377 36.5424 34.3928 36.3771 34.4754 36.2118C34.8886 35.5508 44.6112 19.8238 55.9038 13.7919C55.9038 13.7919 55.9313 13.6818 55.9313 13.6267L55.105 9.93594C55.0499 9.68805 55.1326 9.44017 55.3254 9.27491C55.5182 9.10965 60.0352 5.22611 63.781 6.57571C63.8637 6.57571 63.9187 6.63079 64.0014 6.65834C64.3594 6.82359 64.7175 7.01639 65.048 7.29182L65.3785 7.48462C66.1497 5.58416 68.2154 1.83833 72.8426 0.048044C73.0354 -0.0345847 73.2558 -0.0070418 73.4486 0.10313L95.538 12.9932C95.7032 13.0758 95.8134 13.2411 95.8685 13.4339C95.9236 13.6267 95.8685 13.8195 95.7859 13.9572L91.4341 20.6501L95.4003 21.862C95.5931 21.9171 95.7308 22.0548 95.8134 22.2476L101.818 35.4406C101.873 35.6059 101.9 35.7712 101.845 35.9364C92.4623 67.2251 87.6423 82.9338 87.3853 83.0623C87.0548 83.3102 73.6414 94.0794 66.618 99.6982C66.4802 99.8083 66.3425 99.8359 66.1773 99.8359L66.0946 99.8083ZM45.3273 86.2297L66.012 98.2659C81.9593 85.4585 85.5399 82.6216 86.3937 81.9606C87.1925 79.5368 95.7583 51.0575 100.358 35.7161L94.6015 23.0463L90.0569 21.6417C89.8641 21.5866 89.6989 21.4213 89.6163 21.2285C89.5336 21.0357 89.5612 20.7878 89.6989 20.6226L94.1608 13.7644L72.9804 1.42519C68.3807 3.38073 66.7281 7.45708 66.3425 8.69651C66.2874 8.88931 66.1222 9.05457 65.9294 9.13719C65.7366 9.21982 65.5162 9.19228 65.3234 9.08211L64.2217 8.42108C63.9187 8.17319 63.6709 8.03548 63.423 7.92531C63.423 7.92531 63.3954 7.92531 63.3679 7.92531C60.8339 6.96131 57.5288 9.30245 56.5097 10.0737L57.2534 13.3788C57.3635 13.9297 57.0881 14.5907 56.5923 14.9487C46.7595 20.2094 37.8907 33.3749 35.9903 36.3496L38.1386 37.6165C38.414 37.7818 38.5518 38.1123 38.4416 38.4153C37.5878 41.0318 37.0369 43.5107 36.789 45.8519L36.7064 46.7332C36.128 52.4621 35.7975 58.1635 35.7148 63.7547L39.1577 65.7654C39.3505 65.8755 39.4882 66.0959 39.4882 66.3438C39.5708 68.8226 39.7361 71.3566 39.984 74.0833L40.5899 77.8016C40.948 81.7678 42.573 84.6873 45.1345 86.1195C45.2171 86.1746 45.2998 86.2297 45.3548 86.3123L45.3273 86.2297Z" fill="#32466D"/>
<path d="M90.6632 90.9944L88.9831 92.2889C85.1547 95.2085 81.2436 97.467 77.4151 98.9543L75.7074 99.6153C68.3535 102.507 62.7072 98.8441 61.9635 90.719L61.3576 86.9731C60.4762 77.4984 60.5864 71.0809 61.6606 60.4769L61.7432 59.7332C62.6521 50.8369 68.2158 40.9215 75.4596 35.4129L77.4426 33.898C81.2711 30.9785 85.1822 28.72 89.0107 27.2326L91.0488 26.4339C98.2375 23.6245 103.829 27.0398 104.738 34.862C105.839 44.2266 105.95 50.589 105.096 61.1104L104.435 66.2058C103.691 75.2123 98.0447 85.3757 90.6908 90.9944H90.6632Z" fill="url(#paint5_linear_372_772)"/>
<path d="M90.6632 90.9944L88.9831 92.2889C85.1547 95.2085 81.2436 97.467 77.4151 98.9543L75.7074 99.6153C68.3535 102.507 62.7072 98.8441 61.9635 90.719L61.3576 86.9731C60.4762 77.4984 60.5864 71.0809 61.6606 60.4769L61.7432 59.7332C62.6521 50.8369 68.2158 40.9215 75.4596 35.4129L77.4426 33.898C81.2711 30.9785 85.1822 28.72 89.0107 27.2326L91.0488 26.4339C98.2375 23.6245 103.829 27.0398 104.738 34.862C105.839 44.2266 105.95 50.589 105.096 61.1104L104.435 66.2058C103.691 75.2123 98.0447 85.3757 90.6908 90.9944H90.6632Z" fill="#6697FE"/>
<path d="M70.9699 101.296C69.2072 101.296 67.5822 100.855 66.1499 99.9736C63.3956 98.2935 61.688 95.0159 61.2748 90.8018L60.6689 87.0835C59.7875 77.6638 59.8702 71.1913 60.9443 60.422L61.027 59.6783C61.9359 50.6718 67.6923 40.4534 74.9912 34.8897L76.9743 33.3749C80.8578 30.4003 84.7965 28.1417 88.7076 26.5993L90.7457 25.8006C94.4365 24.3408 97.7967 24.4234 100.468 26.0209C103.168 27.646 104.903 30.7583 105.371 34.7796C106.5 44.3645 106.583 50.7544 105.729 61.1656L105.068 66.2886C104.324 75.4329 98.5679 85.8165 91.0487 91.5454L89.3686 92.8124C85.485 95.7871 81.5464 98.0456 77.6629 99.588L75.9552 100.249C74.1925 100.938 72.5123 101.296 70.9424 101.296H70.9699ZM95.7585 26.1311C94.3538 26.1311 92.8665 26.4341 91.269 27.0676L89.2309 27.8663C85.4575 29.3536 81.629 31.5571 77.8557 34.4491L75.8726 35.9639C68.8491 41.3348 63.313 51.14 62.4316 59.7885L62.349 60.5322C61.2748 71.1913 61.1922 77.6088 62.046 86.8907L62.652 90.609C63.01 94.4375 64.4974 97.3295 66.8661 98.7892C69.1797 100.194 72.1267 100.277 75.4594 98.9545L77.1671 98.2935C80.9405 96.8061 84.7689 94.6027 88.5423 91.7107L90.2224 90.4162C97.4386 84.9076 102.975 74.9095 103.691 66.0958L104.352 60.9728C105.206 50.6994 105.096 44.3645 103.994 34.8897C103.553 31.2265 102.093 28.5549 99.7523 27.1502C98.5679 26.4341 97.2183 26.076 95.731 26.076L95.7585 26.1311Z" fill="#32466D"/>
<path d="M57.0878 77.6638C57.0878 77.6638 56.8399 77.6362 56.7298 77.5811L34.6404 64.6911C34.3098 64.4983 34.1997 64.0851 34.3925 63.7546C34.5853 63.4241 34.9984 63.3139 35.3289 63.5067L57.4183 76.3968C57.7488 76.5896 57.859 77.0027 57.6662 77.3333C57.5285 77.5536 57.3082 77.6638 57.0603 77.6638H57.0878Z" fill="#32466D"/>
<path d="M85.5956 20.7877C85.5956 20.7877 85.3478 20.7601 85.2376 20.7051L63.3135 7.89762C62.9829 7.70482 62.8728 7.29168 63.0656 6.96116C63.2584 6.63065 63.6715 6.52048 64.002 6.71328L85.9262 19.5207C86.2567 19.7135 86.3669 20.1267 86.1741 20.4572C86.0363 20.6775 85.816 20.7877 85.5681 20.7877H85.5956Z" fill="#32466D"/>
<path d="M57.0878 50.1208C57.0878 50.1208 56.8399 50.0933 56.7298 50.0382L34.6404 37.1481C34.3098 36.9553 34.1997 36.5422 34.3925 36.2117C34.5853 35.8811 34.9984 35.771 35.3289 35.9638L57.4183 48.8538C57.7488 49.0466 57.859 49.4598 57.6662 49.7903C57.5285 50.0106 57.3082 50.1208 57.0603 50.1208H57.0878Z" fill="#32466D"/>
<path d="M85.0447 138.864C90.2503 123.413 93.8584 110.825 95.7589 96.09L96.0618 93.6387C95.0152 94.6302 93.941 95.5667 92.8393 96.393L90.6634 98.0455C88.1846 99.9185 85.7057 101.599 83.1993 103.031C80.6929 104.463 78.214 105.675 75.7352 106.639L73.5593 107.493C72.3199 107.989 71.108 108.319 69.9512 108.512L70.3368 110.991C72.3474 123.357 76.0106 131.565 81.2438 140.847L81.3264 140.985C82.07 142.307 84.2459 141.04 84.9896 138.837L85.0447 138.864Z" fill="url(#paint6_linear_372_772)"/>
<path d="M84.9617 138.864C90.1673 123.413 93.7754 110.825 95.6758 96.09L95.9788 93.6387C94.9322 94.6302 93.8856 95.5667 92.7563 96.393L90.5804 98.0455C88.1015 99.9185 85.6227 101.599 83.1163 103.031C80.6099 104.463 78.131 105.675 75.6522 106.639L73.4763 107.493C72.2369 107.989 71.025 108.319 69.8682 108.512L70.2538 110.991C72.2644 123.357 75.9276 131.565 81.1607 140.847L81.2434 140.985C81.987 142.307 84.1905 141.04 84.9066 138.837L84.9617 138.864Z" fill="url(#paint7_linear_372_772)"/>
<path d="M82.1796 142.252C81.5461 142.252 80.9952 141.922 80.6647 141.371C75.2939 131.841 71.6031 123.551 69.5925 111.156L69.2069 108.677C69.1518 108.292 69.3997 107.961 69.7577 107.879C70.887 107.686 72.0438 107.355 73.2281 106.887L75.404 106.033C77.8278 105.097 80.3067 103.885 82.7855 102.453C85.2644 101.02 87.7432 99.3679 90.167 97.4949L92.3429 95.8424C93.362 95.0436 94.4362 94.1347 95.5103 93.1156C95.7307 92.9228 96.0337 92.8677 96.3091 93.0055C96.557 93.1432 96.7222 93.4186 96.6947 93.694L96.3917 96.1453C94.4912 110.991 90.8556 123.578 85.65 139.057C85.0716 140.765 83.722 142.059 82.4275 142.197C82.3724 142.197 82.2898 142.197 82.2347 142.197L82.1796 142.252ZM70.6942 109.09L70.9972 110.908C72.9803 123.11 76.6159 131.29 81.8215 140.544C81.9868 140.847 82.097 140.875 82.2622 140.875C82.8406 140.82 83.8597 140.021 84.3004 138.672C89.4784 123.275 93.0866 110.771 94.987 96.0076L95.0696 95.4292C94.4362 95.9801 93.8027 96.5034 93.1967 96.9716L91.0208 98.6242C88.542 100.525 86.008 102.205 83.4741 103.665C80.9401 105.124 78.4062 106.364 75.9273 107.328L73.7515 108.182C72.7324 108.595 71.6857 108.898 70.6942 109.118V109.09Z" fill="#6697FE"/>
<path d="M96.0618 93.6389C95.0152 94.6304 93.941 95.5669 92.8393 96.3932L90.6634 98.0457C88.1846 99.9186 85.7057 101.599 83.1993 103.031C80.6929 104.463 78.214 105.675 75.7352 106.639L73.5593 107.493C72.3199 107.989 71.108 108.319 69.9512 108.512L70.3368 110.991C70.6122 112.781 70.9703 114.516 71.3283 116.252L75.2945 118.538L88.3774 109.999L98.5407 100.58L100 95.8974L96.0343 93.6113L96.0618 93.6389Z" fill="url(#paint8_linear_372_772)"/>
<path d="M96.0618 93.6389C95.0152 94.6304 93.941 95.5669 92.8393 96.3932L90.6634 98.0457C88.1846 99.9186 85.7057 101.599 83.1993 103.031C80.6929 104.463 78.214 105.675 75.7352 106.639L73.5593 107.493C72.3199 107.989 71.108 108.319 69.9512 108.512L70.3368 110.991C70.6122 112.781 70.9703 114.516 71.3283 116.252L75.2945 118.538L88.3774 109.999L98.5407 100.58L100 95.8974L96.0343 93.6113L96.0618 93.6389Z" fill="url(#paint9_linear_372_772)"/>
<path d="M69.9775 108.732L70.3356 110.936C70.611 112.726 70.9691 114.461 71.3271 116.197L75.2933 118.483L80.7193 114.93L69.9775 108.732Z" fill="#61CFFF"/>
<path d="M75.3216 119.254C75.3216 119.254 75.0737 119.226 74.9911 119.171L71.0249 116.885C70.8596 116.775 70.7219 116.61 70.6944 116.417C70.3088 114.489 69.9783 112.781 69.7028 111.128L69.3172 108.65C69.2621 108.264 69.51 107.934 69.8681 107.851C70.9974 107.658 72.1541 107.328 73.3385 106.859L75.5144 106.006C77.9382 105.042 80.417 103.857 82.8959 102.425C85.3747 100.993 87.8536 99.3401 90.2774 97.4672L92.4533 95.8146C93.4723 95.0434 94.5465 94.107 95.6207 93.0879C95.841 92.8676 96.1715 92.84 96.447 92.9777L100.413 95.2638C100.689 95.429 100.826 95.7596 100.716 96.0625L99.2563 100.745C99.2563 100.745 99.1462 100.965 99.0635 101.048L88.9002 110.467L75.7347 119.088C75.7347 119.088 75.4868 119.199 75.3491 119.199L75.3216 119.254ZM71.9613 115.838L75.294 117.766L88.0188 109.448L97.9618 100.222L99.2013 96.2553L96.144 94.4926C95.1525 95.4015 94.1885 96.2278 93.252 96.9439L91.0761 98.5965C88.5972 100.497 86.0633 102.177 83.5294 103.637C81.023 105.097 78.4615 106.336 75.9826 107.3L73.8067 108.154C72.7876 108.567 71.741 108.87 70.7495 109.09L71.0524 110.908C71.3003 112.451 71.6033 114.076 71.9613 115.838Z" fill="url(#paint10_linear_372_772)"/>
<path d="M75.3211 118.565C79.8382 118.317 89.01 114.599 98.6775 105.289C99.0631 102.976 99.3936 100.662 99.6966 98.3761L99.9996 95.9248C98.9529 96.9163 97.8788 97.8528 96.777 98.6791L94.6012 100.332C92.1223 102.205 89.6434 103.885 87.137 105.317C84.6306 106.749 82.1518 107.961 79.6729 108.925L77.497 109.779C76.2576 110.275 75.0457 110.605 73.8889 110.798L74.2745 113.277C74.5499 115.067 74.908 116.802 75.2661 118.538L75.3211 118.565Z" fill="url(#paint11_linear_372_772)"/>
<path d="M75.3211 118.565C79.8382 118.317 89.01 114.599 98.6775 105.289C99.0631 102.976 99.3936 100.662 99.6966 98.3761L99.9996 95.9248C98.9529 96.9163 97.8788 97.8528 96.777 98.6791L94.6012 100.332C92.1223 102.205 89.6434 103.885 87.137 105.317C84.6306 106.749 82.1518 107.961 79.6729 108.925L77.497 109.779C76.2576 110.275 75.0457 110.605 73.8889 110.798L74.2745 113.277C74.5499 115.067 74.908 116.802 75.2661 118.538L75.3211 118.565Z" fill="url(#paint12_linear_372_772)"/>
<path d="M75.3215 119.254C74.991 119.254 74.7155 119.033 74.6604 118.703C74.2748 116.802 73.9443 115.067 73.6689 113.415L73.2833 110.936C73.2282 110.55 73.4761 110.22 73.8342 110.137C74.9634 109.944 76.1478 109.614 77.3046 109.145L79.4804 108.292C81.9318 107.328 84.4106 106.116 86.8619 104.711C89.3408 103.279 91.8197 101.626 94.2434 99.7532L96.4193 98.1007C97.4384 97.3019 98.485 96.4206 99.5867 95.3739C99.8071 95.1811 100.11 95.126 100.385 95.2638C100.633 95.4015 100.799 95.6769 100.771 95.9523L100.468 98.4037C100.165 100.69 99.8071 103.003 99.449 105.344C99.449 105.482 99.3664 105.62 99.2562 105.73C89.9743 114.654 80.6097 118.923 75.4592 119.199H75.4316L75.3215 119.254ZM74.7431 111.376L75.046 113.194C75.2939 114.654 75.5694 116.169 75.8999 117.821C79.8385 117.353 88.3493 114.241 98.0719 104.959C98.4299 102.728 98.7605 100.497 99.0634 98.2935L99.1461 97.7151C98.5126 98.2659 97.9066 98.7892 97.2731 99.2575L95.0973 100.91C92.6184 102.811 90.0845 104.491 87.5505 105.95C85.0441 107.41 82.4826 108.622 80.0038 109.614L77.8279 110.467C76.8088 110.881 75.7897 111.184 74.7706 111.404L74.7431 111.376Z" fill="#32466D"/>
<path d="M108.593 32.6587L112.752 30.29C112.312 28.059 111.596 26.2963 110.742 24.809L111.541 23.3492L106.528 20.3746C103.856 18.7771 100.909 18.4466 98.5953 18.5292L99.6144 16.1881L95.1525 13.5439C90.0571 15.527 88.2668 19.989 87.8261 21.311L86.3663 20.4297C82.8684 18.2813 77.8556 22.6606 77.8556 22.6606L78.6818 26.3789C78.7369 26.6544 78.5717 27.0675 78.2962 27.2603C67.0312 33.2922 57.1433 49.4323 57.1433 49.4323L59.9251 51.0573C59.0989 53.5913 58.4929 56.1252 58.245 58.6041L58.1624 59.4855C57.5565 65.4347 57.2259 71.2738 57.1433 76.9477L61.6053 79.5918L65.6265 74.2209L68.4083 68.5195C70.5292 66.3161 72.4847 63.7546 74.0271 60.8902C74.1373 60.6698 74.2474 60.4495 74.3576 60.2291L76.3132 61.4135V61.4961C76.3132 61.4961 76.3407 61.4686 76.3682 61.441L80.8026 64.1402L83.0612 59.9262V53.1231C86.0083 48.8815 88.6248 44.089 90.5804 38.7457L92.3156 36.8452L92.5359 37.2308C93.1419 41.1144 94.7393 47.1463 98.5953 49.2946L102.727 51.7459L103.167 49.9556C104.93 49.6251 106.996 48.7162 109.365 46.9535C109.31 42.0233 109.062 37.2584 108.621 32.5761L108.593 32.6587Z" fill="url(#paint13_linear_372_772)"/>
<path d="M108.593 32.6587L112.752 30.29C112.312 28.059 111.596 26.2963 110.742 24.809L111.541 23.3492L106.528 20.3746C103.856 18.7771 100.909 18.4466 98.5953 18.5292L99.6144 16.1881L95.1525 13.5439C90.0571 15.527 88.2668 19.989 87.8261 21.311L86.3663 20.4297C82.8684 18.2813 77.8556 22.6606 77.8556 22.6606L78.6818 26.3789C78.7369 26.6544 78.5717 27.0675 78.2962 27.2603C67.0312 33.2922 57.1433 49.4323 57.1433 49.4323L59.9251 51.0573C59.0989 53.5913 58.4929 56.1252 58.245 58.6041L58.1624 59.4855C57.5565 65.4347 57.2259 71.2738 57.1433 76.9477L61.6053 79.5918L65.6265 74.2209L68.4083 68.5195C70.5292 66.3161 72.4847 63.7546 74.0271 60.8902C74.1373 60.6698 74.2474 60.4495 74.3576 60.2291L76.3132 61.4135V61.4961C76.3132 61.4961 76.3407 61.4686 76.3682 61.441L80.8026 64.1402L83.0612 59.9262V53.1231C86.0083 48.8815 88.6248 44.089 90.5804 38.7457L92.3156 36.8452L92.5359 37.2308C93.1419 41.1144 94.7393 47.1463 98.5953 49.2946L102.727 51.7459L103.167 49.9556C104.93 49.6251 106.996 48.7162 109.365 46.9535C109.31 42.0233 109.062 37.2584 108.621 32.5761L108.593 32.6587Z" fill="url(#paint14_linear_372_772)"/>
<path d="M60.4212 44.447C58.3004 47.3665 57.0059 49.4322 57.0059 49.4322L59.7877 51.0573C58.9614 53.5912 58.3555 56.1252 58.1076 58.604L58.0249 59.4854C57.419 65.4347 57.0885 71.2737 57.0059 76.9476L61.4678 79.5917L65.4891 74.2208L68.2709 68.5195C70.3917 66.316 72.3472 63.7545 73.8896 60.8901C73.9998 60.6697 74.11 60.4494 74.2202 60.229L76.1757 61.4134V61.496C76.1757 61.496 76.2032 61.4685 76.2308 61.4409L80.6652 64.1401L82.9237 59.9261V57.4197L60.3936 44.4194L60.4212 44.447Z" fill="url(#paint15_linear_372_772)"/>
<path d="M61.5499 80.308C61.5499 80.308 61.302 80.2804 61.1919 80.2253L56.7299 77.5812C56.5096 77.4435 56.3994 77.2232 56.3994 76.9753C56.482 71.2464 56.8126 65.3522 57.4185 59.4305L57.5011 58.5491C57.7215 56.2906 58.2448 53.8944 59.0435 51.388L56.7575 50.0384C56.5922 49.9557 56.482 49.7905 56.427 49.5977C56.3719 49.4049 56.427 49.2396 56.5096 49.0744C56.9227 48.4133 66.6454 32.6863 77.9379 26.6544C77.9379 26.6544 77.9655 26.5443 77.9655 26.4892L77.1392 22.826C77.0841 22.5781 77.1667 22.3302 77.3595 22.165C77.5799 21.9722 82.758 17.5378 86.614 19.8238C86.614 19.8238 86.669 19.8238 86.669 19.8514L87.4127 20.292C88.2114 18.3916 90.2772 14.6733 94.8493 12.883C95.0421 12.8004 95.2624 12.8279 95.4552 12.9381L99.9172 15.5822C100.22 15.7475 100.33 16.1331 100.193 16.436L99.6142 17.8132C101.652 17.8683 104.269 18.2814 106.693 19.6861C106.748 19.6861 106.803 19.7136 106.858 19.7687L111.871 22.7434C112.201 22.9362 112.311 23.3493 112.119 23.6523L111.513 24.7815C112.394 26.379 113 28.1142 113.413 30.1248C113.468 30.4278 113.331 30.7032 113.083 30.8685L109.309 33.0169C109.75 37.589 109.97 42.2988 110.025 47.0086C110.025 47.229 109.915 47.4493 109.75 47.5595C107.602 49.1294 105.563 50.1485 103.718 50.5892L103.388 51.9664C103.332 52.1867 103.195 52.352 102.974 52.4346C102.782 52.5172 102.534 52.5172 102.368 52.3795L98.237 49.9282C98.237 49.9282 98.182 49.9006 98.1544 49.8731C94.4637 47.7523 92.756 42.5191 91.9848 38.2225L91.1585 39.1314C89.3407 44.0615 86.8618 48.8265 83.7495 53.371V59.9538C83.7495 59.9538 83.7219 60.1741 83.6669 60.2843L81.4083 64.4984C81.3257 64.6636 81.1605 64.8013 80.9952 64.8289C80.8024 64.884 80.6096 64.8289 80.4443 64.7463L76.2027 62.1572C76.2027 62.1572 76.1477 62.1572 76.1201 62.1572C75.9824 62.1021 75.8722 62.0195 75.7896 61.9369L74.6603 61.2483C73.2006 63.9475 71.3001 66.5365 69.0141 68.9328L66.2598 74.524L62.1559 80.005C62.0182 80.1703 61.8254 80.2804 61.605 80.2804L61.5499 80.308ZM57.7766 76.5897L61.3847 78.7105L65.0479 73.8079L67.7746 68.2167C67.7746 68.2167 67.8573 68.1065 67.8848 68.0514C70.1158 65.7103 71.9611 63.2039 73.3934 60.5873C73.4485 60.4771 73.5035 60.3669 73.5586 60.2568L73.7239 59.9263C73.8065 59.761 73.9718 59.6233 74.137 59.5682C74.3298 59.5131 74.5226 59.5682 74.6879 59.6508L76.6434 60.8352L80.4443 63.1488L82.2897 59.7335V53.0956C82.2897 52.9579 82.3448 52.8202 82.3999 52.71C85.5398 48.193 88.0462 43.4005 89.8365 38.4979C89.864 38.4153 89.9191 38.3326 89.9742 38.2775L91.7094 36.3771C91.8471 36.2118 92.0674 36.1292 92.2878 36.1567C92.5081 36.1567 92.7009 36.322 92.8111 36.5148L93.0314 36.9004C93.0314 36.9004 93.0865 37.0381 93.1141 37.1207C93.6649 40.5636 95.1247 46.623 98.843 48.6888C98.8705 48.6888 98.9256 48.7438 98.9532 48.7714L102.203 50.6994L102.424 49.7905C102.479 49.515 102.699 49.3222 102.974 49.2672C104.682 48.9366 106.555 48.0553 108.621 46.5955C108.566 41.9132 108.318 37.2034 107.877 32.6313C107.877 32.3558 107.987 32.1079 108.208 31.9702L111.926 29.8494C111.513 28.0591 110.907 26.4892 110.108 25.057C109.998 24.8366 109.998 24.5887 110.108 24.3959L110.576 23.5146L106.307 20.9806C106.307 20.9806 106.197 20.9531 106.142 20.898C103.498 19.3005 100.578 19.0526 98.5951 19.1352C98.3197 19.1352 98.1269 19.0251 97.9892 18.8323C97.8515 18.6395 97.8239 18.3916 97.9341 18.1712L98.7053 16.381L95.0421 14.2326C90.47 16.1606 88.8174 20.237 88.4318 21.4488C88.3767 21.6416 88.2114 21.8069 88.0186 21.8895C87.8258 21.9722 87.6055 21.9446 87.4127 21.8344L86.0356 21.0082C86.0356 21.0082 85.9805 21.0082 85.9529 20.9531C83.3639 19.3556 79.6456 21.9997 78.5714 22.8535L79.3151 26.1587C79.4253 26.682 79.1498 27.3706 78.6541 27.7286C68.8213 32.9893 59.9524 46.1824 58.052 49.1294L60.2003 50.3964C60.4758 50.5617 60.6135 50.8922 60.5033 51.1952C59.6495 53.8117 59.0986 56.2906 58.8507 58.6042L58.7681 59.4856C58.1897 65.2145 57.8592 70.9434 57.7766 76.5071V76.5897Z" fill="url(#paint16_linear_372_772)"/>
<path d="M78.6265 48.6887L83.8046 55.2439L80.7473 64.1678L74.3298 60.2567L77.1668 49.8731L78.6265 48.6887Z" fill="url(#paint17_linear_372_772)"/>
<path d="M80.7479 64.8564C80.7479 64.8564 80.5001 64.8289 80.3899 64.7463L73.9724 60.8352C73.697 60.6699 73.5868 60.3669 73.6694 60.064L76.5063 49.6803C76.5339 49.5426 76.6165 49.4049 76.7267 49.3222L78.1864 48.1379C78.3242 48.0277 78.517 47.9726 78.7098 48.0002C78.9026 48.0002 79.0678 48.1104 79.178 48.2481L84.3561 54.8033C84.4938 54.9961 84.5489 55.244 84.4662 55.4643L81.409 64.3882C81.3539 64.581 81.1886 64.7463 80.9958 64.8013C80.9132 64.8013 80.8306 64.8289 80.7479 64.8289V64.8564ZM75.1292 59.9538L80.3899 63.1488L83.034 55.3817L78.5445 49.6803L77.8008 50.2862L75.1567 59.9538H75.1292Z" fill="url(#paint18_linear_372_772)"/>
<path d="M117.214 32.9065C114.019 17.1795 98.953 21.7517 98.953 21.7517C98.5949 21.8343 98.4021 21.5589 98.5123 21.0906L99.5865 16.188C93.5821 18.5291 92.1224 24.3682 92.1224 24.3682C88.7621 19.6584 82.262 25.3322 82.262 25.3322L83.0883 29.0505C83.1434 29.3259 82.9781 29.7391 82.7027 29.9319C71.4377 35.9638 61.5498 52.1039 61.5498 52.1039L64.6896 52.5721C63.643 55.4917 62.9269 58.4388 62.6239 61.3032L62.5413 62.1846C61.9354 68.1339 61.6048 73.973 61.5222 79.6468C62.679 78.9858 65.4058 77.3607 68.8486 74.7992C72.4843 72.1 75.9547 68.189 78.4335 63.6168C79.3149 62.0193 80.1137 60.2291 80.7196 58.3837V64.1952C87.1922 57.2269 93.4995 47.9725 96.5568 36.5146C96.5568 36.5146 97.7136 61.4409 113.799 49.7077C113.744 44.7775 113.496 40.0126 113.055 35.3303L117.214 32.9616V32.9065Z" fill="url(#paint19_linear_372_772)"/>
<path d="M117.214 32.9065C114.019 17.1795 98.953 21.7517 98.953 21.7517C98.5949 21.8343 98.4021 21.5589 98.5123 21.0906L99.5865 16.188C93.5821 18.5291 92.1224 24.3682 92.1224 24.3682C88.7621 19.6584 82.262 25.3322 82.262 25.3322L83.0883 29.0505C83.1434 29.3259 82.9781 29.7391 82.7027 29.9319C71.4377 35.9638 61.5498 52.1039 61.5498 52.1039L64.6896 52.5721C63.643 55.4917 62.9269 58.4388 62.6239 61.3032L62.5413 62.1846C61.9354 68.1339 61.6048 73.973 61.5222 79.6468C62.679 78.9858 65.4058 77.3607 68.8486 74.7992C72.4843 72.1 75.9547 68.189 78.4335 63.6168C79.3149 62.0193 80.1137 60.2291 80.7196 58.3837V64.1952C87.1922 57.2269 93.4995 47.9725 96.5568 36.5146C96.5568 36.5146 97.7136 61.4409 113.799 49.7077C113.744 44.7775 113.496 40.0126 113.055 35.3303L117.214 32.9616V32.9065Z" fill="url(#paint20_linear_372_772)"/>
<path d="M61.5513 80.308C61.5513 80.308 61.3034 80.2805 61.1932 80.1978C60.9729 80.0877 60.8627 79.8398 60.8627 79.5919C60.9453 73.863 61.2758 67.9688 61.8818 62.0471L61.9644 61.1657C62.2123 58.5767 62.8458 55.8499 63.7822 53.0681L61.4411 52.7101C61.2208 52.6825 61.028 52.5173 60.9178 52.3245C60.8076 52.1041 60.8352 51.8562 60.9453 51.6634C61.3585 51.0024 71.0811 35.2754 82.3737 29.2435C82.3737 29.2435 82.4012 29.1333 82.4012 29.0783L81.575 25.3875C81.5199 25.1396 81.6025 24.8917 81.7953 24.7265C81.9606 24.5888 85.6788 21.3663 89.2043 21.7519C90.1959 21.862 91.0772 22.2752 91.8209 22.9362C92.5921 21.0082 94.6578 17.2624 99.3126 15.4445C99.5605 15.3619 99.8083 15.3894 100.001 15.5547C100.194 15.72 100.277 15.9678 100.221 16.2157L99.2024 20.8429C100.827 20.4573 106.446 19.3832 111.266 22.2476C114.654 24.2583 116.857 27.7562 117.849 32.6588C117.904 32.9618 117.766 33.2372 117.518 33.4025L113.745 35.5508C114.186 40.123 114.406 44.8328 114.461 49.5426C114.461 49.763 114.351 49.9833 114.186 50.0935C109.834 53.2609 106.088 54.1423 103.031 52.6825C98.5689 50.5342 96.8612 43.9514 96.2278 39.82C93.3358 48.6062 88.2954 56.8966 81.2169 64.4984C81.0241 64.7188 80.7211 64.7738 80.4732 64.6637C80.1978 64.5535 80.0325 64.3056 80.0325 64.0302V61.7992C79.7296 62.4602 79.3991 63.0937 79.041 63.7547C76.6172 68.2442 73.1468 72.293 69.2633 75.185C65.6827 77.8567 62.9009 79.5093 61.8542 80.0877C61.7441 80.1428 61.6339 80.1703 61.5237 80.1703L61.5513 80.308ZM62.7081 51.5532L64.8013 51.8562C64.9941 51.8838 65.1869 51.9939 65.2971 52.1867C65.4073 52.352 65.4348 52.5723 65.3522 52.7651C64.278 55.7122 63.617 58.6042 63.3416 61.331L63.2589 62.2123C62.7081 67.6658 62.3776 73.0918 62.2674 78.4076C63.617 77.5813 65.8204 76.1766 68.4921 74.221C72.2104 71.4668 75.5431 67.5557 77.8842 63.259C78.8207 61.5238 79.5643 59.8161 80.1152 58.136C80.2253 57.8055 80.5283 57.6127 80.8864 57.6678C81.2169 57.7229 81.4648 57.9983 81.4648 58.3563V62.4051C88.5984 54.3626 93.4735 45.604 95.9248 36.322C96.0074 35.9915 96.3104 35.7712 96.6684 35.8263C96.999 35.8538 97.2744 36.1292 97.2744 36.4873C97.2744 36.5975 97.9079 48.854 103.692 51.6083C106.171 52.7927 109.366 52.049 113.139 49.3498C113.084 44.6675 112.836 39.9577 112.395 35.3856C112.395 35.1102 112.506 34.8623 112.726 34.7246L116.444 32.6038C115.48 28.3621 113.525 25.3324 110.605 23.5972C105.537 20.5675 99.2299 22.4404 99.1748 22.4404C98.7617 22.5506 98.4036 22.4404 98.1558 22.1925C97.8528 21.9171 97.7426 21.4489 97.8528 20.9807L98.624 17.4001C94.0519 19.8239 92.8124 24.5061 92.8124 24.5337C92.7574 24.7816 92.537 25.0019 92.2616 25.057C91.9862 25.1121 91.7383 25.0019 91.573 24.7816C90.912 23.8451 90.0857 23.3493 89.0666 23.2116C86.6704 22.9362 83.9436 24.8642 83.0347 25.5803L83.7784 28.8855C83.8886 29.4088 83.6131 30.0973 83.1174 30.4554C73.5875 35.5784 64.9391 48.1104 62.7081 51.5532Z" fill="#32466D"/>
<path d="M61.5505 52.765C61.5505 52.765 61.3026 52.7374 61.1924 52.6824L56.7305 50.0382C56.3999 49.8454 56.2898 49.4323 56.4826 49.1018C56.6754 48.7713 57.0885 48.6611 57.419 48.8539L61.881 51.498C62.2115 51.6908 62.3217 52.104 62.1289 52.4345C61.9911 52.6548 61.7708 52.765 61.5229 52.765H61.5505Z" fill="#32466D"/>
<path d="M90.8012 23.7623C90.8012 23.7623 90.5533 23.7348 90.4431 23.6797L85.9812 21.0356C85.6507 20.8428 85.5405 20.4296 85.7333 20.0991C85.9261 19.7686 86.3392 19.6584 86.6698 19.8512L91.1317 22.4953C91.4622 22.6881 91.5724 23.1013 91.3796 23.4318C91.2419 23.6521 91.0215 23.7623 90.7736 23.7623H90.8012Z" fill="url(#paint21_linear_372_772)"/>
<path d="M149.218 101.378L139.992 96.3929C139.964 96.3929 139.799 96.3103 139.799 96.3103C136.631 94.5751 132.335 94.8505 127.57 97.6048C117.902 103.196 110.052 116.775 110.052 127.929C110.052 133.906 112.311 137.955 115.864 139.58L124.981 144.483C125.174 144.62 125.394 144.703 125.614 144.813L125.89 144.951C128.974 146.356 133.051 145.97 137.54 143.381C147.208 137.79 155.058 124.211 155.058 113.056C155.058 107.052 152.799 103.003 149.218 101.378Z" fill="#6697FE"/>
<path d="M129.773 147.155C128.258 147.155 126.826 146.879 125.532 146.301C125.449 146.301 125.339 146.246 125.256 146.191L124.981 146.053C124.733 145.915 124.512 145.805 124.292 145.667L115.231 140.82C115.231 140.82 115.148 140.765 115.12 140.765C111.044 138.781 108.703 134.127 108.703 127.93C108.703 116.334 116.856 102.205 126.909 96.393C131.922 93.501 136.742 93.0328 140.487 95.0709L149.907 100.111C149.907 100.111 149.962 100.139 149.99 100.166C154.121 102.149 156.462 106.804 156.462 113.029C156.462 124.624 148.31 138.754 138.256 144.566C135.309 146.273 132.417 147.127 129.773 147.127V147.155ZM126.358 143.684C126.358 143.684 126.44 143.684 126.468 143.739C129.277 145.006 132.968 144.483 136.879 142.224C146.161 136.853 153.708 123.798 153.708 113.084C153.708 107.906 151.863 104.133 148.668 102.645C148.585 102.618 148.502 102.563 148.447 102.508L139.358 97.6324C136.301 95.9523 132.445 96.4205 128.286 98.8168C119.004 104.188 111.457 117.243 111.457 127.957C111.457 133.108 113.275 136.909 116.47 138.368C116.553 138.396 116.635 138.451 116.69 138.506L125.642 143.299C125.862 143.436 126.027 143.519 126.165 143.574L126.358 143.684Z" fill="#6697FE"/>
<path d="M143.765 110.605L148.144 100.883L138.918 95.9249L138.725 95.8422C135.557 94.107 131.261 94.3825 126.496 97.1367C116.828 102.728 108.979 116.307 108.979 127.461C108.979 133.438 111.237 137.487 114.79 139.112L124.816 144.483L132.197 136.303L134.951 130.161C139.579 124.542 142.884 117.353 143.765 110.605Z" fill="url(#paint22_linear_372_772)"/>
<path d="M143.765 110.605L148.144 100.883L138.918 95.9249L138.725 95.8422C135.557 94.107 131.261 94.3825 126.496 97.1367C116.828 102.728 108.979 116.307 108.979 127.461C108.979 133.438 111.237 137.487 114.79 139.112L124.816 144.483L132.197 136.303L134.951 130.161C139.579 124.542 142.884 117.353 143.765 110.605Z" fill="url(#paint23_linear_372_772)"/>
<path d="M110.686 117.601C109.612 120.824 109.006 124.101 109.006 127.186C109.006 133.163 111.264 137.212 114.817 138.837L124.843 144.207L132.224 136.027L134.373 131.262L110.714 117.601H110.686Z" fill="url(#paint24_linear_372_772)"/>
<path d="M124.816 145.172C124.816 145.172 124.595 145.172 124.485 145.089L114.46 139.718C114.46 139.718 114.405 139.69 114.377 139.663C110.493 137.79 108.29 133.356 108.29 127.434C108.29 116.059 116.305 102.177 126.138 96.5032C130.958 93.7214 135.53 93.2532 139.028 95.2087L139.193 95.2914L148.448 100.249C148.778 100.414 148.888 100.8 148.751 101.13L144.399 110.77C143.517 117.518 140.267 124.68 135.502 130.491L132.776 136.551C132.776 136.551 132.721 136.688 132.665 136.716L125.284 144.896C125.146 145.034 124.953 145.116 124.761 145.116L124.816 145.172ZM115.231 138.589L124.651 143.629L131.591 135.917L134.318 129.885C134.318 129.885 134.373 129.775 134.401 129.72C139 124.129 142.223 116.968 143.049 110.523C143.049 110.467 143.049 110.385 143.104 110.33L147.208 101.186L138.367 96.4482C135.282 94.7405 131.178 95.2087 126.799 97.7427C117.324 103.224 109.64 116.554 109.64 127.489C109.64 132.915 111.623 136.936 115.066 138.534C115.121 138.534 115.176 138.589 115.203 138.616L115.231 138.589Z" fill="#32466D"/>
<path d="M148.878 129.83C155.716 117.987 155.716 105.186 148.879 101.238C142.042 97.2911 130.956 103.692 124.119 115.535C117.281 127.378 117.281 140.179 124.118 144.126C130.955 148.073 142.04 141.673 148.878 129.83Z" fill="url(#paint25_linear_372_772)"/>
<path d="M148.878 129.83C155.716 117.987 155.716 105.186 148.879 101.238C142.042 97.2911 130.956 103.692 124.119 115.535C117.281 127.378 117.281 140.179 124.118 144.126C130.955 148.073 142.04 141.673 148.878 129.83Z" fill="#6697FE"/>
<path d="M128.672 145.998C126.881 145.998 125.229 145.585 123.769 144.731C120.244 142.693 118.288 138.451 118.288 132.805C118.288 121.43 126.303 107.548 136.136 101.874C141.039 99.0373 145.666 98.5966 149.219 100.635C152.744 102.673 154.7 106.915 154.7 112.561C154.7 123.936 146.685 137.818 136.852 143.491C133.988 145.144 131.206 145.97 128.672 145.97V145.998ZM144.316 100.745C142.03 100.745 139.496 101.516 136.852 103.059C127.377 108.54 119.693 121.87 119.693 132.805C119.693 137.955 121.4 141.756 124.485 143.547C127.57 145.337 131.729 144.896 136.191 142.307C145.666 136.854 153.35 123.495 153.35 112.561C153.35 107.41 151.643 103.609 148.558 101.819C147.318 101.103 145.886 100.745 144.344 100.745H144.316Z" fill="#32466D"/>
<path d="M149.217 114.902L146.931 113.635C146.325 113.387 145.527 113.442 144.673 113.938L139.935 116.665V112.561L141.065 110.192L138.696 108.87C138.09 108.622 137.319 108.705 136.465 109.2C134.537 110.302 132.995 113.001 132.995 115.205V120.658L128.257 123.385C126.329 124.487 124.787 127.186 124.787 129.389C124.787 130.546 125.228 131.345 125.889 131.675L128.092 132.915L130.791 130.078L132.995 129.279V134.072C132.995 135.091 133.325 135.807 133.876 136.22L136.465 137.707L138.393 134.237C138.834 133.631 139.192 132.998 139.44 132.337L139.688 131.868L141.285 123.853L144.645 121.898C146.546 120.796 148.088 118.124 148.116 115.921L149.19 114.819L149.217 114.902Z" fill="#6697FE"/>
<path d="M149.217 114.902L146.931 113.635C146.325 113.387 145.527 113.442 144.673 113.938L139.935 116.665V112.561L141.065 110.192L138.696 108.87C138.09 108.622 137.319 108.705 136.465 109.2C134.537 110.302 132.995 113.001 132.995 115.205V120.658L128.257 123.385C126.329 124.487 124.787 127.186 124.787 129.389C124.787 130.546 125.228 131.345 125.889 131.675L128.092 132.915L130.791 130.078L132.995 129.279V134.072C132.995 135.091 133.325 135.807 133.876 136.22L136.465 137.707L138.393 134.237C138.834 133.631 139.192 132.998 139.44 132.337L139.688 131.868L141.285 123.853L144.645 121.898C146.546 120.796 148.088 118.124 148.116 115.921L149.19 114.819L149.217 114.902Z" fill="#6697FE"/>
<path d="M136.493 138.451C136.493 138.451 136.245 138.424 136.163 138.369L133.574 136.881C132.747 136.303 132.334 135.339 132.334 134.155V130.326L131.205 130.739L128.616 133.438C128.396 133.659 128.038 133.714 127.79 133.549L125.586 132.309C125.586 132.309 125.531 132.309 125.531 132.254C124.65 131.758 124.154 130.739 124.154 129.417C124.154 126.938 125.834 124.046 127.983 122.807L132.362 120.273V115.205C132.362 112.726 134.042 109.834 136.19 108.595C137.182 108.016 138.173 107.879 139.027 108.237L141.479 109.586C141.809 109.752 141.919 110.165 141.754 110.495L140.707 112.726V115.48L144.398 113.36C145.417 112.781 146.436 112.671 147.263 113.002L149.604 114.296C149.796 114.406 149.907 114.599 149.962 114.792C149.989 115.012 149.934 115.233 149.769 115.37L148.888 116.279C148.75 118.675 147.125 121.375 145.087 122.559L141.974 124.349L140.432 132.034C140.432 132.034 140.404 132.171 140.349 132.227L140.101 132.695C139.853 133.328 139.468 134.017 139 134.678L137.127 138.066C137.044 138.231 136.879 138.341 136.714 138.396C136.659 138.396 136.576 138.396 136.521 138.396L136.493 138.451ZM133.023 128.646C133.161 128.646 133.298 128.701 133.408 128.784C133.601 128.921 133.711 129.114 133.711 129.335V134.155C133.711 134.898 133.932 135.449 134.317 135.724L136.245 136.826L137.815 133.962C138.284 133.328 138.587 132.75 138.834 132.144L139.082 131.676L140.652 123.771C140.68 123.578 140.817 123.413 140.983 123.303L144.343 121.347C146.023 120.383 147.455 117.904 147.455 115.976C147.455 115.811 147.538 115.618 147.648 115.508L148.089 115.067L146.601 114.241C146.243 114.103 145.637 114.186 145.004 114.544L140.294 117.271C140.074 117.381 139.826 117.381 139.606 117.271C139.385 117.161 139.275 116.913 139.275 116.665V112.561C139.275 112.561 139.275 112.368 139.33 112.258L140.184 110.468L138.394 109.476C138.036 109.338 137.457 109.449 136.851 109.807C135.144 110.798 133.711 113.277 133.711 115.233V120.686C133.711 120.934 133.574 121.154 133.381 121.292L128.644 124.019C126.936 125.01 125.504 127.489 125.504 129.445C125.504 130.271 125.752 130.877 126.247 131.125C126.302 131.125 126.33 131.18 126.357 131.207L127.983 132.144L130.324 129.72C130.324 129.72 130.489 129.582 130.599 129.555L132.803 128.756C132.803 128.756 132.968 128.729 133.023 128.729V128.646Z" fill="#6697FE"/>
<path d="M146.932 115.205L142.194 117.932V112.478C142.194 110.275 140.652 109.366 138.724 110.467C136.796 111.569 135.253 114.268 135.253 116.472V121.925L130.516 124.652C128.588 125.754 127.046 128.453 127.046 130.656C127.046 132.86 128.588 133.769 130.516 132.667L135.253 129.94V135.394C135.253 137.597 136.796 138.506 138.724 137.404C140.652 136.303 142.194 133.603 142.194 131.4V125.947L146.932 123.22C148.86 122.118 150.402 119.419 150.402 117.215C150.402 115.012 148.86 114.103 146.932 115.205Z" fill="#6697FE"/>
<path d="M146.932 115.205L142.194 117.932V112.478C142.194 110.275 140.652 109.366 138.724 110.467C136.796 111.569 135.253 114.268 135.253 116.472V121.925L130.516 124.652C128.588 125.754 127.046 128.453 127.046 130.656C127.046 132.86 128.588 133.769 130.516 132.667L135.253 129.94V135.394C135.253 137.597 136.796 138.506 138.724 137.404C140.652 136.303 142.194 133.603 142.194 131.4V125.947L146.932 123.22C148.86 122.118 150.402 119.419 150.402 117.215C150.402 115.012 148.86 114.103 146.932 115.205Z" fill="#6697FE"/>
<path d="M137.181 138.589C136.74 138.589 136.3 138.479 135.942 138.258C135.06 137.763 134.592 136.744 134.592 135.422V131.152L130.901 133.273C129.745 133.934 128.643 134.017 127.761 133.521C126.88 133.025 126.412 132.006 126.412 130.684C126.412 128.205 128.092 125.313 130.24 124.074L134.62 121.54V116.472C134.62 113.993 136.3 111.101 138.448 109.862C139.605 109.201 140.707 109.118 141.588 109.614C142.469 110.11 142.938 111.129 142.938 112.451V116.72L146.628 114.599C147.785 113.938 148.887 113.855 149.768 114.351C150.65 114.847 151.118 115.866 151.118 117.188C151.118 119.667 149.438 122.559 147.289 123.798L142.91 126.332V131.4C142.91 133.879 141.23 136.771 139.082 138.011C138.421 138.396 137.787 138.589 137.181 138.589ZM135.253 129.279C135.253 129.279 135.501 129.307 135.584 129.362C135.804 129.472 135.914 129.72 135.914 129.968V135.422C135.914 136.22 136.162 136.826 136.575 137.074C137.016 137.322 137.649 137.239 138.338 136.826C140.046 135.862 141.478 133.383 141.478 131.4V125.947C141.478 125.699 141.616 125.479 141.808 125.341L146.546 122.614C148.253 121.623 149.686 119.144 149.686 117.188C149.686 116.389 149.438 115.783 149.025 115.536C148.611 115.288 147.95 115.37 147.262 115.783L142.524 118.51C142.304 118.62 142.056 118.62 141.836 118.51C141.616 118.4 141.505 118.152 141.505 117.904V112.451C141.505 111.652 141.257 111.046 140.844 110.798C140.404 110.55 139.77 110.633 139.082 111.046C137.374 112.038 135.942 114.517 135.942 116.472V121.926C135.942 122.173 135.804 122.394 135.611 122.531L130.874 125.258C129.166 126.222 127.734 128.701 127.734 130.684C127.734 131.483 127.982 132.089 128.395 132.337C128.808 132.585 129.469 132.502 130.158 132.089L134.895 129.362C134.895 129.362 135.115 129.279 135.226 129.279H135.253Z" fill="#32466D"/>
<defs>
<linearGradient id="paint0_linear_372_772" x1="66.0818" y1="73.0298" x2="163.357" y2="132.049" gradientUnits="userSpaceOnUse">
<stop stop-color="#65B5FF"/>
<stop offset="1" stop-color="#10384F"/>
</linearGradient>
<linearGradient id="paint1_linear_372_772" x1="25.8129" y1="129.5" x2="65.4649" y2="146.347" gradientUnits="userSpaceOnUse">
<stop stop-color="#65B5FF"/>
<stop offset="1" stop-color="#10384F"/>
</linearGradient>
<linearGradient id="paint2_linear_372_772" x1="68.0513" y1="0.653811" x2="130.028" y2="23.59" gradientUnits="userSpaceOnUse">
<stop stop-color="#65B5FF"/>
<stop offset="1" stop-color="#10384F"/>
</linearGradient>
<linearGradient id="paint3_linear_372_772" x1="68.0513" y1="0.653811" x2="130.028" y2="23.59" gradientUnits="userSpaceOnUse">
<stop stop-color="#65B5FF"/>
<stop offset="1" stop-color="#10384F"/>
</linearGradient>
<linearGradient id="paint4_linear_372_772" x1="59.9251" y1="55.0786" x2="98.0316" y2="79.0503" gradientUnits="userSpaceOnUse">
<stop stop-color="#65B5FF"/>
<stop offset="1" stop-color="#10384F"/>
</linearGradient>
<linearGradient id="paint5_linear_372_772" x1="83.214" y1="25.4609" x2="126.417" y2="39.6988" gradientUnits="userSpaceOnUse">
<stop stop-color="#65B5FF"/>
<stop offset="1" stop-color="#10384F"/>
</linearGradient>
<linearGradient id="paint6_linear_372_772" x1="83.0065" y1="93.6387" x2="108.552" y2="101.322" gradientUnits="userSpaceOnUse">
<stop stop-color="#65B5FF"/>
<stop offset="1" stop-color="#10384F"/>
</linearGradient>
<linearGradient id="paint7_linear_372_772" x1="82.9235" y1="93.6387" x2="108.469" y2="101.322" gradientUnits="userSpaceOnUse">
<stop stop-color="#65B5FF"/>
<stop offset="1" stop-color="#10384F"/>
</linearGradient>
<linearGradient id="paint8_linear_372_772" x1="84.9758" y1="93.6113" x2="107.206" y2="108.393" gradientUnits="userSpaceOnUse">
<stop stop-color="#65B5FF"/>
<stop offset="1" stop-color="#10384F"/>
</linearGradient>
<linearGradient id="paint9_linear_372_772" x1="84.9758" y1="93.6113" x2="107.206" y2="108.393" gradientUnits="userSpaceOnUse">
<stop stop-color="#65B5FF"/>
<stop offset="1" stop-color="#10384F"/>
</linearGradient>
<linearGradient id="paint10_linear_372_772" x1="85.0319" y1="92.8936" x2="108.444" y2="108.298" gradientUnits="userSpaceOnUse">
<stop stop-color="#65B5FF"/>
<stop offset="1" stop-color="#10384F"/>
</linearGradient>
<linearGradient id="paint11_linear_372_772" x1="86.9442" y1="95.9248" x2="106.776" y2="108.54" gradientUnits="userSpaceOnUse">
<stop stop-color="#65B5FF"/>
<stop offset="1" stop-color="#10384F"/>
</linearGradient>
<linearGradient id="paint12_linear_372_772" x1="86.9442" y1="95.9248" x2="106.776" y2="108.54" gradientUnits="userSpaceOnUse">
<stop stop-color="#65B5FF"/>
<stop offset="1" stop-color="#10384F"/>
</linearGradient>
<linearGradient id="paint13_linear_372_772" x1="84.9478" y1="13.5439" x2="133.751" y2="36.2077" gradientUnits="userSpaceOnUse">
<stop stop-color="#65B5FF"/>
<stop offset="1" stop-color="#10384F"/>
</linearGradient>
<linearGradient id="paint14_linear_372_772" x1="84.9478" y1="13.5439" x2="133.751" y2="36.2077" gradientUnits="userSpaceOnUse">
<stop stop-color="#65B5FF"/>
<stop offset="1" stop-color="#10384F"/>
</linearGradient>
<linearGradient id="paint15_linear_372_772" x1="69.9648" y1="44.4194" x2="93.6957" y2="54.0646" gradientUnits="userSpaceOnUse">
<stop stop-color="#65B5FF"/>
<stop offset="1" stop-color="#10384F"/>
</linearGradient>
<linearGradient id="paint16_linear_372_772" x1="84.9123" y1="12.835" x2="134.891" y2="36.1332" gradientUnits="userSpaceOnUse">
<stop stop-color="#65B5FF"/>
<stop offset="1" stop-color="#10384F"/>
</linearGradient>
<linearGradient id="paint17_linear_372_772" x1="79.0672" y1="48.6887" x2="88.1413" y2="51.7523" gradientUnits="userSpaceOnUse">
<stop stop-color="#65B5FF"/>
<stop offset="1" stop-color="#10384F"/>
</linearGradient>
<linearGradient id="paint18_linear_372_772" x1="79.0738" y1="47.9932" x2="89.3638" y2="51.6491" gradientUnits="userSpaceOnUse">
<stop stop-color="#65B5FF"/>
<stop offset="1" stop-color="#10384F"/>
</linearGradient>
<linearGradient id="paint19_linear_372_772" x1="89.3681" y1="16.188" x2="137.505" y2="39.4891" gradientUnits="userSpaceOnUse">
<stop stop-color="#65B5FF"/>
<stop offset="1" stop-color="#10384F"/>
</linearGradient>
<linearGradient id="paint20_linear_372_772" x1="89.3681" y1="16.188" x2="137.505" y2="39.4891" gradientUnits="userSpaceOnUse">
<stop stop-color="#65B5FF"/>
<stop offset="1" stop-color="#10384F"/>
</linearGradient>
<linearGradient id="paint21_linear_372_772" x1="88.5564" y1="19.7563" x2="92.3399" y2="22.7965" gradientUnits="userSpaceOnUse">
<stop stop-color="#65B5FF"/>
<stop offset="1" stop-color="#10384F"/>
</linearGradient>
<linearGradient id="paint22_linear_372_772" x1="128.562" y1="94.7542" x2="163.713" y2="110.024" gradientUnits="userSpaceOnUse">
<stop stop-color="#65B5FF"/>
<stop offset="1" stop-color="#10384F"/>
</linearGradient>
<linearGradient id="paint23_linear_372_772" x1="128.562" y1="94.7542" x2="163.713" y2="110.024" gradientUnits="userSpaceOnUse">
<stop stop-color="#65B5FF"/>
<stop offset="1" stop-color="#10384F"/>
</linearGradient>
<linearGradient id="paint24_linear_372_772" x1="121.689" y1="117.601" x2="142.89" y2="128.75" gradientUnits="userSpaceOnUse">
<stop stop-color="#65B5FF"/>
<stop offset="1" stop-color="#10384F"/>
</linearGradient>
<linearGradient id="paint25_linear_372_772" x1="124.119" y1="115.535" x2="160.783" y2="104.809" gradientUnits="userSpaceOnUse">
<stop stop-color="#65B5FF"/>
<stop offset="1" stop-color="#10384F"/>
</linearGradient>
</defs>
</svg>
