<svg width="32" height="32" viewBox="0 0 32 32" fill="none" xmlns="http://www.w3.org/2000/svg">
<path fill-rule="evenodd" clip-rule="evenodd" d="M13.232 20.6976V30.346C13.232 30.7849 13.4062 31.2055 13.7161 31.5154C14.0265 31.8258 14.4472 32 14.886 32C18.0568 32 27.1753 32 30.346 32C30.7849 32 31.2055 31.8258 31.5154 31.5154C31.8258 31.2055 32 30.7849 32 30.346C32 28.0943 32 23.1786 32 23.1786C32 22.8743 31.753 22.6273 31.4487 22.6273C31.1443 22.6273 30.8973 22.8743 30.8973 23.1786C30.8973 23.1786 30.8973 28.0943 30.8973 30.346C30.8973 30.4921 30.8394 30.6327 30.7358 30.7358C30.6327 30.8394 30.4921 30.8973 30.346 30.8973C27.1753 30.8973 18.0568 30.8973 14.886 30.8973C14.7399 30.8973 14.5993 30.8394 14.4962 30.7358C14.3926 30.6327 14.3347 30.4921 14.3347 30.346V20.6976C14.3347 20.3933 14.0877 20.1463 13.7834 20.1463C13.479 20.1463 13.232 20.3933 13.232 20.6976ZM17.114 17.6653H1.654C1.34912 17.6653 1.10267 17.4183 1.10267 17.114L1.10267 10.498C1.10267 10.1936 0.855671 9.94662 0.551334 9.94662C0.246998 9.94662 0 10.1936 0 10.498L0 17.114C0 18.0275 0.740442 18.768 1.654 18.768H15.4374V29.2433C15.4374 29.5477 15.6838 29.7947 15.9887 29.7947H29.2433C29.5477 29.7947 29.7947 29.5477 29.7947 29.2433V15.9887C29.7947 15.6838 29.5477 15.4374 29.2433 15.4374H19.8706C19.5663 15.4374 19.3193 15.6844 19.3193 15.9887C19.3193 16.293 19.5663 16.54 19.8706 16.54H28.692V28.692H16.54V18.768H17.114C18.0275 18.768 18.768 18.0275 18.768 17.114V14.3347H30.346C30.4921 14.3347 30.6327 14.3926 30.7358 14.4962C30.8394 14.5993 30.8973 14.7399 30.8973 14.886V20.422C30.8973 20.7263 31.1443 20.9733 31.4487 20.9733C31.753 20.9733 32 20.7263 32 20.422V14.886C32 14.4472 31.8258 14.0265 31.5154 13.7161C31.2055 13.4062 30.7849 13.232 30.346 13.232H18.768V1.654C18.768 0.740442 18.0275 0 17.114 0L1.654 0C0.740442 0 0 0.740442 0 1.654C0 3.79208 0 8.29262 0 8.29262C0 8.59696 0.246998 8.84396 0.551334 8.84396C0.855671 8.84396 1.10267 8.59696 1.10267 8.29262L1.10267 1.654C1.10267 1.34912 1.34912 1.10267 1.654 1.10267L17.114 1.10267C17.4183 1.10267 17.6653 1.34912 17.6653 1.654V17.114C17.6653 17.4183 17.4183 17.6653 17.114 17.6653ZM8.56553 27.1714L7.7275 27.3225C7.42813 27.3765 7.22854 27.6632 7.28258 27.9626C7.33661 28.262 7.6233 28.4615 7.92323 28.4075L9.98467 28.0359C10.1738 28.0398 10.3601 27.9455 10.466 27.7729C10.5211 27.6831 10.547 27.5833 10.547 27.4851C10.5476 27.4493 10.5448 27.4129 10.5382 27.3765L10.1473 25.2059C10.0933 24.9065 9.80658 24.7069 9.50666 24.761C9.20728 24.815 9.00825 25.1017 9.06228 25.4016L9.22107 26.2849C7.42647 24.906 6.02774 23.037 5.22555 20.879C5.11969 20.5934 4.80212 20.4484 4.51708 20.5543C4.23149 20.6602 4.08594 20.9777 4.19235 21.2628C5.06897 23.623 6.60058 25.6663 8.56553 27.1714ZM20.9502 24.5019H24.2813L25.4876 27.2591C25.6095 27.5375 25.9353 27.6649 26.2137 27.543C26.4927 27.4212 26.6201 27.0959 26.4982 26.8169L23.1213 19.0982C23.0331 18.8975 22.8352 18.768 22.6157 18.768C22.3969 18.768 22.1984 18.8975 22.1107 19.0982L18.7338 26.8169C18.6119 27.0959 18.7393 27.4212 19.0183 27.543C19.2967 27.6649 19.622 27.5375 19.7444 27.2591L20.9502 24.5019ZM21.4326 23.3992H23.7989L22.6157 20.6949L21.4326 23.3992ZM16.5626 2.75667C16.5626 2.45178 16.3156 2.20534 16.0113 2.20534L2.75667 2.20534C2.45178 2.20534 2.20534 2.45178 2.20534 2.75667L2.20534 16.0113C2.20534 16.3156 2.45178 16.5626 2.75667 16.5626H16.0113C16.3156 16.5626 16.5626 16.3156 16.5626 16.0113V2.75667ZM15.46 3.30801V15.46H3.30801L3.30801 3.30801L15.46 3.30801ZM8.72487 5.92078H5.60928C5.30494 5.92078 5.05794 6.16778 5.05794 6.47211C5.05794 6.7759 5.30494 7.02345 5.60928 7.02345H6.79134C6.87018 8.69179 7.53178 10.2085 8.57766 11.374C7.57699 12.1476 6.3227 12.6074 4.96201 12.6074C4.65767 12.6074 4.41067 12.8544 4.41067 13.1587C4.41067 13.463 4.65767 13.71 4.96201 13.71C6.63696 13.71 8.17574 13.1223 9.38371 12.1415C10.5917 13.1223 12.131 13.71 13.806 13.71C14.1103 13.71 14.3573 13.463 14.3573 13.1587C14.3573 12.8544 14.1103 12.6074 13.806 12.6074C12.4453 12.6074 11.191 12.1476 10.1903 11.374C11.2362 10.2085 11.8978 8.69179 11.9766 7.02345H13.1587C13.463 7.02345 13.71 6.7759 13.71 6.47211C13.71 6.16778 13.463 5.92078 13.1587 5.92078H9.82754V5.60928C9.82754 5.30494 9.58054 5.05794 9.2762 5.05794C8.97186 5.05794 8.72487 5.30494 8.72487 5.60928V5.92078ZM22.6268 4.63562C22.4377 4.63176 22.2513 4.72604 22.1454 4.89916C22.0909 4.98847 22.0644 5.08826 22.0644 5.1864C22.0639 5.22224 22.0666 5.25863 22.0732 5.29557L22.4641 7.46562C22.5182 7.76499 22.8054 7.96458 23.1048 7.91055C23.4041 7.85651 23.6037 7.56982 23.5497 7.27045L23.3904 6.38666C25.185 7.76554 26.5842 9.63457 27.3859 11.7925C27.4917 12.0781 27.8093 12.2236 28.0949 12.1172C28.3799 12.0114 28.5255 11.6938 28.4196 11.4088C27.5425 9.0485 26.0114 7.00525 24.0459 5.50011L24.8839 5.34905C25.1833 5.29502 25.3829 5.00832 25.3289 4.70895C25.2748 4.40957 24.9881 4.20999 24.6888 4.26402L22.6268 4.63562ZM10.8723 7.02345H7.89566C7.97285 8.40123 8.52198 9.65331 9.38371 10.622C10.246 9.65331 10.7951 8.40068 10.8723 7.02345Z" fill="#EFF4FF"/>
</svg>
