<svg width="32" height="32" viewBox="0 0 32 32" fill="none" xmlns="http://www.w3.org/2000/svg">
<g clip-path="url(#clip0_372_300)">
<path d="M10.3335 13.5753L13.8265 16.2698C13.9609 17.356 14.8766 18.2008 16.0001 18.2008C17.2159 18.2008 18.201 17.2152 18.201 15.9999C18.201 15.9528 18.1901 15.9092 18.1871 15.8625L23.3061 9.80653C23.6637 9.40572 23.6697 8.82834 23.3215 8.51878C22.9728 8.20828 22.4009 8.28272 22.0442 8.68347L17.0139 14.0575C16.7094 13.8977 16.3676 13.799 16.0001 13.799C15.6062 13.799 15.2422 13.9107 14.9227 14.0917L11.6336 11.8015C11.2094 11.489 10.5735 11.6338 10.2139 12.124C9.85531 12.613 9.90787 13.2633 10.3335 13.5753Z" fill="#EFF4FF"/>
<path d="M16 0C15.2986 0 14.7302 0.5685 14.7302 1.26988C14.7302 1.97125 15.2987 2.53969 16 2.53969C19.7213 2.54019 23.0779 4.04419 25.5179 6.48212C27.9559 8.92163 29.4599 12.2787 29.4603 16C29.4599 19.7213 27.9559 23.0779 25.5179 25.5179C23.0779 27.9559 19.7213 29.4598 16 29.4603C12.2788 29.4598 8.92163 27.9558 6.48219 25.5179C4.04419 23.0779 2.54019 19.7213 2.53969 16C2.54019 13.2961 3.33781 10.7853 4.70837 8.67813L5.88694 9.559C6.01444 9.65425 6.18306 9.67806 6.33238 9.6215C6.48119 9.565 6.59231 9.4375 6.62506 9.28075L7.41819 5.52931C7.55956 5.28669 7.62006 5.00794 7.58581 4.73413L7.94444 3.03869C7.98263 2.86019 7.91269 2.67656 7.76731 2.56694C7.62094 2.45831 7.42506 2.44344 7.26431 2.53075L1.65269 5.5645C1.51181 5.64138 1.42006 5.78325 1.40869 5.94244C1.39675 6.10119 1.46719 6.25594 1.59519 6.35169L2.66856 7.15375C0.984125 9.6885 -0.000437354 12.7316 1.45744e-07 16C0.00100015 24.8372 7.16275 31.999 16 32C24.8373 31.999 31.9991 24.8372 32 16C31.9991 7.16275 24.8373 0.001 16 0Z" fill="#EFF4FF"/>
</g>
<defs>
<clipPath id="clip0_372_300">
<rect width="32" height="32" fill="white"/>
</clipPath>
</defs>
</svg>
